{"glyphs":{"0":{"ha":1411,"x_min":0,"x_max":0,"o":"m 339 -6 l 1071 -6 b 1328 242 1243 -6 1328 76 l 1328 731 b 1071 978 1328 896 1243 978 l 339 978 b 83 731 167 978 83 896 l 83 242 b 339 -6 83 76 167 -6 z m 351 79 b 175 254 228 79 175 131 l 175 719 b 351 893 175 842 228 893 l 1060 893 b 1235 719 1183 893 1235 842 l 1235 254 b 1060 79 1235 131 1183 79 z "},"1":{"ha":486,"x_min":0,"x_max":0,"o":"m 378 972 l 58 972 b 42 956 47 972 42 968 l 42 908 b 58 892 42 896 47 892 l 307 892 l 307 17 b 324 0 307 6 311 0 l 378 0 b 396 17 390 0 396 6 l 396 956 b 378 972 396 967 390 972 z "},"2":{"ha":1275,"x_min":0,"x_max":0,"o":"m 83 0 l 1189 0 b 1206 17 1200 0 1206 4 l 1206 64 b 1189 81 1206 76 1200 81 l 153 81 l 153 149 b 296 342 153 243 175 328 l 986 428 b 1213 719 1164 450 1213 558 b 944 979 1213 892 1128 979 l 354 979 b 74 728 183 979 74 904 l 74 707 b 90 690 74 696 78 690 l 146 690 b 163 707 158 690 163 696 b 357 896 163 844 228 896 l 940 896 b 1124 719 1069 896 1124 840 b 953 507 1124 607 1090 524 l 274 419 b 63 126 94 396 63 286 l 63 21 b 83 0 63 7 69 0 z "},"3":{"ha":1288,"x_min":0,"x_max":0,"o":"m 1050 501 l 1050 513 b 1203 719 1153 542 1203 590 b 931 979 1203 892 1114 979 l 354 979 b 74 728 183 979 74 904 l 74 707 b 90 690 74 696 78 690 l 146 690 b 163 707 158 690 163 696 b 357 896 163 844 228 896 l 928 896 b 1114 719 1057 896 1114 840 b 908 547 1114 599 1043 547 l 300 547 b 283 531 289 547 283 543 l 283 483 b 300 467 283 471 289 467 l 908 467 b 1136 260 1043 467 1136 417 b 946 76 1136 139 1076 76 l 346 76 b 151 265 217 76 151 128 b 135 282 151 276 147 282 l 79 282 b 63 265 67 282 63 276 l 63 244 b 343 -7 63 68 172 -7 l 950 -7 b 1225 260 1132 -7 1225 88 b 1050 501 1225 428 1153 476 z "},"4":{"ha":1289,"x_min":0,"x_max":0,"o":"m 1207 276 l 1110 276 l 1110 486 b 1090 506 1110 500 1104 506 l 1038 506 b 1018 486 1024 506 1018 500 l 1018 276 l 200 276 l 196 285 l 871 947 b 863 972 885 960 879 972 l 793 972 b 763 957 783 972 774 968 l 74 281 b 65 250 63 271 61 263 l 78 208 b 100 193 82 196 90 193 l 1018 193 l 1018 19 b 1038 0 1018 6 1024 0 l 1090 0 b 1110 19 1104 0 1110 6 l 1110 193 l 1207 193 b 1226 213 1221 193 1226 199 l 1226 257 b 1207 276 1226 271 1221 276 z "},"5":{"ha":1307,"x_min":0,"x_max":0,"o":"m 350 -7 l 961 -7 b 1238 274 1143 -7 1238 89 l 1238 349 b 981 619 1238 496 1174 619 l 376 619 b 182 540 281 619 208 579 l 174 540 l 204 892 l 1165 892 b 1183 908 1178 892 1183 896 l 1183 956 b 1165 972 1183 968 1178 972 l 146 972 b 125 951 132 972 126 965 l 83 474 b 103 449 82 457 89 449 l 175 449 b 353 538 200 488 247 538 l 953 538 b 1149 342 1090 538 1149 478 l 1149 274 b 957 76 1149 138 1086 76 l 353 76 b 158 265 222 76 158 128 b 142 282 158 276 154 282 l 86 282 b 69 265 74 282 69 276 l 69 244 b 350 -7 69 68 179 -7 z "},"6":{"ha":1318,"x_min":0,"x_max":0,"o":"m 368 -7 l 963 -7 b 1249 274 1161 -7 1249 89 l 1249 326 b 990 596 1249 474 1185 596 l 374 596 b 181 510 281 596 208 556 l 175 510 l 172 719 b 360 897 171 840 229 897 l 946 897 b 1135 751 1078 897 1135 858 b 1151 733 1135 739 1139 733 l 1206 733 b 1224 751 1219 733 1224 739 l 1224 772 b 949 979 1224 919 1122 979 l 356 979 b 83 719 172 979 83 892 l 83 272 b 368 -7 83 89 171 -7 z m 368 75 b 172 274 229 75 172 138 l 172 318 b 368 514 172 456 229 514 l 964 514 b 1160 318 1100 514 1160 456 l 1160 274 b 964 75 1160 138 1100 75 z "},"7":{"ha":1272,"x_min":0,"x_max":0,"o":"m 1203 886 l 1203 953 b 1182 972 1203 967 1196 972 l 89 972 b 69 953 75 972 69 967 l 69 908 b 89 889 69 894 75 889 l 1090 889 l 1090 875 l 92 21 b 99 0 83 14 86 0 l 182 0 b 224 21 200 0 210 10 l 1188 856 b 1203 886 1200 867 1203 875 z "},"8":{"ha":1331,"x_min":0,"x_max":0,"o":"m 1097 536 b 1213 738 1174 565 1213 633 b 968 979 1213 894 1131 979 l 363 979 b 118 738 200 979 118 894 b 232 536 118 635 157 565 b 83 300 132 501 83 426 l 83 265 b 368 -7 83 89 171 -7 l 961 -7 b 1247 267 1160 -7 1247 89 l 1247 299 b 1097 536 1247 425 1197 501 z m 367 900 l 964 900 b 1126 738 1075 900 1126 850 b 964 574 1126 625 1075 574 l 368 574 b 203 738 254 574 203 625 b 367 900 203 850 254 900 z m 1158 267 b 963 75 1158 138 1099 75 l 368 75 b 172 267 229 75 172 138 l 172 299 b 368 492 172 429 229 492 l 963 492 b 1158 299 1100 492 1158 429 z "},"9":{"ha":1318,"x_min":0,"x_max":0,"o":"m 963 979 l 368 979 b 83 699 171 979 83 883 l 83 646 b 342 376 83 499 147 376 l 958 376 b 1150 463 1051 376 1124 418 l 1157 463 l 1160 254 b 972 75 1161 132 1101 75 l 385 75 b 197 221 254 75 197 114 b 179 239 197 233 192 239 l 125 239 b 108 221 113 239 108 233 l 108 200 b 382 -7 108 53 210 -7 l 975 -7 b 1249 254 1160 -7 1249 81 l 1249 700 b 963 979 1249 883 1161 979 z m 964 897 b 1160 699 1101 897 1160 835 l 1160 654 b 964 458 1160 517 1101 458 l 368 458 b 172 654 231 458 172 517 l 172 699 b 368 897 172 835 231 897 z "},"A":{"ha":1464,"x_min":0,"x_max":0,"o":"m 1404 22 l 796 950 b 769 972 788 964 782 972 l 696 972 b 668 950 682 972 676 964 l 60 22 b 74 0 50 7 60 0 l 138 0 b 165 22 151 0 156 7 l 275 189 l 1189 189 l 1299 22 b 1328 0 1308 7 1314 0 l 1392 0 b 1404 22 1406 0 1415 7 z m 328 271 l 725 876 l 739 876 l 1136 271 z "},"Á":{"ha":1464,"x_min":0,"x_max":0,"o":"m 706 1040 l 751 1040 b 785 1065 765 1040 772 1050 l 911 1225 b 904 1250 924 1240 919 1250 l 824 1250 b 792 1225 810 1250 801 1242 l 696 1065 b 706 1040 686 1050 692 1040 z m 1404 22 l 796 950 b 769 972 788 964 782 972 l 696 972 b 668 950 682 972 676 964 l 60 22 b 74 0 50 7 60 0 l 138 0 b 165 22 151 0 156 7 l 275 189 l 1189 189 l 1299 22 b 1328 0 1308 7 1314 0 l 1392 0 b 1404 22 1406 0 1415 7 z m 328 271 l 725 876 l 739 876 l 1136 271 z "},"Ă":{"ha":1464,"x_min":0,"x_max":0,"o":"m 703 1061 l 760 1061 b 925 1235 871 1061 925 1118 b 907 1250 925 1246 921 1250 l 867 1250 b 849 1235 853 1250 849 1246 b 754 1128 847 1174 817 1128 l 708 1128 b 614 1235 646 1128 615 1174 b 594 1250 614 1246 608 1250 l 556 1250 b 538 1235 542 1250 538 1246 b 703 1061 538 1118 593 1061 z m 1404 22 l 796 950 b 769 972 788 964 782 972 l 696 972 b 668 950 682 972 676 964 l 60 22 b 74 0 50 7 60 0 l 138 0 b 165 22 151 0 156 7 l 275 189 l 1189 189 l 1299 22 b 1328 0 1308 7 1314 0 l 1392 0 b 1404 22 1406 0 1415 7 z m 328 271 l 725 876 l 739 876 l 1136 271 z "},"Ǎ":{"ha":1464,"x_min":0,"x_max":0,"o":"m 668 1061 b 703 1043 681 1047 688 1043 l 757 1043 b 796 1061 772 1043 783 1046 l 942 1228 b 933 1250 951 1239 947 1250 l 882 1250 b 846 1229 868 1250 861 1247 l 739 1108 l 725 1108 l 618 1229 b 581 1250 603 1247 596 1250 l 531 1250 b 522 1228 517 1250 513 1239 z m 1404 22 l 796 950 b 769 972 788 964 782 972 l 696 972 b 668 950 682 972 676 964 l 60 22 b 74 0 50 7 60 0 l 138 0 b 165 22 151 0 156 7 l 275 189 l 1189 189 l 1299 22 b 1328 0 1308 7 1314 0 l 1392 0 b 1404 22 1406 0 1415 7 z m 328 271 l 725 876 l 739 876 l 1136 271 z "},"Â":{"ha":1464,"x_min":0,"x_max":0,"o":"m 531 1043 l 581 1043 b 618 1064 596 1043 603 1046 l 725 1185 l 739 1185 l 846 1064 b 882 1043 861 1046 868 1043 l 933 1043 b 942 1065 947 1043 951 1054 l 796 1232 b 757 1250 783 1247 772 1250 l 703 1250 b 668 1232 688 1250 681 1246 l 522 1065 b 531 1043 513 1054 517 1043 z m 1404 22 l 796 950 b 769 972 788 964 782 972 l 696 972 b 668 950 682 972 676 964 l 60 22 b 74 0 50 7 60 0 l 138 0 b 165 22 151 0 156 7 l 275 189 l 1189 189 l 1299 22 b 1328 0 1308 7 1314 0 l 1392 0 b 1404 22 1406 0 1415 7 z m 328 271 l 725 876 l 739 876 l 1136 271 z "},"Ä":{"ha":1464,"x_min":0,"x_max":0,"o":"m 521 1151 l 582 1151 b 601 1171 596 1151 601 1157 l 601 1232 b 582 1250 601 1246 596 1250 l 521 1250 b 503 1232 507 1250 503 1246 l 503 1171 b 521 1151 503 1157 507 1151 z m 850 1151 l 911 1151 b 929 1171 925 1151 929 1157 l 929 1232 b 911 1250 929 1246 925 1250 l 850 1250 b 831 1232 836 1250 831 1246 l 831 1171 b 850 1151 831 1157 836 1151 z m 1404 22 l 796 950 b 769 972 788 964 782 972 l 696 972 b 668 950 682 972 676 964 l 60 22 b 74 0 50 7 60 0 l 138 0 b 165 22 151 0 156 7 l 275 189 l 1189 189 l 1299 22 b 1328 0 1308 7 1314 0 l 1392 0 b 1404 22 1406 0 1415 7 z m 328 271 l 725 876 l 739 876 l 1136 271 z "},"À":{"ha":1464,"x_min":0,"x_max":0,"o":"m 679 1063 b 711 1040 692 1047 697 1040 l 757 1040 b 768 1065 771 1040 778 1050 l 674 1225 b 644 1250 665 1242 658 1250 l 568 1250 b 554 1225 553 1250 542 1240 z m 1404 22 l 796 950 b 769 972 788 964 782 972 l 696 972 b 668 950 682 972 676 964 l 60 22 b 74 0 50 7 60 0 l 138 0 b 165 22 151 0 156 7 l 275 189 l 1189 189 l 1299 22 b 1328 0 1308 7 1314 0 l 1392 0 b 1404 22 1406 0 1415 7 z m 328 271 l 725 876 l 739 876 l 1136 271 z "},"Ā":{"ha":1464,"x_min":0,"x_max":0,"o":"m 507 1165 l 957 1165 b 978 1186 969 1165 978 1172 l 978 1229 b 957 1250 978 1243 969 1250 l 507 1250 b 486 1229 493 1250 486 1243 l 486 1186 b 507 1165 486 1172 493 1165 z m 1404 22 l 796 950 b 769 972 788 964 782 972 l 696 972 b 668 950 682 972 676 964 l 60 22 b 74 0 50 7 60 0 l 138 0 b 165 22 151 0 156 7 l 275 189 l 1189 189 l 1299 22 b 1328 0 1308 7 1314 0 l 1392 0 b 1404 22 1406 0 1415 7 z m 328 271 l 725 876 l 739 876 l 1136 271 z "},"Ą":{"ha":1507,"x_min":0,"x_max":0,"o":"m 1232 -135 l 1388 -115 b 1442 -36 1436 -111 1468 -81 l 1403 26 l 1401 26 l 796 950 b 769 972 788 964 782 972 l 696 972 b 668 950 682 972 676 964 l 60 22 b 74 0 50 7 60 0 l 138 0 b 165 22 151 0 156 7 l 275 189 l 1189 189 l 1296 26 l 1328 -26 b 1288 -67 1342 -49 1326 -62 l 1229 -74 b 1117 -174 1146 -83 1117 -92 b 1242 -281 1117 -256 1143 -281 l 1392 -281 b 1406 -267 1401 -281 1406 -275 l 1406 -231 b 1392 -217 1406 -221 1400 -217 l 1256 -217 b 1199 -172 1210 -217 1199 -206 b 1232 -135 1199 -140 1208 -137 z m 328 271 l 725 876 l 739 876 l 1136 271 z "},"Å":{"ha":1464,"x_min":0,"x_max":0,"o":"m 722 1025 l 740 1025 b 857 1140 808 1025 857 1075 l 857 1156 b 740 1272 857 1221 808 1272 l 722 1272 b 606 1156 654 1272 606 1221 l 606 1140 b 722 1025 606 1075 654 1025 z m 668 1154 b 725 1211 668 1190 689 1211 l 738 1211 b 794 1154 775 1211 794 1190 l 794 1143 b 738 1086 794 1108 775 1086 l 725 1086 b 668 1143 689 1086 668 1108 z m 1404 22 l 796 950 b 769 972 788 964 782 972 l 696 972 b 668 950 682 972 676 964 l 60 22 b 74 0 50 7 60 0 l 138 0 b 165 22 151 0 156 7 l 275 189 l 1189 189 l 1299 22 b 1328 0 1308 7 1314 0 l 1392 0 b 1404 22 1406 0 1415 7 z m 328 271 l 725 876 l 739 876 l 1136 271 z "},"Ã":{"ha":1464,"x_min":0,"x_max":0,"o":"m 524 1157 b 546 1151 528 1147 535 1144 b 626 1178 578 1171 599 1178 b 833 1113 707 1178 742 1113 b 949 1149 872 1113 910 1125 b 958 1172 960 1157 963 1164 l 940 1213 b 919 1218 936 1222 931 1225 b 838 1192 888 1197 865 1192 b 632 1257 757 1192 722 1257 b 515 1219 592 1257 554 1244 b 506 1197 504 1213 501 1206 z m 1404 22 l 796 950 b 769 972 788 964 782 972 l 696 972 b 668 950 682 972 676 964 l 60 22 b 74 0 50 7 60 0 l 138 0 b 165 22 151 0 156 7 l 275 189 l 1189 189 l 1299 22 b 1328 0 1308 7 1314 0 l 1392 0 b 1404 22 1406 0 1415 7 z m 328 271 l 725 876 l 739 876 l 1136 271 z "},"Æ":{"ha":2190,"x_min":0,"x_max":0,"o":"m 2093 85 l 1086 85 l 1086 443 l 2072 443 b 2093 464 2086 443 2093 450 l 2093 508 b 2072 529 2093 522 2086 529 l 1086 529 l 1086 888 l 2086 888 b 2107 908 2100 888 2107 894 l 2107 951 b 2086 972 2107 965 2100 972 l 1008 972 b 974 951 994 972 986 965 l 61 21 b 71 0 49 7 57 0 l 143 0 b 179 21 157 0 167 7 l 343 189 l 994 189 l 994 19 b 1014 0 994 6 1000 0 l 2093 0 b 2114 21 2107 0 2114 7 l 2114 64 b 2093 85 2114 78 2107 85 z m 424 271 l 994 856 l 994 271 z "},"B":{"ha":1331,"x_min":0,"x_max":0,"o":"m 1131 503 l 1131 515 b 1218 700 1193 550 1218 613 l 1218 729 b 979 972 1218 899 1143 972 l 111 972 b 90 951 97 972 90 965 l 90 21 b 111 0 90 7 97 0 l 976 0 b 1254 251 1154 0 1254 67 l 1254 289 b 1131 503 1254 407 1211 472 z m 1126 726 l 1126 699 b 972 539 1126 582 1078 539 l 182 539 l 182 888 l 971 888 b 1126 726 1078 888 1126 850 z m 1163 253 b 974 85 1163 115 1097 85 l 182 85 l 182 461 l 974 461 b 1163 288 1097 461 1163 429 z "},"C":{"ha":1404,"x_min":0,"x_max":0,"o":"m 1253 685 l 1313 685 b 1328 701 1324 685 1328 690 l 1328 731 b 1074 978 1328 896 1246 978 l 339 978 b 83 731 167 978 83 896 l 83 242 b 339 -6 83 76 167 -6 l 1074 -6 b 1328 219 1246 -6 1328 74 l 1328 239 b 1313 256 1328 250 1324 256 l 1251 256 b 1235 239 1240 256 1235 250 l 1235 231 b 1057 79 1235 129 1183 79 l 351 79 b 175 254 228 79 175 131 l 175 719 b 351 893 175 842 228 893 l 1057 893 b 1235 719 1182 893 1235 840 l 1235 701 b 1253 685 1235 690 1240 685 z "},"Ć":{"ha":1333,"x_min":0,"x_max":0,"o":"m 728 1225 l 632 1065 b 642 1040 622 1050 628 1040 l 686 1040 b 721 1065 700 1040 708 1050 l 846 1225 b 839 1250 858 1240 854 1250 l 760 1250 b 728 1225 746 1250 738 1242 z m 1253 685 l 1313 685 b 1328 701 1324 685 1328 690 l 1328 731 b 1074 978 1328 896 1246 978 l 339 978 b 83 731 167 978 83 896 l 83 242 b 339 -6 83 76 167 -6 l 1074 -6 b 1328 219 1246 -6 1328 74 l 1328 239 b 1313 256 1328 250 1324 256 l 1251 256 b 1235 239 1240 256 1235 250 l 1235 231 b 1057 79 1235 129 1183 79 l 351 79 b 175 254 228 79 175 131 l 175 719 b 351 893 175 842 228 893 l 1057 893 b 1235 719 1182 893 1235 840 l 1235 701 b 1253 685 1235 690 1240 685 z "},"Č":{"ha":1333,"x_min":0,"x_max":0,"o":"m 617 1043 l 671 1043 b 710 1061 686 1043 697 1046 l 856 1228 b 846 1250 865 1239 860 1250 l 796 1250 b 760 1229 782 1250 775 1247 l 653 1108 l 639 1108 l 532 1229 b 494 1250 517 1247 510 1250 l 444 1250 b 436 1228 431 1250 426 1239 l 582 1061 b 617 1043 593 1047 601 1043 z m 1253 685 l 1313 685 b 1328 701 1324 685 1328 690 l 1328 731 b 1074 978 1328 896 1246 978 l 339 978 b 83 731 167 978 83 896 l 83 242 b 339 -6 83 76 167 -6 l 1074 -6 b 1328 219 1246 -6 1328 74 l 1328 239 b 1313 256 1328 250 1324 256 l 1251 256 b 1235 239 1240 256 1235 250 l 1235 231 b 1057 79 1235 129 1183 79 l 351 79 b 175 254 228 79 175 131 l 175 719 b 351 893 175 842 228 893 l 1057 893 b 1235 719 1182 893 1235 840 l 1235 701 b 1253 685 1235 690 1240 685 z "},"Ç":{"ha":1333,"x_min":0,"x_max":0,"o":"m 1253 685 l 1313 685 b 1328 701 1324 685 1328 690 l 1328 731 b 1074 978 1328 896 1246 978 l 339 978 b 83 731 167 978 83 896 l 83 242 b 339 -6 83 76 167 -6 l 656 -6 b 606 -82 619 -40 606 -61 b 660 -129 606 -112 631 -126 b 800 -174 763 -140 800 -142 b 735 -217 800 -210 783 -217 l 706 -217 b 639 -167 656 -217 640 -201 b 625 -156 639 -160 632 -156 l 578 -156 b 565 -169 568 -156 565 -161 b 685 -279 565 -239 594 -279 l 753 -279 b 875 -175 842 -279 875 -246 b 733 -75 875 -87 815 -85 b 740 -6 694 -71 676 -65 l 1074 -6 b 1328 219 1246 -6 1328 74 l 1328 239 b 1313 256 1328 250 1324 256 l 1251 256 b 1235 239 1240 256 1235 250 l 1235 231 b 1057 79 1235 129 1183 79 l 351 79 b 175 254 228 79 175 131 l 175 719 b 351 893 175 842 228 893 l 1057 893 b 1235 719 1182 893 1235 840 l 1235 701 b 1253 685 1235 690 1240 685 z "},"Ċ":{"ha":1333,"x_min":0,"x_max":0,"o":"m 644 1151 l 706 1151 b 724 1171 719 1151 724 1157 l 724 1232 b 706 1250 724 1246 719 1250 l 644 1250 b 625 1232 631 1250 625 1246 l 625 1171 b 644 1151 625 1157 631 1151 z m 1253 685 l 1313 685 b 1328 701 1324 685 1328 690 l 1328 731 b 1074 978 1328 896 1246 978 l 339 978 b 83 731 167 978 83 896 l 83 242 b 339 -6 83 76 167 -6 l 1074 -6 b 1328 219 1246 -6 1328 74 l 1328 239 b 1313 256 1328 250 1324 256 l 1251 256 b 1235 239 1240 256 1235 250 l 1235 231 b 1057 79 1235 129 1183 79 l 351 79 b 175 254 228 79 175 131 l 175 719 b 351 893 175 842 228 893 l 1057 893 b 1235 719 1182 893 1235 840 l 1235 701 b 1253 685 1235 690 1240 685 z "},"D":{"ha":1414,"x_min":0,"x_max":0,"o":"m 1075 972 l 110 972 b 90 953 96 972 90 967 l 90 19 b 110 0 90 6 96 0 l 1075 0 b 1331 247 1247 0 1331 82 l 1331 725 b 1075 972 1331 890 1247 972 z m 1238 260 b 1063 85 1238 136 1188 85 l 182 85 l 182 888 l 1063 888 b 1238 714 1188 888 1238 836 z "},"Ð":{"ha":1447,"x_min":0,"x_max":0,"o":"m 1110 972 l 144 972 b 125 953 131 972 125 967 l 125 529 l 24 529 b 7 511 13 529 7 525 l 7 465 b 24 449 7 453 13 449 l 125 449 l 125 19 b 144 0 125 6 131 0 l 1110 0 b 1364 247 1282 0 1364 82 l 1364 725 b 1110 972 1364 890 1282 972 z m 1272 260 b 1097 85 1272 136 1222 85 l 217 85 l 217 449 l 357 449 b 374 465 368 449 374 453 l 374 511 b 357 529 374 525 368 529 l 217 529 l 217 888 l 1097 888 b 1272 714 1222 888 1272 836 z "},"Ď":{"ha":1414,"x_min":0,"x_max":0,"o":"m 643 1061 b 678 1043 656 1047 663 1043 l 732 1043 b 771 1061 747 1043 758 1046 l 917 1228 b 908 1250 926 1239 922 1250 l 857 1250 b 821 1229 843 1250 836 1247 l 714 1108 l 700 1108 l 593 1229 b 556 1250 578 1247 571 1250 l 506 1250 b 497 1228 492 1250 488 1239 z m 1075 972 l 110 972 b 90 953 96 972 90 967 l 90 19 b 110 0 90 6 96 0 l 1075 0 b 1331 247 1247 0 1331 82 l 1331 725 b 1075 972 1331 890 1247 972 z m 1238 260 b 1063 85 1238 136 1188 85 l 182 85 l 182 888 l 1063 888 b 1238 714 1188 888 1238 836 z "},"Đ":{"ha":1447,"x_min":0,"x_max":0,"o":"m 1110 972 l 144 972 b 125 953 131 972 125 967 l 125 529 l 24 529 b 7 511 13 529 7 525 l 7 465 b 24 449 7 453 13 449 l 125 449 l 125 19 b 144 0 125 6 131 0 l 1110 0 b 1364 247 1282 0 1364 82 l 1364 725 b 1110 972 1364 890 1282 972 z m 1272 260 b 1097 85 1272 136 1222 85 l 217 85 l 217 449 l 357 449 b 374 465 368 449 374 453 l 374 511 b 357 529 374 525 368 529 l 217 529 l 217 888 l 1097 888 b 1272 714 1222 888 1272 836 z "},"E":{"ha":1286,"x_min":0,"x_max":0,"o":"m 1189 85 l 182 85 l 182 443 l 1168 443 b 1189 464 1182 443 1189 450 l 1189 508 b 1168 529 1189 522 1182 529 l 182 529 l 182 888 l 1182 888 b 1203 908 1196 888 1203 894 l 1203 951 b 1182 972 1203 965 1196 972 l 110 972 b 90 953 96 972 90 967 l 90 19 b 110 0 90 6 96 0 l 1189 0 b 1210 21 1203 0 1210 7 l 1210 64 b 1189 85 1210 78 1203 85 z "},"É":{"ha":1286,"x_min":0,"x_max":0,"o":"m 631 1040 l 676 1040 b 710 1065 690 1040 697 1050 l 836 1225 b 829 1250 849 1240 844 1250 l 749 1250 b 717 1225 735 1250 726 1242 l 621 1065 b 631 1040 611 1050 617 1040 z m 1189 85 l 182 85 l 182 443 l 1168 443 b 1189 464 1182 443 1189 450 l 1189 508 b 1168 529 1189 522 1182 529 l 182 529 l 182 888 l 1182 888 b 1203 908 1196 888 1203 894 l 1203 951 b 1182 972 1203 965 1196 972 l 110 972 b 90 953 96 972 90 967 l 90 19 b 110 0 90 6 96 0 l 1189 0 b 1210 21 1203 0 1210 7 l 1210 64 b 1189 85 1210 78 1203 85 z "},"Ě":{"ha":1286,"x_min":0,"x_max":0,"o":"m 594 1061 b 629 1043 607 1047 614 1043 l 683 1043 b 722 1061 699 1043 710 1046 l 868 1228 b 860 1250 878 1239 874 1250 l 808 1250 b 772 1229 794 1250 788 1247 l 665 1108 l 651 1108 l 544 1229 b 507 1250 529 1247 522 1250 l 457 1250 b 449 1228 443 1250 439 1239 z m 1189 85 l 182 85 l 182 443 l 1168 443 b 1189 464 1182 443 1189 450 l 1189 508 b 1168 529 1189 522 1182 529 l 182 529 l 182 888 l 1182 888 b 1203 908 1196 888 1203 894 l 1203 951 b 1182 972 1203 965 1196 972 l 110 972 b 90 953 96 972 90 967 l 90 19 b 110 0 90 6 96 0 l 1189 0 b 1210 21 1203 0 1210 7 l 1210 64 b 1189 85 1210 78 1203 85 z "},"Ȩ":{"ha":1286,"x_min":0,"x_max":0,"o":"m 1189 85 l 182 85 l 182 443 l 1168 443 b 1189 464 1182 443 1189 450 l 1189 508 b 1168 529 1189 522 1182 529 l 182 529 l 182 888 l 1182 888 b 1203 908 1196 888 1203 894 l 1203 951 b 1182 972 1203 965 1196 972 l 110 972 b 90 953 96 972 90 967 l 90 19 b 110 0 90 6 96 0 l 621 0 b 565 -82 579 -39 565 -60 b 619 -129 565 -112 590 -126 b 760 -174 722 -140 760 -142 b 694 -217 760 -210 742 -217 l 665 -217 b 599 -167 615 -217 599 -201 b 585 -156 599 -160 592 -156 l 538 -156 b 525 -169 528 -156 525 -161 b 644 -279 525 -239 554 -279 l 711 -279 b 835 -175 801 -279 835 -246 b 693 -75 835 -87 775 -85 b 706 0 653 -71 633 -65 l 1189 0 b 1210 21 1203 0 1210 7 l 1210 64 b 1189 85 1210 78 1203 85 z "},"Ê":{"ha":1286,"x_min":0,"x_max":0,"o":"m 457 1043 l 507 1043 b 544 1064 522 1043 529 1046 l 651 1185 l 665 1185 l 772 1064 b 808 1043 788 1046 794 1043 l 860 1043 b 868 1065 874 1043 878 1054 l 722 1232 b 683 1250 710 1247 699 1250 l 629 1250 b 594 1232 614 1250 607 1246 l 449 1065 b 457 1043 439 1054 443 1043 z m 1189 85 l 182 85 l 182 443 l 1168 443 b 1189 464 1182 443 1189 450 l 1189 508 b 1168 529 1189 522 1182 529 l 182 529 l 182 888 l 1182 888 b 1203 908 1196 888 1203 894 l 1203 951 b 1182 972 1203 965 1196 972 l 110 972 b 90 953 96 972 90 967 l 90 19 b 110 0 90 6 96 0 l 1189 0 b 1210 21 1203 0 1210 7 l 1210 64 b 1189 85 1210 78 1203 85 z "},"Ë":{"ha":1286,"x_min":0,"x_max":0,"o":"m 446 1151 l 507 1151 b 526 1171 521 1151 526 1157 l 526 1232 b 507 1250 526 1246 521 1250 l 446 1250 b 428 1232 432 1250 428 1246 l 428 1171 b 446 1151 428 1157 432 1151 z m 775 1151 l 836 1151 b 854 1171 850 1151 854 1157 l 854 1232 b 836 1250 854 1246 850 1250 l 775 1250 b 756 1232 761 1250 756 1246 l 756 1171 b 775 1151 756 1157 761 1151 z m 1189 85 l 182 85 l 182 443 l 1168 443 b 1189 464 1182 443 1189 450 l 1189 508 b 1168 529 1189 522 1182 529 l 182 529 l 182 888 l 1182 888 b 1203 908 1196 888 1203 894 l 1203 951 b 1182 972 1203 965 1196 972 l 110 972 b 90 953 96 972 90 967 l 90 19 b 110 0 90 6 96 0 l 1189 0 b 1210 21 1203 0 1210 7 l 1210 64 b 1189 85 1210 78 1203 85 z "},"Ė":{"ha":1286,"x_min":0,"x_max":0,"o":"m 626 1151 l 688 1151 b 707 1171 701 1151 707 1157 l 707 1232 b 688 1250 707 1246 701 1250 l 626 1250 b 608 1232 613 1250 608 1246 l 608 1171 b 626 1151 608 1157 613 1151 z m 1189 85 l 182 85 l 182 443 l 1168 443 b 1189 464 1182 443 1189 450 l 1189 508 b 1168 529 1189 522 1182 529 l 182 529 l 182 888 l 1182 888 b 1203 908 1196 888 1203 894 l 1203 951 b 1182 972 1203 965 1196 972 l 110 972 b 90 953 96 972 90 967 l 90 19 b 110 0 90 6 96 0 l 1189 0 b 1210 21 1203 0 1210 7 l 1210 64 b 1189 85 1210 78 1203 85 z "},"È":{"ha":1286,"x_min":0,"x_max":0,"o":"m 604 1063 b 636 1040 617 1047 622 1040 l 682 1040 b 693 1065 696 1040 703 1050 l 599 1225 b 569 1250 590 1242 583 1250 l 493 1250 b 479 1225 478 1250 467 1240 z m 1189 85 l 182 85 l 182 443 l 1168 443 b 1189 464 1182 443 1189 450 l 1189 508 b 1168 529 1189 522 1182 529 l 182 529 l 182 888 l 1182 888 b 1203 908 1196 888 1203 894 l 1203 951 b 1182 972 1203 965 1196 972 l 110 972 b 90 953 96 972 90 967 l 90 19 b 110 0 90 6 96 0 l 1189 0 b 1210 21 1203 0 1210 7 l 1210 64 b 1189 85 1210 78 1203 85 z "},"Ē":{"ha":1286,"x_min":0,"x_max":0,"o":"m 433 1165 l 883 1165 b 904 1186 896 1165 904 1172 l 904 1229 b 883 1250 904 1243 896 1250 l 433 1250 b 413 1229 419 1250 413 1243 l 413 1186 b 433 1165 413 1172 419 1165 z m 1189 85 l 182 85 l 182 443 l 1168 443 b 1189 464 1182 443 1189 450 l 1189 508 b 1168 529 1189 522 1182 529 l 182 529 l 182 888 l 1182 888 b 1203 908 1196 888 1203 894 l 1203 951 b 1182 972 1203 965 1196 972 l 110 972 b 90 953 96 972 90 967 l 90 19 b 110 0 90 6 96 0 l 1189 0 b 1210 21 1203 0 1210 7 l 1210 64 b 1189 85 1210 78 1203 85 z "},"Ę":{"ha":1286,"x_min":0,"x_max":0,"o":"m 1189 85 l 182 85 l 182 443 l 1168 443 b 1189 464 1182 443 1189 450 l 1189 508 b 1168 529 1189 522 1182 529 l 182 529 l 182 888 l 1182 888 b 1203 908 1196 888 1203 894 l 1203 951 b 1182 972 1203 965 1196 972 l 110 972 b 90 953 96 972 90 967 l 90 19 b 110 0 90 6 96 0 l 1121 0 l 1121 -7 b 1076 -47 1121 -33 1114 -43 l 1017 -54 b 904 -154 933 -64 904 -72 b 1031 -261 904 -236 932 -261 l 1181 -261 b 1194 -247 1190 -261 1194 -256 l 1194 -211 b 1181 -197 1194 -201 1189 -197 l 1044 -197 b 986 -153 997 -197 986 -186 b 1019 -115 986 -121 996 -118 l 1142 -100 b 1210 -18 1193 -94 1210 -78 l 1210 64 b 1189 85 1210 78 1203 85 z "},"F":{"ha":1279,"x_min":0,"x_max":0,"o":"m 1182 972 l 110 972 b 90 953 96 972 90 967 l 90 19 b 110 0 90 6 96 0 l 163 0 b 182 19 176 0 182 6 l 182 446 l 1168 446 b 1189 467 1182 446 1189 453 l 1189 510 b 1168 531 1189 524 1182 531 l 182 531 l 182 888 l 1182 888 b 1203 908 1196 888 1203 894 l 1203 951 b 1182 972 1203 965 1196 972 z "},"G":{"ha":1404,"x_min":0,"x_max":0,"o":"m 339 -6 l 1072 -6 b 1328 242 1244 -6 1328 76 l 1328 450 b 1306 471 1328 461 1318 471 l 796 471 b 775 451 782 471 775 464 l 775 408 b 796 388 775 394 782 388 l 1235 388 l 1235 254 b 1060 79 1235 131 1185 79 l 351 79 b 175 254 228 79 175 131 l 175 719 b 351 893 175 842 228 893 l 1054 893 b 1232 719 1179 893 1232 840 l 1232 701 b 1250 685 1232 690 1238 685 l 1310 685 b 1325 701 1321 685 1325 690 l 1325 731 b 1071 978 1325 896 1243 978 l 339 978 b 83 731 167 978 83 896 l 83 242 b 339 -6 83 76 167 -6 z "},"Ğ":{"ha":1404,"x_min":0,"x_max":0,"o":"m 672 1061 l 729 1061 b 894 1235 840 1061 894 1118 b 876 1250 894 1246 890 1250 l 836 1250 b 818 1235 822 1250 818 1246 b 724 1128 817 1174 786 1128 l 678 1128 b 583 1235 615 1128 585 1174 b 564 1250 583 1246 578 1250 l 525 1250 b 507 1235 511 1250 507 1246 b 672 1061 507 1118 563 1061 z m 339 -6 l 1072 -6 b 1328 242 1244 -6 1328 76 l 1328 450 b 1306 471 1328 461 1318 471 l 796 471 b 775 451 782 471 775 464 l 775 408 b 796 388 775 394 782 388 l 1235 388 l 1235 254 b 1060 79 1235 131 1185 79 l 351 79 b 175 254 228 79 175 131 l 175 719 b 351 893 175 842 228 893 l 1054 893 b 1232 719 1179 893 1232 840 l 1232 701 b 1250 685 1232 690 1238 685 l 1310 685 b 1325 701 1321 685 1325 690 l 1325 731 b 1071 978 1325 896 1243 978 l 339 978 b 83 731 167 978 83 896 l 83 242 b 339 -6 83 76 167 -6 z "},"Ǧ":{"ha":1404,"x_min":0,"x_max":0,"o":"m 672 1043 l 726 1043 b 765 1061 742 1043 753 1046 l 911 1228 b 903 1250 921 1239 917 1250 l 851 1250 b 815 1229 838 1250 831 1247 l 708 1108 l 694 1108 l 588 1229 b 550 1250 572 1247 565 1250 l 500 1250 b 492 1228 486 1250 482 1239 l 638 1061 b 672 1043 650 1047 657 1043 z m 339 -6 l 1072 -6 b 1328 242 1244 -6 1328 76 l 1328 450 b 1306 471 1328 461 1318 471 l 796 471 b 775 451 782 471 775 464 l 775 408 b 796 388 775 394 782 388 l 1235 388 l 1235 254 b 1060 79 1235 131 1185 79 l 351 79 b 175 254 228 79 175 131 l 175 719 b 351 893 175 842 228 893 l 1054 893 b 1232 719 1179 893 1232 840 l 1232 701 b 1250 685 1232 690 1238 685 l 1310 685 b 1325 701 1321 685 1325 690 l 1325 731 b 1071 978 1325 896 1243 978 l 339 978 b 83 731 167 978 83 896 l 83 242 b 339 -6 83 76 167 -6 z "},"Ģ":{"ha":1404,"x_min":0,"x_max":0,"o":"m 339 -6 l 1072 -6 b 1328 242 1244 -6 1328 76 l 1328 450 b 1306 471 1328 461 1318 471 l 796 471 b 775 451 782 471 775 464 l 775 408 b 796 388 775 394 782 388 l 1235 388 l 1235 254 b 1060 79 1235 131 1185 79 l 351 79 b 175 254 228 79 175 131 l 175 719 b 351 893 175 842 228 893 l 1054 893 b 1232 719 1179 893 1232 840 l 1232 701 b 1250 685 1232 690 1238 685 l 1310 685 b 1325 701 1321 685 1325 690 l 1325 731 b 1071 978 1325 896 1243 978 l 339 978 b 83 731 167 978 83 896 l 83 242 b 339 -6 83 76 167 -6 z m 722 -83 l 679 -83 b 661 -101 665 -83 661 -87 l 661 -301 l 618 -301 b 600 -319 604 -301 600 -306 l 600 -360 b 618 -378 600 -374 604 -378 l 706 -378 b 742 -343 731 -378 742 -367 l 742 -101 b 722 -83 742 -87 736 -83 z "},"Ġ":{"ha":1404,"x_min":0,"x_max":0,"o":"m 671 1151 l 732 1151 b 751 1171 746 1151 751 1157 l 751 1232 b 732 1250 751 1246 746 1250 l 671 1250 b 653 1232 657 1250 653 1246 l 653 1171 b 671 1151 653 1157 657 1151 z m 339 -6 l 1072 -6 b 1328 242 1244 -6 1328 76 l 1328 450 b 1306 471 1328 461 1318 471 l 796 471 b 775 451 782 471 775 464 l 775 408 b 796 388 775 394 782 388 l 1235 388 l 1235 254 b 1060 79 1235 131 1185 79 l 351 79 b 175 254 228 79 175 131 l 175 719 b 351 893 175 842 228 893 l 1054 893 b 1232 719 1179 893 1232 840 l 1232 701 b 1250 685 1232 690 1238 685 l 1310 685 b 1325 701 1321 685 1325 690 l 1325 731 b 1071 978 1325 896 1243 978 l 339 978 b 83 731 167 978 83 896 l 83 242 b 339 -6 83 76 167 -6 z "},"H":{"ha":1338,"x_min":0,"x_max":0,"o":"m 1228 972 l 1175 972 b 1156 953 1161 972 1156 967 l 1156 529 l 182 529 l 182 953 b 163 972 182 967 176 972 l 110 972 b 90 953 96 972 90 967 l 90 19 b 110 0 90 6 96 0 l 163 0 b 182 19 176 0 182 6 l 182 443 l 1156 443 l 1156 19 b 1175 0 1156 6 1161 0 l 1228 0 b 1247 19 1242 0 1247 6 l 1247 953 b 1228 972 1247 967 1242 972 z "},"Ħ":{"ha":1338,"x_min":0,"x_max":0,"o":"m 1228 972 l 1175 972 b 1156 953 1161 972 1156 967 l 1156 751 l 182 751 l 182 953 b 163 972 182 967 176 972 l 110 972 b 90 953 96 972 90 967 l 90 19 b 110 0 90 6 96 0 l 163 0 b 182 19 176 0 182 6 l 182 443 l 1156 443 l 1156 19 b 1175 0 1156 6 1161 0 l 1228 0 b 1247 19 1242 0 1247 6 l 1247 953 b 1228 972 1247 967 1242 972 z m 182 529 l 182 667 l 1156 667 l 1156 529 z "},"I":{"ha":272,"x_min":0,"x_max":0,"o":"m 90 953 l 90 19 b 110 0 90 6 96 0 l 163 0 b 182 19 176 0 182 6 l 182 953 b 163 972 182 967 176 972 l 110 972 b 90 953 96 972 90 967 z "},"Ĳ":{"ha":1614,"x_min":0,"x_max":0,"o":"m 90 953 l 90 19 b 110 0 90 6 96 0 l 163 0 b 182 19 176 0 182 6 l 182 953 b 163 972 182 967 176 972 l 110 972 b 90 953 96 972 90 967 z m 368 0 l 1268 0 b 1524 247 1440 0 1524 82 l 1524 953 b 1504 972 1524 967 1518 972 l 1451 972 b 1432 953 1438 972 1432 967 l 1432 260 b 1257 85 1432 136 1381 85 l 368 85 b 349 65 354 85 349 79 l 349 19 b 368 0 349 6 354 0 z "},"Í":{"ha":272,"x_min":0,"x_max":0,"o":"m 194 1225 l 99 1065 b 108 1040 89 1050 94 1040 l 154 1040 b 188 1065 168 1040 175 1050 l 314 1225 b 307 1250 326 1240 322 1250 l 226 1250 b 194 1225 213 1250 204 1242 z m 90 953 l 90 19 b 110 0 90 6 96 0 l 163 0 b 182 19 176 0 182 6 l 182 953 b 163 972 182 967 176 972 l 110 972 b 90 953 96 972 90 967 z "},"Ǐ":{"ha":272,"x_min":0,"x_max":0,"o":"m 107 1043 l 161 1043 b 200 1061 176 1043 188 1046 l 346 1228 b 338 1250 356 1239 351 1250 l 286 1250 b 250 1229 272 1250 265 1247 l 143 1108 l 129 1108 l 22 1229 b -15 1250 7 1247 0 1250 l -65 1250 b -74 1228 -79 1250 -83 1239 l 72 1061 b 107 1043 85 1047 92 1043 z m 90 953 l 90 19 b 110 0 90 6 96 0 l 163 0 b 182 19 176 0 182 6 l 182 953 b 163 972 182 967 176 972 l 110 972 b 90 953 96 972 90 967 z "},"Î":{"ha":272,"x_min":0,"x_max":0,"o":"m 107 1250 b 72 1232 92 1250 85 1246 l -74 1065 b -65 1043 -83 1054 -79 1043 l -15 1043 b 22 1064 0 1043 7 1046 l 129 1185 l 143 1185 l 250 1064 b 286 1043 265 1046 272 1043 l 338 1043 b 346 1065 351 1043 356 1054 l 200 1232 b 161 1250 188 1247 176 1250 z m 90 953 l 90 19 b 110 0 90 6 96 0 l 163 0 b 182 19 176 0 182 6 l 182 953 b 163 972 182 967 176 972 l 110 972 b 90 953 96 972 90 967 z "},"Ï":{"ha":272,"x_min":0,"x_max":0,"o":"m -75 1151 l -14 1151 b 6 1171 0 1151 6 1157 l 6 1232 b -14 1250 6 1246 0 1250 l -75 1250 b -93 1232 -89 1250 -93 1246 l -93 1171 b -75 1151 -93 1157 -89 1151 z m 254 1151 l 315 1151 b 333 1171 329 1151 333 1157 l 333 1232 b 315 1250 333 1246 329 1250 l 254 1250 b 235 1232 240 1250 235 1246 l 235 1171 b 254 1151 235 1157 240 1151 z m 90 953 l 90 19 b 110 0 90 6 96 0 l 163 0 b 182 19 176 0 182 6 l 182 953 b 163 972 182 967 176 972 l 110 972 b 90 953 96 972 90 967 z "},"İ":{"ha":272,"x_min":0,"x_max":0,"o":"m 104 1151 l 165 1151 b 185 1171 179 1151 185 1157 l 185 1232 b 165 1250 185 1246 179 1250 l 104 1250 b 86 1232 90 1250 86 1246 l 86 1171 b 104 1151 86 1157 90 1151 z m 90 953 l 90 19 b 110 0 90 6 96 0 l 163 0 b 182 19 176 0 182 6 l 182 953 b 163 972 182 967 176 972 l 110 972 b 90 953 96 972 90 967 z "},"Ì":{"ha":272,"x_min":0,"x_max":0,"o":"m 76 1225 b 47 1250 68 1242 61 1250 l -29 1250 b -43 1225 -44 1250 -56 1240 l 82 1063 b 114 1040 94 1047 100 1040 l 160 1040 b 171 1065 174 1040 181 1050 z m 90 953 l 90 19 b 110 0 90 6 96 0 l 163 0 b 182 19 176 0 182 6 l 182 953 b 163 972 182 967 176 972 l 110 972 b 90 953 96 972 90 967 z "},"Ī":{"ha":272,"x_min":0,"x_max":0,"o":"m -89 1165 l 361 1165 b 382 1186 374 1165 382 1172 l 382 1229 b 361 1250 382 1243 374 1250 l -89 1250 b -110 1229 -103 1250 -110 1243 l -110 1186 b -89 1165 -110 1172 -103 1165 z m 90 953 l 90 19 b 110 0 90 6 96 0 l 163 0 b 182 19 176 0 182 6 l 182 953 b 163 972 182 967 176 972 l 110 972 b 90 953 96 972 90 967 z "},"Į":{"ha":274,"x_min":0,"x_max":0,"o":"m 164 972 l 111 972 b 92 953 97 972 92 967 l 92 -26 b 49 -67 92 -53 88 -62 l -10 -74 b -124 -174 -94 -83 -124 -92 b 3 -281 -124 -256 -96 -281 l 153 -281 b 167 -267 163 -281 167 -275 l 167 -231 b 153 -217 167 -221 161 -217 l 17 -217 b -40 -172 -31 -217 -40 -206 b -8 -135 -40 -140 -32 -137 l 115 -119 b 183 -37 167 -114 183 -97 l 183 953 b 164 972 183 967 178 972 z "},"J":{"ha":1342,"x_min":0,"x_max":0,"o":"m 96 0 l 996 0 b 1251 247 1168 0 1251 82 l 1251 953 b 1232 972 1251 967 1246 972 l 1179 972 b 1160 953 1165 972 1160 967 l 1160 260 b 985 85 1160 136 1108 85 l 96 85 b 76 65 82 85 76 79 l 76 19 b 96 0 76 6 82 0 z "},"K":{"ha":1326,"x_min":0,"x_max":0,"o":"m 1269 28 l 575 546 l 1240 944 b 1233 972 1256 956 1249 972 l 1151 972 b 1111 957 1135 972 1122 965 l 182 404 l 182 953 b 163 972 182 967 176 972 l 110 972 b 90 953 96 972 90 967 l 90 19 b 110 0 90 6 96 0 l 163 0 b 182 19 176 0 182 6 l 182 311 l 499 500 l 1139 19 b 1185 0 1156 8 1168 0 l 1260 0 b 1269 28 1279 0 1283 17 z "},"Ķ":{"ha":1326,"x_min":0,"x_max":0,"o":"m 1269 28 l 575 546 l 1240 944 b 1233 972 1256 956 1249 972 l 1151 972 b 1111 957 1135 972 1122 965 l 182 404 l 182 953 b 163 972 182 967 176 972 l 110 972 b 90 953 96 972 90 967 l 90 19 b 110 0 90 6 96 0 l 163 0 b 182 19 176 0 182 6 l 182 311 l 499 500 l 1139 19 b 1185 0 1156 8 1168 0 l 1260 0 b 1269 28 1279 0 1283 17 z m 682 -83 l 639 -83 b 621 -101 625 -83 621 -87 l 621 -301 l 578 -301 b 560 -319 564 -301 560 -306 l 560 -360 b 578 -378 560 -374 564 -378 l 665 -378 b 701 -343 690 -378 701 -367 l 701 -101 b 682 -83 701 -87 696 -83 z "},"L":{"ha":1267,"x_min":0,"x_max":0,"o":"m 1178 85 l 182 85 l 182 953 b 163 972 182 967 176 972 l 110 972 b 90 953 96 972 90 967 l 90 19 b 110 0 90 6 96 0 l 1178 0 b 1197 19 1192 0 1197 6 l 1197 65 b 1178 85 1197 79 1192 85 z "},"Ĺ":{"ha":1267,"x_min":0,"x_max":0,"o":"m 108 1040 l 154 1040 b 188 1065 168 1040 175 1050 l 314 1225 b 307 1250 326 1240 322 1250 l 226 1250 b 194 1225 213 1250 204 1242 l 99 1065 b 108 1040 89 1050 94 1040 z m 1178 85 l 182 85 l 182 953 b 163 972 182 967 176 972 l 110 972 b 90 953 96 972 90 967 l 90 19 b 110 0 90 6 96 0 l 1178 0 b 1197 19 1192 0 1197 6 l 1197 65 b 1178 85 1197 79 1192 85 z "},"Ľ":{"ha":1267,"x_min":0,"x_max":0,"o":"m 1178 85 l 182 85 l 182 953 b 163 972 182 967 176 972 l 110 972 b 90 953 96 972 90 967 l 90 19 b 110 0 90 6 96 0 l 1178 0 b 1197 19 1192 0 1197 6 l 1197 65 b 1178 85 1197 79 1192 85 z m 297 678 l 385 678 b 419 713 410 678 419 689 l 419 954 b 401 972 419 968 415 972 l 358 972 b 339 954 344 972 339 968 l 339 754 l 297 754 b 279 736 283 754 279 750 l 279 696 b 297 678 279 682 283 678 z "},"Ļ":{"ha":1267,"x_min":0,"x_max":0,"o":"m 1178 85 l 182 85 l 182 953 b 163 972 182 967 176 972 l 110 972 b 90 953 96 972 90 967 l 90 19 b 110 0 90 6 96 0 l 1178 0 b 1197 19 1192 0 1197 6 l 1197 65 b 1178 85 1197 79 1192 85 z m 653 -83 l 610 -83 b 592 -101 596 -83 592 -87 l 592 -301 l 549 -301 b 531 -319 535 -301 531 -306 l 531 -360 b 549 -378 531 -374 535 -378 l 636 -378 b 672 -343 661 -378 672 -367 l 672 -101 b 653 -83 672 -87 667 -83 z "},"Ŀ":{"ha":1267,"x_min":0,"x_max":0,"o":"m 1178 85 l 182 85 l 182 953 b 163 972 182 967 176 972 l 110 972 b 90 953 96 972 90 967 l 90 19 b 110 0 90 6 96 0 l 1178 0 b 1197 19 1192 0 1197 6 l 1197 65 b 1178 85 1197 79 1192 85 z m 485 400 l 547 400 b 565 418 561 400 565 404 l 565 479 b 547 497 565 493 561 497 l 485 497 b 467 479 471 497 467 493 l 467 418 b 485 400 467 404 471 400 z "},"Ł":{"ha":1276,"x_min":0,"x_max":0,"o":"m 1188 85 l 192 85 l 192 376 l 403 631 b 390 653 414 644 407 653 l 331 653 b 299 631 319 653 313 649 l 192 503 l 192 953 b 172 972 192 967 186 972 l 119 972 b 100 953 106 972 100 967 l 100 393 l -39 228 b -25 206 -50 214 -42 206 l 36 206 b 68 228 47 206 53 210 l 100 267 l 100 19 b 119 0 100 6 106 0 l 1188 0 b 1207 19 1201 0 1207 6 l 1207 65 b 1188 85 1207 79 1201 85 z "},"M":{"ha":1557,"x_min":0,"x_max":0,"o":"m 110 0 l 163 0 b 182 19 176 0 182 6 l 182 867 l 193 867 l 719 19 b 747 0 728 6 735 0 l 810 0 b 836 19 822 0 828 6 l 1363 867 l 1374 867 l 1374 19 b 1393 0 1374 6 1379 0 l 1446 0 b 1467 19 1460 0 1467 6 l 1467 953 b 1446 972 1467 967 1460 972 l 1343 972 b 1315 951 1329 972 1324 965 l 785 97 l 772 97 l 242 951 b 214 972 233 965 228 972 l 110 972 b 90 953 96 972 90 967 l 90 19 b 110 0 90 6 96 0 z "},"Ḿ":{"ha":1557,"x_min":0,"x_max":0,"o":"m 836 1225 l 740 1065 b 750 1040 731 1050 736 1040 l 796 1040 b 829 1065 810 1040 817 1050 l 956 1225 b 949 1250 968 1240 964 1250 l 868 1250 b 836 1225 854 1250 846 1242 z m 110 0 l 163 0 b 182 19 176 0 182 6 l 182 867 l 193 867 l 719 19 b 747 0 728 6 735 0 l 810 0 b 836 19 822 0 828 6 l 1363 867 l 1374 867 l 1374 19 b 1393 0 1374 6 1379 0 l 1446 0 b 1467 19 1460 0 1467 6 l 1467 953 b 1446 972 1467 967 1460 972 l 1343 972 b 1315 951 1329 972 1324 965 l 785 97 l 772 97 l 242 951 b 214 972 233 965 228 972 l 110 972 b 90 953 96 972 90 967 l 90 19 b 110 0 90 6 96 0 z "},"N":{"ha":1351,"x_min":0,"x_max":0,"o":"m 110 0 l 163 0 b 182 19 176 0 182 6 l 182 875 l 192 875 l 1124 14 b 1149 0 1132 6 1138 0 l 1242 0 b 1261 19 1256 0 1261 6 l 1261 953 b 1242 972 1261 967 1256 972 l 1189 972 b 1169 953 1175 972 1169 967 l 1169 97 l 1160 97 l 228 958 b 203 972 219 967 214 972 l 110 972 b 90 953 96 972 90 967 l 90 19 b 110 0 90 6 96 0 z "},"Ń":{"ha":1351,"x_min":0,"x_max":0,"o":"m 735 1225 l 639 1065 b 649 1040 629 1050 635 1040 l 694 1040 b 728 1065 708 1040 715 1050 l 854 1225 b 847 1250 867 1240 863 1250 l 767 1250 b 735 1225 753 1250 744 1242 z m 110 0 l 163 0 b 182 19 176 0 182 6 l 182 875 l 192 875 l 1124 14 b 1149 0 1132 6 1138 0 l 1242 0 b 1261 19 1256 0 1261 6 l 1261 953 b 1242 972 1261 967 1256 972 l 1189 972 b 1169 953 1175 972 1169 967 l 1169 97 l 1160 97 l 228 958 b 203 972 219 967 214 972 l 110 972 b 90 953 96 972 90 967 l 90 19 b 110 0 90 6 96 0 z "},"Ň":{"ha":1351,"x_min":0,"x_max":0,"o":"m 647 1043 l 701 1043 b 740 1061 717 1043 728 1046 l 886 1228 b 878 1250 896 1239 892 1250 l 826 1250 b 790 1229 813 1250 806 1247 l 683 1108 l 669 1108 l 563 1229 b 525 1250 547 1247 540 1250 l 475 1250 b 467 1228 461 1250 457 1239 l 613 1061 b 647 1043 625 1047 632 1043 z m 110 0 l 163 0 b 182 19 176 0 182 6 l 182 875 l 192 875 l 1124 14 b 1149 0 1132 6 1138 0 l 1242 0 b 1261 19 1256 0 1261 6 l 1261 953 b 1242 972 1261 967 1256 972 l 1189 972 b 1169 953 1175 972 1169 967 l 1169 97 l 1160 97 l 228 958 b 203 972 219 967 214 972 l 110 972 b 90 953 96 972 90 967 l 90 19 b 110 0 90 6 96 0 z "},"Ņ":{"ha":1351,"x_min":0,"x_max":0,"o":"m 110 0 l 163 0 b 182 19 176 0 182 6 l 182 875 l 192 875 l 1124 14 b 1149 0 1132 6 1138 0 l 1242 0 b 1261 19 1256 0 1261 6 l 1261 953 b 1242 972 1261 967 1256 972 l 1189 972 b 1169 953 1175 972 1169 967 l 1169 97 l 1160 97 l 228 958 b 203 972 219 967 214 972 l 110 972 b 90 953 96 972 90 967 l 90 19 b 110 0 90 6 96 0 z m 696 -83 l 653 -83 b 635 -101 639 -83 635 -87 l 635 -301 l 592 -301 b 574 -319 578 -301 574 -306 l 574 -360 b 592 -378 574 -374 578 -378 l 679 -378 b 715 -343 704 -378 715 -367 l 715 -101 b 696 -83 715 -87 710 -83 z "},"Ŋ":{"ha":1351,"x_min":0,"x_max":0,"o":"m 1242 972 l 1189 972 b 1169 953 1175 972 1169 967 l 1169 97 l 1160 97 l 228 958 b 203 972 219 967 214 972 l 110 972 b 90 953 96 972 90 967 l 90 19 b 110 0 90 6 96 0 l 163 0 b 182 19 176 0 182 6 l 182 875 l 192 875 l 1124 14 b 1149 0 1132 6 1138 0 l 1169 0 l 1169 -19 b 994 -193 1169 -142 1118 -193 l 110 -193 b 90 -212 96 -193 90 -199 l 90 -258 b 110 -278 90 -272 96 -278 l 1006 -278 b 1261 -31 1178 -278 1261 -196 l 1261 953 b 1242 972 1261 967 1256 972 z "},"Ñ":{"ha":1351,"x_min":0,"x_max":0,"o":"m 776 1113 b 892 1149 815 1113 853 1125 b 901 1172 903 1157 906 1164 l 883 1213 b 863 1218 879 1222 874 1225 b 781 1192 831 1197 808 1192 b 575 1257 700 1192 665 1257 b 458 1219 535 1257 497 1244 b 449 1197 447 1213 444 1206 l 467 1157 b 489 1151 471 1147 478 1144 b 569 1178 521 1171 542 1178 b 776 1113 650 1178 685 1113 z m 110 0 l 163 0 b 182 19 176 0 182 6 l 182 875 l 192 875 l 1124 14 b 1149 0 1132 6 1138 0 l 1242 0 b 1261 19 1256 0 1261 6 l 1261 953 b 1242 972 1261 967 1256 972 l 1189 972 b 1169 953 1175 972 1169 967 l 1169 97 l 1160 97 l 228 958 b 203 972 219 967 214 972 l 110 972 b 90 953 96 972 90 967 l 90 19 b 110 0 90 6 96 0 z "},"O":{"ha":1411,"x_min":0,"x_max":0,"o":"m 339 -6 l 1071 -6 b 1328 242 1243 -6 1328 76 l 1328 731 b 1071 978 1328 896 1243 978 l 339 978 b 83 731 167 978 83 896 l 83 242 b 339 -6 83 76 167 -6 z m 351 79 b 175 254 228 79 175 131 l 175 719 b 351 893 175 842 228 893 l 1060 893 b 1235 719 1183 893 1235 842 l 1235 254 b 1060 79 1235 131 1183 79 z "},"Ó":{"ha":1411,"x_min":0,"x_max":0,"o":"m 765 1225 l 669 1065 b 679 1040 660 1050 665 1040 l 725 1040 b 758 1065 739 1040 746 1050 l 885 1225 b 878 1250 897 1240 893 1250 l 797 1250 b 765 1225 783 1250 775 1242 z m 339 -6 l 1071 -6 b 1328 242 1243 -6 1328 76 l 1328 731 b 1071 978 1328 896 1243 978 l 339 978 b 83 731 167 978 83 896 l 83 242 b 339 -6 83 76 167 -6 z m 351 79 b 175 254 228 79 175 131 l 175 719 b 351 893 175 842 228 893 l 1060 893 b 1235 719 1183 893 1235 842 l 1235 254 b 1060 79 1235 131 1183 79 z "},"Ǒ":{"ha":1411,"x_min":0,"x_max":0,"o":"m 676 1043 l 731 1043 b 769 1061 746 1043 757 1046 l 915 1228 b 907 1250 925 1239 921 1250 l 856 1250 b 819 1229 842 1250 835 1247 l 713 1108 l 699 1108 l 592 1229 b 554 1250 576 1247 569 1250 l 504 1250 b 496 1228 490 1250 486 1239 l 642 1061 b 676 1043 654 1047 661 1043 z m 339 -6 l 1071 -6 b 1328 242 1243 -6 1328 76 l 1328 731 b 1071 978 1328 896 1243 978 l 339 978 b 83 731 167 978 83 896 l 83 242 b 339 -6 83 76 167 -6 z m 351 79 b 175 254 228 79 175 131 l 175 719 b 351 893 175 842 228 893 l 1060 893 b 1235 719 1183 893 1235 842 l 1235 254 b 1060 79 1235 131 1183 79 z "},"Ô":{"ha":1411,"x_min":0,"x_max":0,"o":"m 676 1250 b 642 1232 661 1250 654 1246 l 496 1065 b 504 1043 486 1054 490 1043 l 554 1043 b 592 1064 569 1043 576 1046 l 699 1185 l 713 1185 l 819 1064 b 856 1043 835 1046 842 1043 l 907 1043 b 915 1065 921 1043 925 1054 l 769 1232 b 731 1250 757 1247 746 1250 z m 339 -6 l 1071 -6 b 1328 242 1243 -6 1328 76 l 1328 731 b 1071 978 1328 896 1243 978 l 339 978 b 83 731 167 978 83 896 l 83 242 b 339 -6 83 76 167 -6 z m 351 79 b 175 254 228 79 175 131 l 175 719 b 351 893 175 842 228 893 l 1060 893 b 1235 719 1183 893 1235 842 l 1235 254 b 1060 79 1235 131 1183 79 z "},"Ö":{"ha":1411,"x_min":0,"x_max":0,"o":"m 494 1151 l 556 1151 b 575 1171 569 1151 575 1157 l 575 1232 b 556 1250 575 1246 569 1250 l 494 1250 b 476 1232 481 1250 476 1246 l 476 1171 b 494 1151 476 1157 481 1151 z m 824 1151 l 885 1151 b 903 1171 899 1151 903 1157 l 903 1232 b 885 1250 903 1246 899 1250 l 824 1250 b 804 1232 810 1250 804 1246 l 804 1171 b 824 1151 804 1157 810 1151 z m 339 -6 l 1071 -6 b 1328 242 1243 -6 1328 76 l 1328 731 b 1071 978 1328 896 1243 978 l 339 978 b 83 731 167 978 83 896 l 83 242 b 339 -6 83 76 167 -6 z m 351 79 b 175 254 228 79 175 131 l 175 719 b 351 893 175 842 228 893 l 1060 893 b 1235 719 1183 893 1235 842 l 1235 254 b 1060 79 1235 131 1183 79 z "},"Ò":{"ha":1411,"x_min":0,"x_max":0,"o":"m 647 1225 b 618 1250 639 1242 632 1250 l 542 1250 b 528 1225 526 1250 515 1240 l 653 1063 b 685 1040 665 1047 671 1040 l 731 1040 b 742 1065 744 1040 751 1050 z m 339 -6 l 1071 -6 b 1328 242 1243 -6 1328 76 l 1328 731 b 1071 978 1328 896 1243 978 l 339 978 b 83 731 167 978 83 896 l 83 242 b 339 -6 83 76 167 -6 z m 351 79 b 175 254 228 79 175 131 l 175 719 b 351 893 175 842 228 893 l 1060 893 b 1235 719 1183 893 1235 842 l 1235 254 b 1060 79 1235 131 1183 79 z "},"Ő":{"ha":1411,"x_min":0,"x_max":0,"o":"m 674 1225 l 578 1065 b 588 1040 568 1050 574 1040 l 633 1040 b 667 1065 647 1040 654 1050 l 793 1225 b 786 1250 806 1240 801 1250 l 706 1250 b 674 1225 692 1250 683 1242 z m 861 1225 l 765 1065 b 775 1040 756 1050 761 1040 l 821 1040 b 854 1065 835 1040 842 1050 l 979 1225 b 972 1250 992 1240 988 1250 l 893 1250 b 861 1225 879 1250 871 1242 z m 339 -6 l 1071 -6 b 1328 242 1243 -6 1328 76 l 1328 731 b 1071 978 1328 896 1243 978 l 339 978 b 83 731 167 978 83 896 l 83 242 b 339 -6 83 76 167 -6 z m 351 79 b 175 254 228 79 175 131 l 175 719 b 351 893 175 842 228 893 l 1060 893 b 1235 719 1183 893 1235 842 l 1235 254 b 1060 79 1235 131 1183 79 z "},"Ō":{"ha":1411,"x_min":0,"x_max":0,"o":"m 481 1165 l 931 1165 b 951 1186 943 1165 951 1172 l 951 1229 b 931 1250 951 1243 943 1250 l 481 1250 b 460 1229 467 1250 460 1243 l 460 1186 b 481 1165 460 1172 467 1165 z m 339 -6 l 1071 -6 b 1328 242 1243 -6 1328 76 l 1328 731 b 1071 978 1328 896 1243 978 l 339 978 b 83 731 167 978 83 896 l 83 242 b 339 -6 83 76 167 -6 z m 351 79 b 175 254 228 79 175 131 l 175 719 b 351 893 175 842 228 893 l 1060 893 b 1235 719 1183 893 1235 842 l 1235 254 b 1060 79 1235 131 1183 79 z "},"Ø":{"ha":1411,"x_min":0,"x_max":0,"o":"m 1071 978 l 964 978 l 972 999 b 960 1019 978 1013 974 1019 l 904 1019 b 879 999 890 1019 885 1013 l 871 978 l 339 978 b 83 731 167 978 83 896 l 83 242 b 339 -6 83 76 167 -6 l 450 -6 l 440 -28 b 453 -49 435 -42 439 -49 l 507 -49 b 532 -28 521 -49 526 -42 l 542 -6 l 1071 -6 b 1328 242 1243 -6 1328 76 l 1328 731 b 1071 978 1328 896 1243 978 z m 351 79 b 175 254 228 79 175 131 l 175 719 b 351 893 175 842 228 893 l 835 893 l 486 79 z m 1235 254 b 1060 79 1235 131 1183 79 l 578 79 l 926 893 l 1060 893 b 1235 719 1183 893 1235 842 z "},"Õ":{"ha":1411,"x_min":0,"x_max":0,"o":"m 807 1113 b 922 1149 846 1113 883 1125 b 932 1172 933 1157 936 1164 l 914 1213 b 893 1218 910 1222 904 1225 b 811 1192 861 1197 839 1192 b 606 1257 731 1192 696 1257 b 489 1219 565 1257 528 1244 b 479 1197 478 1213 475 1206 l 497 1157 b 519 1151 501 1147 508 1144 b 600 1178 551 1171 572 1178 b 807 1113 681 1178 715 1113 z m 339 -6 l 1071 -6 b 1328 242 1243 -6 1328 76 l 1328 731 b 1071 978 1328 896 1243 978 l 339 978 b 83 731 167 978 83 896 l 83 242 b 339 -6 83 76 167 -6 z m 351 79 b 175 254 228 79 175 131 l 175 719 b 351 893 175 842 228 893 l 1060 893 b 1235 719 1183 893 1235 842 l 1235 254 b 1060 79 1235 131 1183 79 z "},"Œ":{"ha":2431,"x_min":0,"x_max":0,"o":"m 2333 85 l 1328 85 l 1328 443 l 2313 443 b 2333 464 2326 443 2333 450 l 2333 508 b 2313 529 2333 522 2326 529 l 1328 529 l 1328 888 l 2326 888 b 2347 908 2340 888 2347 894 l 2347 951 b 2326 972 2347 965 2340 972 l 1254 972 b 1235 953 1240 972 1235 967 l 1235 939 b 1071 978 1194 965 1139 978 l 339 978 b 83 731 167 978 83 896 l 83 242 b 339 -6 83 76 167 -6 l 1071 -6 b 1235 33 1139 -6 1194 7 l 1235 19 b 1254 0 1235 6 1240 0 l 2333 0 b 2354 21 2347 0 2354 7 l 2354 64 b 2333 85 2354 78 2347 85 z m 1060 79 l 351 79 b 175 254 228 79 175 131 l 175 719 b 351 893 175 842 228 893 l 1060 893 b 1235 719 1183 893 1235 842 l 1235 254 b 1060 79 1235 131 1183 79 z "},"P":{"ha":1315,"x_min":0,"x_max":0,"o":"m 976 972 l 110 972 b 90 953 96 972 90 967 l 90 19 b 110 0 90 6 96 0 l 163 0 b 182 19 176 0 182 6 l 182 239 l 976 239 b 1232 486 1150 239 1232 319 l 1232 725 b 976 972 1232 890 1150 972 z m 1140 497 b 964 324 1140 374 1088 324 l 182 324 l 182 888 l 964 888 b 1140 714 1088 888 1140 836 z "},"Þ":{"ha":1301,"x_min":0,"x_max":0,"o":"m 963 781 l 182 781 l 182 953 b 163 972 182 967 176 972 l 110 972 b 90 953 96 972 90 967 l 90 19 b 110 0 90 6 96 0 l 163 0 b 182 19 176 0 182 6 l 182 192 l 963 192 b 1218 439 1136 192 1218 272 l 1218 533 b 963 781 1218 700 1136 781 z m 1126 450 b 950 276 1126 326 1074 276 l 182 276 l 182 696 l 950 696 b 1126 522 1074 696 1126 646 z "},"Q":{"ha":1411,"x_min":0,"x_max":0,"o":"m 1071 978 l 339 978 b 83 731 167 978 83 896 l 83 242 b 339 -6 83 76 167 -6 l 660 -6 l 660 -125 b 679 -144 660 -139 665 -144 l 732 -144 b 751 -125 746 -144 751 -139 l 751 -6 l 1071 -6 b 1328 242 1243 -6 1328 76 l 1328 731 b 1071 978 1328 896 1243 978 z m 1235 254 b 1060 79 1235 131 1183 79 l 351 79 b 175 254 228 79 175 131 l 175 719 b 351 893 175 842 228 893 l 1060 893 b 1235 719 1183 893 1235 842 z "},"R":{"ha":1324,"x_min":0,"x_max":0,"o":"m 1236 26 l 1061 290 b 1232 529 1176 314 1232 393 l 1232 725 b 976 972 1232 890 1149 972 l 110 972 b 90 953 96 972 90 967 l 90 19 b 110 0 90 6 96 0 l 163 0 b 182 19 176 0 182 6 l 182 282 l 964 282 l 1140 15 b 1165 0 1147 4 1154 0 l 1219 0 b 1236 26 1235 0 1246 10 z m 182 888 l 965 888 b 1140 714 1089 888 1140 836 l 1140 540 b 965 367 1140 417 1089 367 l 182 367 z "},"Ŕ":{"ha":1324,"x_min":0,"x_max":0,"o":"m 625 1040 l 671 1040 b 704 1065 685 1040 692 1050 l 831 1225 b 824 1250 843 1240 839 1250 l 743 1250 b 711 1225 729 1250 721 1242 l 615 1065 b 625 1040 606 1050 611 1040 z m 1236 26 l 1061 290 b 1232 529 1176 314 1232 393 l 1232 725 b 976 972 1232 890 1149 972 l 110 972 b 90 953 96 972 90 967 l 90 19 b 110 0 90 6 96 0 l 163 0 b 182 19 176 0 182 6 l 182 282 l 964 282 l 1140 15 b 1165 0 1147 4 1154 0 l 1219 0 b 1236 26 1235 0 1246 10 z m 182 888 l 965 888 b 1140 714 1089 888 1140 836 l 1140 540 b 965 367 1140 417 1089 367 l 182 367 z "},"Ř":{"ha":1324,"x_min":0,"x_max":0,"o":"m 589 1061 b 624 1043 601 1047 608 1043 l 678 1043 b 717 1061 693 1043 704 1046 l 863 1228 b 854 1250 872 1239 868 1250 l 803 1250 b 767 1229 789 1250 782 1247 l 660 1108 l 646 1108 l 539 1229 b 501 1250 524 1247 517 1250 l 451 1250 b 443 1228 438 1250 433 1239 z m 1236 26 l 1061 290 b 1232 529 1176 314 1232 393 l 1232 725 b 976 972 1232 890 1149 972 l 110 972 b 90 953 96 972 90 967 l 90 19 b 110 0 90 6 96 0 l 163 0 b 182 19 176 0 182 6 l 182 282 l 964 282 l 1140 15 b 1165 0 1147 4 1154 0 l 1219 0 b 1236 26 1235 0 1246 10 z m 182 888 l 965 888 b 1140 714 1089 888 1140 836 l 1140 540 b 965 367 1140 417 1089 367 l 182 367 z "},"Ŗ":{"ha":1324,"x_min":0,"x_max":0,"o":"m 1236 26 l 1061 290 b 1232 529 1176 314 1232 393 l 1232 725 b 976 972 1232 890 1149 972 l 110 972 b 90 953 96 972 90 967 l 90 19 b 110 0 90 6 96 0 l 163 0 b 182 19 176 0 182 6 l 182 282 l 964 282 l 1140 15 b 1165 0 1147 4 1154 0 l 1219 0 b 1236 26 1235 0 1246 10 z m 182 888 l 965 888 b 1140 714 1089 888 1140 836 l 1140 540 b 965 367 1140 417 1089 367 l 182 367 z m 672 -83 l 629 -83 b 611 -101 615 -83 611 -87 l 611 -301 l 568 -301 b 550 -319 554 -301 550 -306 l 550 -360 b 568 -378 550 -374 554 -378 l 656 -378 b 692 -343 681 -378 692 -367 l 692 -101 b 672 -83 692 -87 686 -83 z "},"S":{"ha":1364,"x_min":0,"x_max":0,"o":"m 1010 506 l 364 547 b 175 724 250 556 175 597 b 363 893 175 844 236 893 l 993 893 b 1171 757 1119 893 1161 847 b 1192 736 1172 742 1178 736 l 1242 736 b 1263 757 1256 736 1263 743 b 1011 978 1263 896 1188 978 l 350 978 b 83 724 176 978 83 897 b 354 467 83 549 189 478 l 1000 425 b 1189 249 1114 417 1189 375 b 1001 79 1189 128 1128 79 l 353 79 b 175 215 226 79 185 124 b 154 236 174 231 168 236 l 104 236 b 83 215 90 236 83 229 b 335 -6 83 76 158 -6 l 1014 -6 b 1281 249 1188 -6 1281 75 b 1010 506 1281 424 1175 494 z "},"Ś":{"ha":1364,"x_min":0,"x_max":0,"o":"m 704 1225 l 608 1065 b 618 1040 599 1050 604 1040 l 664 1040 b 697 1065 678 1040 685 1050 l 824 1225 b 817 1250 836 1240 832 1250 l 736 1250 b 704 1225 722 1250 714 1242 z m 1010 506 l 364 547 b 175 724 250 556 175 597 b 363 893 175 844 236 893 l 993 893 b 1171 757 1119 893 1161 847 b 1192 736 1172 742 1178 736 l 1242 736 b 1263 757 1256 736 1263 743 b 1011 978 1263 896 1188 978 l 350 978 b 83 724 176 978 83 897 b 354 467 83 549 189 478 l 1000 425 b 1189 249 1114 417 1189 375 b 1001 79 1189 128 1128 79 l 353 79 b 175 215 226 79 185 124 b 154 236 174 231 168 236 l 104 236 b 83 215 90 236 83 229 b 335 -6 83 76 158 -6 l 1014 -6 b 1281 249 1188 -6 1281 75 b 1010 506 1281 424 1175 494 z "},"Š":{"ha":1364,"x_min":0,"x_max":0,"o":"m 617 1043 l 671 1043 b 710 1061 686 1043 697 1046 l 856 1228 b 847 1250 865 1239 861 1250 l 796 1250 b 760 1229 782 1250 775 1247 l 653 1108 l 639 1108 l 532 1229 b 494 1250 517 1247 510 1250 l 444 1250 b 436 1228 431 1250 426 1239 l 582 1061 b 617 1043 594 1047 601 1043 z m 1010 506 l 364 547 b 175 724 250 556 175 597 b 363 893 175 844 236 893 l 993 893 b 1171 757 1119 893 1161 847 b 1192 736 1172 742 1178 736 l 1242 736 b 1263 757 1256 736 1263 743 b 1011 978 1263 896 1188 978 l 350 978 b 83 724 176 978 83 897 b 354 467 83 549 189 478 l 1000 425 b 1189 249 1114 417 1189 375 b 1001 79 1189 128 1128 79 l 353 79 b 175 215 226 79 185 124 b 154 236 174 231 168 236 l 104 236 b 83 215 90 236 83 229 b 335 -6 83 76 158 -6 l 1014 -6 b 1281 249 1188 -6 1281 75 b 1010 506 1281 424 1175 494 z "},"Ş":{"ha":1364,"x_min":0,"x_max":0,"o":"m 1010 506 l 364 547 b 175 724 250 556 175 597 b 363 893 175 844 236 893 l 993 893 b 1171 757 1119 893 1161 847 b 1192 736 1172 742 1178 736 l 1242 736 b 1263 757 1256 736 1263 743 b 1011 978 1263 896 1188 978 l 350 978 b 83 724 176 978 83 897 b 354 467 83 549 189 478 l 1000 425 b 1189 249 1114 417 1189 375 b 1001 79 1189 128 1128 79 l 353 79 b 175 215 226 79 185 124 b 154 236 174 231 168 236 l 104 236 b 83 215 90 236 83 229 b 335 -6 83 76 158 -6 l 603 -6 b 553 -82 565 -40 553 -61 b 607 -129 553 -112 578 -126 b 747 -174 710 -140 747 -142 b 682 -217 747 -210 729 -217 l 653 -217 b 586 -167 603 -217 586 -201 b 572 -156 586 -160 579 -156 l 525 -156 b 513 -169 515 -156 513 -161 b 632 -279 513 -239 542 -279 l 699 -279 b 822 -175 789 -279 822 -246 b 681 -75 822 -87 763 -85 b 688 -6 642 -71 622 -65 l 1014 -6 b 1281 249 1188 -6 1281 75 b 1010 506 1281 424 1175 494 z "},"Ș":{"ha":1364,"x_min":0,"x_max":0,"o":"m 1010 506 l 364 547 b 175 724 250 556 175 597 b 363 893 175 844 236 893 l 993 893 b 1171 757 1119 893 1161 847 b 1192 736 1172 742 1178 736 l 1242 736 b 1263 757 1256 736 1263 743 b 1011 978 1263 896 1188 978 l 350 978 b 83 724 176 978 83 897 b 354 467 83 549 189 478 l 1000 425 b 1189 249 1114 417 1189 375 b 1001 79 1189 128 1128 79 l 353 79 b 175 215 226 79 185 124 b 154 236 174 231 168 236 l 104 236 b 83 215 90 236 83 229 b 335 -6 83 76 158 -6 l 1014 -6 b 1281 249 1188 -6 1281 75 b 1010 506 1281 424 1175 494 z m 665 -83 l 622 -83 b 604 -101 608 -83 604 -87 l 604 -301 l 561 -301 b 543 -319 547 -301 543 -306 l 543 -360 b 561 -378 543 -374 547 -378 l 649 -378 b 685 -343 674 -378 685 -367 l 685 -101 b 665 -83 685 -87 679 -83 z "},"T":{"ha":1335,"x_min":0,"x_max":0,"o":"m 1253 972 l 82 972 b 63 953 68 972 63 967 l 63 907 b 82 888 63 893 68 888 l 622 888 l 622 19 b 642 0 622 6 628 0 l 693 0 b 714 19 707 0 714 6 l 714 888 l 1253 888 b 1272 907 1267 888 1272 893 l 1272 953 b 1253 972 1272 967 1267 972 z "},"Ŧ":{"ha":1221,"x_min":0,"x_max":0,"o":"m 1253 972 l 82 972 b 63 953 68 972 63 967 l 63 907 b 82 888 63 893 68 888 l 622 888 l 622 621 l 443 621 b 422 600 429 621 422 614 l 422 557 b 443 536 422 543 429 536 l 622 536 l 622 19 b 642 0 622 6 628 0 l 693 0 b 714 19 707 0 714 6 l 714 536 l 893 536 b 914 557 906 536 914 543 l 914 600 b 893 621 914 614 906 621 l 714 621 l 714 888 l 1253 888 b 1272 907 1267 888 1272 893 l 1272 953 b 1253 972 1272 967 1267 972 z "},"Ť":{"ha":1335,"x_min":0,"x_max":0,"o":"m 606 1061 b 640 1043 618 1047 625 1043 l 694 1043 b 733 1061 710 1043 721 1046 l 879 1228 b 871 1250 889 1239 885 1250 l 819 1250 b 783 1229 806 1250 799 1247 l 676 1108 l 663 1108 l 556 1229 b 518 1250 540 1247 533 1250 l 468 1250 b 460 1228 454 1250 450 1239 z m 1253 972 l 82 972 b 63 953 68 972 63 967 l 63 907 b 82 888 63 893 68 888 l 622 888 l 622 19 b 642 0 622 6 628 0 l 693 0 b 714 19 707 0 714 6 l 714 888 l 1253 888 b 1272 907 1267 888 1272 893 l 1272 953 b 1253 972 1272 967 1267 972 z "},"Ţ":{"ha":1335,"x_min":0,"x_max":0,"o":"m 1253 972 l 82 972 b 63 953 68 972 63 967 l 63 907 b 82 888 63 893 68 888 l 622 888 l 622 19 b 642 0 622 6 628 0 l 632 0 b 576 -82 590 -39 576 -60 b 631 -129 576 -112 601 -126 b 771 -174 733 -140 771 -142 b 706 -217 771 -210 753 -217 l 676 -217 b 610 -167 626 -217 610 -201 b 596 -156 610 -160 603 -156 l 549 -156 b 536 -169 539 -156 536 -161 b 656 -279 536 -239 565 -279 l 722 -279 b 846 -175 813 -279 846 -246 b 704 -75 846 -87 786 -85 b 717 0 664 -71 644 -65 l 693 0 b 714 19 707 0 714 6 l 714 888 l 1253 888 b 1272 907 1267 888 1272 893 l 1272 953 b 1253 972 1272 967 1267 972 z "},"Ț":{"ha":1335,"x_min":0,"x_max":0,"o":"m 1253 972 l 82 972 b 63 953 68 972 63 967 l 63 907 b 82 888 63 893 68 888 l 622 888 l 622 19 b 642 0 622 6 628 0 l 693 0 b 714 19 707 0 714 6 l 714 888 l 1253 888 b 1272 907 1267 888 1272 893 l 1272 953 b 1253 972 1272 967 1267 972 z m 689 -83 l 646 -83 b 628 -101 632 -83 628 -87 l 628 -301 l 585 -301 b 567 -319 571 -301 567 -306 l 567 -360 b 585 -378 567 -374 571 -378 l 672 -378 b 708 -343 697 -378 708 -367 l 708 -101 b 689 -83 708 -87 703 -83 z "},"U":{"ha":1425,"x_min":0,"x_max":0,"o":"m 346 0 l 1079 0 b 1335 247 1251 0 1335 82 l 1335 953 b 1314 972 1335 967 1328 972 l 1261 972 b 1242 953 1247 972 1242 967 l 1242 260 b 1067 85 1242 136 1192 85 l 358 85 b 182 260 233 85 182 136 l 182 953 b 163 972 182 967 176 972 l 110 972 b 90 953 96 972 90 967 l 90 247 b 346 0 90 82 174 0 z "},"Ú":{"ha":1425,"x_min":0,"x_max":0,"o":"m 772 1225 l 676 1065 b 686 1040 667 1050 672 1040 l 732 1040 b 765 1065 746 1040 753 1050 l 892 1225 b 885 1250 904 1240 900 1250 l 804 1250 b 772 1225 790 1250 782 1242 z m 346 0 l 1079 0 b 1335 247 1251 0 1335 82 l 1335 953 b 1314 972 1335 967 1328 972 l 1261 972 b 1242 953 1247 972 1242 967 l 1242 260 b 1067 85 1242 136 1192 85 l 358 85 b 182 260 233 85 182 136 l 182 953 b 163 972 182 967 176 972 l 110 972 b 90 953 96 972 90 967 l 90 247 b 346 0 90 82 174 0 z "},"Ŭ":{"ha":1425,"x_min":0,"x_max":0,"o":"m 683 1061 l 740 1061 b 906 1235 851 1061 906 1118 b 888 1250 906 1246 901 1250 l 847 1250 b 829 1235 833 1250 829 1246 b 735 1128 828 1174 797 1128 l 689 1128 b 594 1235 626 1128 596 1174 b 575 1250 594 1246 589 1250 l 536 1250 b 518 1235 522 1250 518 1246 b 683 1061 518 1118 574 1061 z m 346 0 l 1079 0 b 1335 247 1251 0 1335 82 l 1335 953 b 1314 972 1335 967 1328 972 l 1261 972 b 1242 953 1247 972 1242 967 l 1242 260 b 1067 85 1242 136 1192 85 l 358 85 b 182 260 233 85 182 136 l 182 953 b 163 972 182 967 176 972 l 110 972 b 90 953 96 972 90 967 l 90 247 b 346 0 90 82 174 0 z "},"Û":{"ha":1425,"x_min":0,"x_max":0,"o":"m 683 1250 b 649 1232 668 1250 661 1246 l 503 1065 b 511 1043 493 1054 497 1043 l 561 1043 b 599 1064 576 1043 583 1046 l 706 1185 l 719 1185 l 826 1064 b 863 1043 842 1046 849 1043 l 914 1043 b 922 1065 928 1043 932 1054 l 776 1232 b 738 1250 764 1247 753 1250 z m 346 0 l 1079 0 b 1335 247 1251 0 1335 82 l 1335 953 b 1314 972 1335 967 1328 972 l 1261 972 b 1242 953 1247 972 1242 967 l 1242 260 b 1067 85 1242 136 1192 85 l 358 85 b 182 260 233 85 182 136 l 182 953 b 163 972 182 967 176 972 l 110 972 b 90 953 96 972 90 967 l 90 247 b 346 0 90 82 174 0 z "},"Ü":{"ha":1425,"x_min":0,"x_max":0,"o":"m 501 1151 l 563 1151 b 582 1171 576 1151 582 1157 l 582 1232 b 563 1250 582 1246 576 1250 l 501 1250 b 483 1232 488 1250 483 1246 l 483 1171 b 501 1151 483 1157 488 1151 z m 831 1151 l 892 1151 b 910 1171 906 1151 910 1157 l 910 1232 b 892 1250 910 1246 906 1250 l 831 1250 b 811 1232 817 1250 811 1246 l 811 1171 b 831 1151 811 1157 817 1151 z m 346 0 l 1079 0 b 1335 247 1251 0 1335 82 l 1335 953 b 1314 972 1335 967 1328 972 l 1261 972 b 1242 953 1247 972 1242 967 l 1242 260 b 1067 85 1242 136 1192 85 l 358 85 b 182 260 233 85 182 136 l 182 953 b 163 972 182 967 176 972 l 110 972 b 90 953 96 972 90 967 l 90 247 b 346 0 90 82 174 0 z "},"Ù":{"ha":1425,"x_min":0,"x_max":0,"o":"m 654 1225 b 625 1250 646 1242 639 1250 l 549 1250 b 535 1225 533 1250 522 1240 l 660 1063 b 692 1040 672 1047 678 1040 l 738 1040 b 749 1065 751 1040 758 1050 z m 346 0 l 1079 0 b 1335 247 1251 0 1335 82 l 1335 953 b 1314 972 1335 967 1328 972 l 1261 972 b 1242 953 1247 972 1242 967 l 1242 260 b 1067 85 1242 136 1192 85 l 358 85 b 182 260 233 85 182 136 l 182 953 b 163 972 182 967 176 972 l 110 972 b 90 953 96 972 90 967 l 90 247 b 346 0 90 82 174 0 z "},"Ű":{"ha":1425,"x_min":0,"x_max":0,"o":"m 681 1225 l 585 1065 b 594 1040 575 1050 581 1040 l 640 1040 b 674 1065 654 1040 661 1050 l 800 1225 b 793 1250 813 1240 808 1250 l 713 1250 b 681 1225 699 1250 690 1242 z m 868 1225 l 772 1065 b 782 1040 763 1050 768 1040 l 828 1040 b 861 1065 842 1040 849 1050 l 986 1225 b 979 1250 999 1240 994 1250 l 900 1250 b 868 1225 886 1250 878 1242 z m 346 0 l 1079 0 b 1335 247 1251 0 1335 82 l 1335 953 b 1314 972 1335 967 1328 972 l 1261 972 b 1242 953 1247 972 1242 967 l 1242 260 b 1067 85 1242 136 1192 85 l 358 85 b 182 260 233 85 182 136 l 182 953 b 163 972 182 967 176 972 l 110 972 b 90 953 96 972 90 967 l 90 247 b 346 0 90 82 174 0 z "},"Ū":{"ha":1425,"x_min":0,"x_max":0,"o":"m 488 1165 l 938 1165 b 958 1186 950 1165 958 1172 l 958 1229 b 938 1250 958 1243 950 1250 l 488 1250 b 467 1229 474 1250 467 1243 l 467 1186 b 488 1165 467 1172 474 1165 z m 346 0 l 1079 0 b 1335 247 1251 0 1335 82 l 1335 953 b 1314 972 1335 967 1328 972 l 1261 972 b 1242 953 1247 972 1242 967 l 1242 260 b 1067 85 1242 136 1192 85 l 358 85 b 182 260 233 85 182 136 l 182 953 b 163 972 182 967 176 972 l 110 972 b 90 953 96 972 90 967 l 90 247 b 346 0 90 82 174 0 z "},"Ų":{"ha":1425,"x_min":0,"x_max":0,"o":"m 1314 972 l 1261 972 b 1242 953 1247 972 1242 967 l 1242 260 b 1067 85 1242 136 1192 85 l 358 85 b 182 260 233 85 182 136 l 182 953 b 163 972 182 967 176 972 l 110 972 b 90 953 96 972 90 967 l 90 247 b 346 0 90 82 174 0 l 776 0 l 776 -7 b 732 -47 776 -33 769 -43 l 672 -54 b 560 -154 589 -64 560 -72 b 685 -261 560 -236 586 -261 l 835 -261 b 849 -247 844 -261 849 -256 l 849 -211 b 835 -197 849 -201 843 -197 l 699 -197 b 642 -153 653 -197 642 -186 b 675 -115 642 -121 651 -118 l 797 -100 b 865 -18 849 -94 865 -78 l 865 0 l 1079 0 b 1335 247 1251 0 1335 82 l 1335 953 b 1314 972 1335 967 1328 972 z "},"Ů":{"ha":1425,"x_min":0,"x_max":0,"o":"m 721 1272 l 703 1272 b 586 1156 635 1272 586 1221 l 586 1140 b 703 1025 586 1075 635 1025 l 721 1025 b 838 1140 789 1025 838 1075 l 838 1156 b 721 1272 838 1221 789 1272 z m 775 1154 l 775 1143 b 718 1086 775 1108 756 1086 l 706 1086 b 649 1143 669 1086 649 1108 l 649 1154 b 706 1211 649 1190 669 1211 l 718 1211 b 775 1154 756 1211 775 1190 z m 346 0 l 1079 0 b 1335 247 1251 0 1335 82 l 1335 953 b 1314 972 1335 967 1328 972 l 1261 972 b 1242 953 1247 972 1242 967 l 1242 260 b 1067 85 1242 136 1192 85 l 358 85 b 182 260 233 85 182 136 l 182 953 b 163 972 182 967 176 972 l 110 972 b 90 953 96 972 90 967 l 90 247 b 346 0 90 82 174 0 z "},"Ũ":{"ha":1425,"x_min":0,"x_max":0,"o":"m 814 1113 b 929 1149 853 1113 890 1125 b 939 1172 940 1157 943 1164 l 921 1213 b 900 1218 917 1222 911 1225 b 818 1192 868 1197 846 1192 b 613 1257 738 1192 703 1257 b 496 1219 572 1257 535 1244 b 486 1197 485 1213 482 1206 l 504 1157 b 526 1151 508 1147 515 1144 b 607 1178 558 1171 579 1178 b 814 1113 688 1178 722 1113 z m 346 0 l 1079 0 b 1335 247 1251 0 1335 82 l 1335 953 b 1314 972 1335 967 1328 972 l 1261 972 b 1242 953 1247 972 1242 967 l 1242 260 b 1067 85 1242 136 1192 85 l 358 85 b 182 260 233 85 182 136 l 182 953 b 163 972 182 967 176 972 l 110 972 b 90 953 96 972 90 967 l 90 247 b 346 0 90 82 174 0 z "},"V":{"ha":1464,"x_min":0,"x_max":0,"o":"m 696 0 l 769 0 b 796 22 782 0 788 8 l 1404 950 b 1392 972 1415 965 1406 972 l 1328 972 b 1299 950 1314 972 1308 965 l 739 96 l 725 96 l 165 950 b 138 972 156 965 151 972 l 74 972 b 60 950 60 972 50 965 l 668 22 b 696 0 676 8 682 0 z "},"W":{"ha":2543,"x_min":0,"x_max":0,"o":"m 635 0 l 713 0 b 739 22 725 0 731 8 l 1272 886 l 1804 22 b 1831 0 1813 8 1818 0 l 1908 0 b 1935 22 1921 0 1926 8 l 2483 950 b 2469 972 2493 965 2483 972 l 2406 972 b 2378 950 2392 972 2388 965 l 1875 100 l 1861 100 l 1339 950 b 1311 972 1329 965 1325 972 l 1232 972 b 1204 950 1218 972 1214 965 l 682 100 l 668 100 l 165 950 b 138 972 156 965 151 972 l 74 972 b 60 950 60 972 50 965 l 608 22 b 635 0 617 8 622 0 z "},"Ẃ":{"ha":2543,"x_min":0,"x_max":0,"o":"m 1331 1225 l 1235 1065 b 1244 1040 1225 1050 1231 1040 l 1290 1040 b 1324 1065 1304 1040 1311 1050 l 1450 1225 b 1443 1250 1463 1240 1458 1250 l 1363 1250 b 1331 1225 1349 1250 1340 1242 z m 635 0 l 713 0 b 739 22 725 0 731 8 l 1272 886 l 1804 22 b 1831 0 1813 8 1818 0 l 1908 0 b 1935 22 1921 0 1926 8 l 2483 950 b 2469 972 2493 965 2483 972 l 2406 972 b 2378 950 2392 972 2388 965 l 1875 100 l 1861 100 l 1339 950 b 1311 972 1329 965 1325 972 l 1232 972 b 1204 950 1218 972 1214 965 l 682 100 l 668 100 l 165 950 b 138 972 156 965 151 972 l 74 972 b 60 950 60 972 50 965 l 608 22 b 635 0 617 8 622 0 z "},"Ŵ":{"ha":2543,"x_min":0,"x_max":0,"o":"m 1243 1250 b 1208 1232 1228 1250 1221 1246 l 1063 1065 b 1071 1043 1053 1054 1057 1043 l 1121 1043 b 1158 1064 1136 1043 1143 1046 l 1265 1185 l 1279 1185 l 1386 1064 b 1422 1043 1401 1046 1408 1043 l 1474 1043 b 1482 1065 1488 1043 1492 1054 l 1336 1232 b 1297 1250 1324 1247 1313 1250 z m 635 0 l 713 0 b 739 22 725 0 731 8 l 1272 886 l 1804 22 b 1831 0 1813 8 1818 0 l 1908 0 b 1935 22 1921 0 1926 8 l 2483 950 b 2469 972 2493 965 2483 972 l 2406 972 b 2378 950 2392 972 2388 965 l 1875 100 l 1861 100 l 1339 950 b 1311 972 1329 965 1325 972 l 1232 972 b 1204 950 1218 972 1214 965 l 682 100 l 668 100 l 165 950 b 138 972 156 965 151 972 l 74 972 b 60 950 60 972 50 965 l 608 22 b 635 0 617 8 622 0 z "},"Ẅ":{"ha":2543,"x_min":0,"x_max":0,"o":"m 1060 1151 l 1121 1151 b 1140 1171 1135 1151 1140 1157 l 1140 1232 b 1121 1250 1140 1246 1135 1250 l 1060 1250 b 1042 1232 1046 1250 1042 1246 l 1042 1171 b 1060 1151 1042 1157 1046 1151 z m 1389 1151 l 1450 1151 b 1468 1171 1464 1151 1468 1157 l 1468 1232 b 1450 1250 1468 1246 1464 1250 l 1389 1250 b 1369 1232 1375 1250 1369 1246 l 1369 1171 b 1389 1151 1369 1157 1375 1151 z m 635 0 l 713 0 b 739 22 725 0 731 8 l 1272 886 l 1804 22 b 1831 0 1813 8 1818 0 l 1908 0 b 1935 22 1921 0 1926 8 l 2483 950 b 2469 972 2493 965 2483 972 l 2406 972 b 2378 950 2392 972 2388 965 l 1875 100 l 1861 100 l 1339 950 b 1311 972 1329 965 1325 972 l 1232 972 b 1204 950 1218 972 1214 965 l 682 100 l 668 100 l 165 950 b 138 972 156 965 151 972 l 74 972 b 60 950 60 972 50 965 l 608 22 b 635 0 617 8 622 0 z "},"Ẁ":{"ha":2543,"x_min":0,"x_max":0,"o":"m 1213 1225 b 1183 1250 1204 1242 1197 1250 l 1107 1250 b 1093 1225 1092 1250 1081 1240 l 1218 1063 b 1250 1040 1231 1047 1236 1040 l 1296 1040 b 1307 1065 1310 1040 1317 1050 z m 635 0 l 713 0 b 739 22 725 0 731 8 l 1272 886 l 1804 22 b 1831 0 1813 8 1818 0 l 1908 0 b 1935 22 1921 0 1926 8 l 2483 950 b 2469 972 2493 965 2483 972 l 2406 972 b 2378 950 2392 972 2388 965 l 1875 100 l 1861 100 l 1339 950 b 1311 972 1329 965 1325 972 l 1232 972 b 1204 950 1218 972 1214 965 l 682 100 l 668 100 l 165 950 b 138 972 156 965 151 972 l 74 972 b 60 950 60 972 50 965 l 608 22 b 635 0 617 8 622 0 z "},"X":{"ha":1351,"x_min":0,"x_max":0,"o":"m 1289 19 l 742 486 l 1289 953 b 1286 972 1301 964 1297 972 l 1194 972 b 1156 951 1179 972 1171 965 l 676 542 l 196 951 b 157 972 181 965 172 972 l 65 972 b 63 953 54 972 51 964 l 610 486 l 63 19 b 65 0 51 8 54 0 l 157 0 b 196 21 172 0 181 7 l 676 431 l 1156 21 b 1194 0 1171 7 1179 0 l 1286 0 b 1289 19 1297 0 1301 8 z "},"Y":{"ha":1318,"x_min":0,"x_max":0,"o":"m 1253 972 l 1172 972 b 1138 951 1158 972 1150 964 l 665 472 l 653 472 l 181 951 b 146 972 168 964 160 972 l 67 972 b 63 954 54 972 53 964 l 614 392 l 614 19 b 633 0 614 6 619 0 l 685 0 b 706 19 699 0 706 6 l 706 392 l 1256 954 b 1253 972 1265 964 1264 972 z "},"Ý":{"ha":1318,"x_min":0,"x_max":0,"o":"m 718 1225 l 622 1065 b 632 1040 613 1050 618 1040 l 678 1040 b 711 1065 692 1040 699 1050 l 838 1225 b 831 1250 850 1240 846 1250 l 750 1250 b 718 1225 736 1250 728 1242 z m 1253 972 l 1172 972 b 1138 951 1158 972 1150 964 l 665 472 l 653 472 l 181 951 b 146 972 168 964 160 972 l 67 972 b 63 954 54 972 53 964 l 614 392 l 614 19 b 633 0 614 6 619 0 l 685 0 b 706 19 699 0 706 6 l 706 392 l 1256 954 b 1253 972 1265 964 1264 972 z "},"Ŷ":{"ha":1318,"x_min":0,"x_max":0,"o":"m 631 1250 b 596 1232 615 1250 608 1246 l 450 1065 b 458 1043 440 1054 444 1043 l 508 1043 b 546 1064 524 1043 531 1046 l 653 1185 l 667 1185 l 774 1064 b 810 1043 789 1046 796 1043 l 861 1043 b 869 1065 875 1043 879 1054 l 724 1232 b 685 1250 711 1247 700 1250 z m 1253 972 l 1172 972 b 1138 951 1158 972 1150 964 l 665 472 l 653 472 l 181 951 b 146 972 168 964 160 972 l 67 972 b 63 954 54 972 53 964 l 614 392 l 614 19 b 633 0 614 6 619 0 l 685 0 b 706 19 699 0 706 6 l 706 392 l 1256 954 b 1253 972 1265 964 1264 972 z "},"Ÿ":{"ha":1318,"x_min":0,"x_max":0,"o":"m 447 1151 l 508 1151 b 528 1171 522 1151 528 1157 l 528 1232 b 508 1250 528 1246 522 1250 l 447 1250 b 429 1232 433 1250 429 1246 l 429 1171 b 447 1151 429 1157 433 1151 z m 776 1151 l 838 1151 b 856 1171 851 1151 856 1157 l 856 1232 b 838 1250 856 1246 851 1250 l 776 1250 b 757 1232 763 1250 757 1246 l 757 1171 b 776 1151 757 1157 763 1151 z m 1253 972 l 1172 972 b 1138 951 1158 972 1150 964 l 665 472 l 653 472 l 181 951 b 146 972 168 964 160 972 l 67 972 b 63 954 54 972 53 964 l 614 392 l 614 19 b 633 0 614 6 619 0 l 685 0 b 706 19 699 0 706 6 l 706 392 l 1256 954 b 1253 972 1265 964 1264 972 z "},"Ỳ":{"ha":1318,"x_min":0,"x_max":0,"o":"m 600 1225 b 571 1250 592 1242 585 1250 l 494 1250 b 481 1225 479 1250 468 1240 l 606 1063 b 638 1040 618 1047 624 1040 l 683 1040 b 694 1065 697 1040 704 1050 z m 1253 972 l 1172 972 b 1138 951 1158 972 1150 964 l 665 472 l 653 472 l 181 951 b 146 972 168 964 160 972 l 67 972 b 63 954 54 972 53 964 l 614 392 l 614 19 b 633 0 614 6 619 0 l 685 0 b 706 19 699 0 706 6 l 706 392 l 1256 954 b 1253 972 1265 964 1264 972 z "},"Z":{"ha":1264,"x_min":0,"x_max":0,"o":"m 89 0 l 1175 0 b 1194 19 1189 0 1194 6 l 1194 65 b 1175 85 1194 79 1189 85 l 214 85 l 214 96 l 1185 878 b 1193 897 1192 883 1193 890 l 1193 953 b 1174 972 1193 967 1188 972 l 99 972 b 79 953 85 972 79 967 l 79 907 b 99 888 79 893 85 888 l 1049 888 l 1049 876 l 78 94 b 69 75 71 89 69 82 l 69 19 b 89 0 69 6 75 0 z "},"Ź":{"ha":1264,"x_min":0,"x_max":0,"o":"m 690 1225 l 594 1065 b 604 1040 585 1050 590 1040 l 650 1040 b 683 1065 664 1040 671 1050 l 810 1225 b 803 1250 822 1240 818 1250 l 722 1250 b 690 1225 708 1250 700 1242 z m 89 0 l 1175 0 b 1194 19 1189 0 1194 6 l 1194 65 b 1175 85 1194 79 1189 85 l 214 85 l 214 96 l 1185 878 b 1193 897 1192 883 1193 890 l 1193 953 b 1174 972 1193 967 1188 972 l 99 972 b 79 953 85 972 79 967 l 79 907 b 99 888 79 893 85 888 l 1049 888 l 1049 876 l 78 94 b 69 75 71 89 69 82 l 69 19 b 89 0 69 6 75 0 z "},"Ž":{"ha":1264,"x_min":0,"x_max":0,"o":"m 603 1043 l 657 1043 b 696 1061 672 1043 683 1046 l 842 1228 b 833 1250 851 1239 847 1250 l 782 1250 b 746 1229 768 1250 761 1247 l 639 1108 l 625 1108 l 518 1229 b 481 1250 503 1247 496 1250 l 431 1250 b 422 1228 417 1250 413 1239 l 568 1061 b 603 1043 581 1047 588 1043 z m 89 0 l 1175 0 b 1194 19 1189 0 1194 6 l 1194 65 b 1175 85 1194 79 1189 85 l 214 85 l 214 96 l 1185 878 b 1193 897 1192 883 1193 890 l 1193 953 b 1174 972 1193 967 1188 972 l 99 972 b 79 953 85 972 79 967 l 79 907 b 99 888 79 893 85 888 l 1049 888 l 1049 876 l 78 94 b 69 75 71 89 69 82 l 69 19 b 89 0 69 6 75 0 z "},"Ż":{"ha":1264,"x_min":0,"x_max":0,"o":"m 600 1151 l 661 1151 b 681 1171 675 1151 681 1157 l 681 1232 b 661 1250 681 1246 675 1250 l 600 1250 b 582 1232 586 1250 582 1246 l 582 1171 b 600 1151 582 1157 586 1151 z m 89 0 l 1175 0 b 1194 19 1189 0 1194 6 l 1194 65 b 1175 85 1194 79 1189 85 l 214 85 l 214 96 l 1185 878 b 1193 897 1192 883 1193 890 l 1193 953 b 1174 972 1193 967 1188 972 l 99 972 b 79 953 85 972 79 967 l 79 907 b 99 888 79 893 85 888 l 1049 888 l 1049 876 l 78 94 b 69 75 71 89 69 82 l 69 19 b 89 0 69 6 75 0 z "},"a":{"ha":1003,"x_min":0,"x_max":0,"o":"m 251 -7 l 608 -7 b 836 99 721 -7 793 42 l 844 99 l 844 19 b 864 0 844 6 850 0 l 914 0 b 933 19 928 0 933 6 l 933 449 b 665 700 933 621 864 700 l 306 700 b 82 538 146 700 82 640 b 106 508 82 515 89 508 l 149 508 b 171 526 164 508 169 514 b 319 619 179 590 214 619 l 650 619 b 844 442 806 619 844 568 l 844 397 l 249 397 b 42 200 118 397 42 342 b 251 -7 42 60 121 -7 z m 253 76 b 131 201 175 76 131 108 b 253 324 131 296 175 324 l 844 324 l 844 229 b 653 76 844 142 765 76 z "},"á":{"ha":1003,"x_min":0,"x_max":0,"o":"m 565 947 l 469 788 b 479 763 460 772 465 763 l 525 763 b 558 788 539 763 546 772 l 685 947 b 678 972 697 963 693 972 l 597 972 b 565 947 583 972 575 964 z m 251 -7 l 608 -7 b 836 99 721 -7 793 42 l 844 99 l 844 19 b 864 0 844 6 850 0 l 914 0 b 933 19 928 0 933 6 l 933 449 b 665 700 933 621 864 700 l 306 700 b 82 538 146 700 82 640 b 106 508 82 515 89 508 l 149 508 b 171 526 164 508 169 514 b 319 619 179 590 214 619 l 650 619 b 844 442 806 619 844 568 l 844 397 l 249 397 b 42 200 118 397 42 342 b 251 -7 42 60 121 -7 z m 253 76 b 131 201 175 76 131 108 b 253 324 131 296 175 324 l 844 324 l 844 229 b 653 76 844 142 765 76 z "},"ă":{"ha":1003,"x_min":0,"x_max":0,"o":"m 478 783 l 535 783 b 700 957 646 783 700 840 b 682 972 700 968 696 972 l 642 972 b 624 957 628 972 624 968 b 529 850 622 896 592 850 l 483 850 b 389 957 421 850 390 896 b 369 972 389 968 383 972 l 331 972 b 313 957 317 972 313 968 b 478 783 313 840 368 783 z m 251 -7 l 608 -7 b 836 99 721 -7 793 42 l 844 99 l 844 19 b 864 0 844 6 850 0 l 914 0 b 933 19 928 0 933 6 l 933 449 b 665 700 933 621 864 700 l 306 700 b 82 538 146 700 82 640 b 106 508 82 515 89 508 l 149 508 b 171 526 164 508 169 514 b 319 619 179 590 214 619 l 650 619 b 844 442 806 619 844 568 l 844 397 l 249 397 b 42 200 118 397 42 342 b 251 -7 42 60 121 -7 z m 253 76 b 131 201 175 76 131 108 b 253 324 131 296 175 324 l 844 324 l 844 229 b 653 76 844 142 765 76 z "},"ǎ":{"ha":1003,"x_min":0,"x_max":0,"o":"m 478 765 l 532 765 b 571 783 547 765 558 768 l 717 950 b 708 972 726 961 722 972 l 657 972 b 621 951 643 972 636 969 l 514 831 l 500 831 l 393 951 b 356 972 378 969 371 972 l 306 972 b 297 950 292 972 288 961 l 443 783 b 478 765 456 769 463 765 z m 251 -7 l 608 -7 b 836 99 721 -7 793 42 l 844 99 l 844 19 b 864 0 844 6 850 0 l 914 0 b 933 19 928 0 933 6 l 933 449 b 665 700 933 621 864 700 l 306 700 b 82 538 146 700 82 640 b 106 508 82 515 89 508 l 149 508 b 171 526 164 508 169 514 b 319 619 179 590 214 619 l 650 619 b 844 442 806 619 844 568 l 844 397 l 249 397 b 42 200 118 397 42 342 b 251 -7 42 60 121 -7 z m 253 76 b 131 201 175 76 131 108 b 253 324 131 296 175 324 l 844 324 l 844 229 b 653 76 844 142 765 76 z "},"â":{"ha":1003,"x_min":0,"x_max":0,"o":"m 478 972 b 443 954 463 972 456 968 l 297 788 b 306 765 288 776 292 765 l 356 765 b 393 786 371 765 378 768 l 500 907 l 514 907 l 621 786 b 657 765 636 768 643 765 l 708 765 b 717 788 722 765 726 776 l 571 954 b 532 972 558 969 547 972 z m 251 -7 l 608 -7 b 836 99 721 -7 793 42 l 844 99 l 844 19 b 864 0 844 6 850 0 l 914 0 b 933 19 928 0 933 6 l 933 449 b 665 700 933 621 864 700 l 306 700 b 82 538 146 700 82 640 b 106 508 82 515 89 508 l 149 508 b 171 526 164 508 169 514 b 319 619 179 590 214 619 l 650 619 b 844 442 806 619 844 568 l 844 397 l 249 397 b 42 200 118 397 42 342 b 251 -7 42 60 121 -7 z m 253 76 b 131 201 175 76 131 108 b 253 324 131 296 175 324 l 844 324 l 844 229 b 653 76 844 142 765 76 z "},"ä":{"ha":1003,"x_min":0,"x_max":0,"o":"m 294 874 l 356 874 b 375 893 369 874 375 879 l 375 954 b 356 972 375 968 369 972 l 294 972 b 276 954 281 972 276 968 l 276 893 b 294 874 276 879 281 874 z m 624 874 l 685 874 b 703 893 699 874 703 879 l 703 954 b 685 972 703 968 699 972 l 624 972 b 604 954 610 972 604 968 l 604 893 b 624 874 604 879 610 874 z m 251 -7 l 608 -7 b 836 99 721 -7 793 42 l 844 99 l 844 19 b 864 0 844 6 850 0 l 914 0 b 933 19 928 0 933 6 l 933 449 b 665 700 933 621 864 700 l 306 700 b 82 538 146 700 82 640 b 106 508 82 515 89 508 l 149 508 b 171 526 164 508 169 514 b 319 619 179 590 214 619 l 650 619 b 844 442 806 619 844 568 l 844 397 l 249 397 b 42 200 118 397 42 342 b 251 -7 42 60 121 -7 z m 253 76 b 131 201 175 76 131 108 b 253 324 131 296 175 324 l 844 324 l 844 229 b 653 76 844 142 765 76 z "},"à":{"ha":1003,"x_min":0,"x_max":0,"o":"m 447 947 b 418 972 439 964 432 972 l 342 972 b 328 947 326 972 315 963 l 453 785 b 485 763 465 769 471 763 l 531 763 b 542 788 544 763 551 772 z m 251 -7 l 608 -7 b 836 99 721 -7 793 42 l 844 99 l 844 19 b 864 0 844 6 850 0 l 914 0 b 933 19 928 0 933 6 l 933 449 b 665 700 933 621 864 700 l 306 700 b 82 538 146 700 82 640 b 106 508 82 515 89 508 l 149 508 b 171 526 164 508 169 514 b 319 619 179 590 214 619 l 650 619 b 844 442 806 619 844 568 l 844 397 l 249 397 b 42 200 118 397 42 342 b 251 -7 42 60 121 -7 z m 253 76 b 131 201 175 76 131 108 b 253 324 131 296 175 324 l 844 324 l 844 229 b 653 76 844 142 765 76 z "},"ā":{"ha":1003,"x_min":0,"x_max":0,"o":"m 281 888 l 731 888 b 751 908 743 888 751 894 l 751 951 b 731 972 751 965 743 972 l 281 972 b 260 951 267 972 260 965 l 260 908 b 281 888 260 894 267 888 z m 251 -7 l 608 -7 b 836 99 721 -7 793 42 l 844 99 l 844 19 b 864 0 844 6 850 0 l 914 0 b 933 19 928 0 933 6 l 933 449 b 665 700 933 621 864 700 l 306 700 b 82 538 146 700 82 640 b 106 508 82 515 89 508 l 149 508 b 171 526 164 508 169 514 b 319 619 179 590 214 619 l 650 619 b 844 442 806 619 844 568 l 844 397 l 249 397 b 42 200 118 397 42 342 b 251 -7 42 60 121 -7 z m 253 76 b 131 201 175 76 131 108 b 253 324 131 296 175 324 l 844 324 l 844 229 b 653 76 844 142 765 76 z "},"ą":{"ha":1003,"x_min":0,"x_max":0,"o":"m 665 700 l 306 700 b 82 538 146 700 82 640 b 106 508 82 515 89 508 l 149 508 b 171 526 164 508 169 514 b 319 619 179 590 214 619 l 650 619 b 844 442 806 619 844 568 l 844 397 l 249 397 b 42 200 118 397 42 342 b 251 -7 42 60 121 -7 l 608 -7 b 836 99 721 -7 793 42 l 844 99 l 844 -12 b 800 -53 844 -39 838 -49 l 740 -60 b 628 -160 657 -69 628 -78 b 753 -267 628 -242 654 -267 l 903 -267 b 917 -253 913 -267 917 -261 l 917 -217 b 903 -203 917 -207 911 -203 l 767 -203 b 710 -158 721 -203 710 -192 b 743 -121 710 -126 719 -124 l 865 -106 b 933 -24 917 -100 933 -83 l 933 449 b 665 700 933 621 864 700 z m 653 76 l 253 76 b 131 201 175 76 131 108 b 253 324 131 296 175 324 l 844 324 l 844 229 b 653 76 844 142 765 76 z "},"å":{"ha":1003,"x_min":0,"x_max":0,"o":"m 514 994 l 496 994 b 379 878 428 994 379 943 l 379 863 b 496 747 379 797 428 747 l 514 747 b 631 863 582 747 631 797 l 631 878 b 514 994 631 943 582 994 z m 568 876 l 568 865 b 511 808 568 831 549 808 l 499 808 b 442 865 463 808 442 831 l 442 876 b 499 933 442 913 463 933 l 511 933 b 568 876 549 933 568 913 z m 251 -7 l 608 -7 b 836 99 721 -7 793 42 l 844 99 l 844 19 b 864 0 844 6 850 0 l 914 0 b 933 19 928 0 933 6 l 933 449 b 665 700 933 621 864 700 l 306 700 b 82 538 146 700 82 640 b 106 508 82 515 89 508 l 149 508 b 171 526 164 508 169 514 b 319 619 179 590 214 619 l 650 619 b 844 442 806 619 844 568 l 844 397 l 249 397 b 42 200 118 397 42 342 b 251 -7 42 60 121 -7 z m 253 76 b 131 201 175 76 131 108 b 253 324 131 296 175 324 l 844 324 l 844 229 b 653 76 844 142 765 76 z "},"ã":{"ha":1003,"x_min":0,"x_max":0,"o":"m 607 835 b 722 871 646 835 683 847 b 732 894 733 879 736 886 l 714 935 b 693 940 710 944 704 947 b 611 914 661 919 639 914 b 406 979 531 914 496 979 b 289 942 365 979 328 967 b 279 919 278 935 275 928 l 297 879 b 319 874 301 869 308 867 b 400 900 351 893 372 900 b 607 835 481 900 515 835 z m 251 -7 l 608 -7 b 836 99 721 -7 793 42 l 844 99 l 844 19 b 864 0 844 6 850 0 l 914 0 b 933 19 928 0 933 6 l 933 449 b 665 700 933 621 864 700 l 306 700 b 82 538 146 700 82 640 b 106 508 82 515 89 508 l 149 508 b 171 526 164 508 169 514 b 319 619 179 590 214 619 l 650 619 b 844 442 806 619 844 568 l 844 397 l 249 397 b 42 200 118 397 42 342 b 251 -7 42 60 121 -7 z m 253 76 b 131 201 175 76 131 108 b 253 324 131 296 175 324 l 844 324 l 844 229 b 653 76 844 142 765 76 z "},"æ":{"ha":1794,"x_min":0,"x_max":0,"o":"m 1492 700 l 1085 700 b 885 615 990 700 924 671 b 665 700 849 672 782 700 l 307 700 b 82 535 147 700 82 639 b 106 506 82 514 89 506 l 149 506 b 171 525 164 506 169 513 b 319 618 179 589 214 618 l 650 619 b 844 442 806 619 844 568 l 844 397 l 249 397 b 42 200 118 397 42 342 b 251 -7 42 60 121 -7 l 629 -7 b 865 110 747 -7 822 47 l 867 110 b 1085 -7 901 33 974 -7 l 1468 -7 b 1711 76 1625 -7 1674 26 b 1711 100 1719 88 1722 94 l 1679 117 b 1649 115 1667 124 1658 122 b 1468 76 1599 82 1569 76 l 1089 76 b 933 233 988 76 933 124 l 933 311 l 1674 311 b 1732 368 1717 311 1732 326 l 1732 461 b 1492 700 1732 617 1650 700 z m 1643 383 l 933 383 l 933 458 b 1089 617 933 569 988 617 l 1486 617 b 1643 458 1589 617 1643 569 z m 653 76 l 253 76 b 131 201 175 76 131 108 b 253 324 131 296 175 324 l 844 324 l 844 229 b 653 76 844 142 765 76 z "},"b":{"ha":1022,"x_min":0,"x_max":0,"o":"m 719 -7 b 960 231 878 -7 960 76 l 960 461 b 719 700 960 618 878 700 l 363 700 b 168 622 242 700 206 672 l 158 622 l 158 953 b 139 972 158 967 153 972 l 89 972 b 69 953 75 972 69 967 l 69 19 b 89 0 69 6 75 0 l 139 0 b 158 19 153 0 158 6 l 158 72 l 168 72 b 363 -7 206 21 242 -7 z m 715 76 l 313 76 b 158 233 211 76 158 124 l 158 458 b 313 617 158 569 211 617 l 715 617 b 871 458 818 617 871 569 l 871 233 b 715 76 871 124 818 76 z "},"c":{"ha":1001,"x_min":0,"x_max":0,"o":"m 303 -7 l 686 -7 b 929 76 843 -7 892 26 b 929 100 938 88 940 94 l 897 117 b 867 115 885 124 876 122 b 686 76 817 82 788 76 l 307 76 b 151 233 206 76 151 124 l 151 458 b 307 617 151 569 206 617 l 708 617 b 857 500 811 617 857 576 l 857 468 b 878 453 857 458 865 453 l 926 453 b 946 471 939 453 946 460 l 946 504 b 718 700 946 632 872 700 l 303 700 b 63 463 143 700 63 619 l 63 229 b 303 -7 63 75 143 -7 z "},"ć":{"ha":1001,"x_min":0,"x_max":0,"o":"m 553 947 l 457 788 b 467 763 447 772 453 763 l 513 763 b 546 788 526 763 533 772 l 672 947 b 665 972 685 963 681 972 l 585 972 b 553 947 571 972 563 964 z m 303 -7 l 686 -7 b 929 76 843 -7 892 26 b 929 100 938 88 940 94 l 897 117 b 867 115 885 124 876 122 b 686 76 817 82 788 76 l 307 76 b 151 233 206 76 151 124 l 151 458 b 307 617 151 569 206 617 l 708 617 b 857 500 811 617 857 576 l 857 468 b 878 453 857 458 865 453 l 926 453 b 946 471 939 453 946 460 l 946 504 b 718 700 946 632 872 700 l 303 700 b 63 463 143 700 63 619 l 63 229 b 303 -7 63 75 143 -7 z "},"č":{"ha":1001,"x_min":0,"x_max":0,"o":"m 465 765 l 519 765 b 558 783 535 765 546 768 l 704 950 b 696 972 714 961 710 972 l 644 972 b 608 951 631 972 624 969 l 501 831 l 488 831 l 381 951 b 343 972 365 969 358 972 l 293 972 b 285 950 279 972 275 961 l 431 783 b 465 765 443 769 450 765 z m 303 -7 l 686 -7 b 929 76 843 -7 892 26 b 929 100 938 88 940 94 l 897 117 b 867 115 885 124 876 122 b 686 76 817 82 788 76 l 307 76 b 151 233 206 76 151 124 l 151 458 b 307 617 151 569 206 617 l 708 617 b 857 500 811 617 857 576 l 857 468 b 878 453 857 458 865 453 l 926 453 b 946 471 939 453 946 460 l 946 504 b 718 700 946 632 872 700 l 303 700 b 63 463 143 700 63 619 l 63 229 b 303 -7 63 75 143 -7 z "},"ç":{"ha":1001,"x_min":0,"x_max":0,"o":"m 718 700 l 303 700 b 63 463 143 700 63 619 l 63 229 b 303 -7 63 75 143 -7 l 450 -7 b 401 -82 414 -42 401 -61 b 456 -129 401 -112 426 -126 b 596 -174 558 -140 596 -142 b 531 -217 596 -210 578 -217 l 501 -217 b 435 -167 451 -217 435 -201 b 421 -156 435 -160 428 -156 l 374 -156 b 361 -169 364 -156 361 -161 b 481 -279 361 -239 390 -279 l 547 -279 b 671 -175 638 -279 671 -246 b 529 -75 671 -87 611 -85 b 535 -7 490 -71 471 -65 l 686 -7 b 929 76 843 -7 892 26 b 929 100 938 88 940 94 l 897 117 b 867 115 885 124 876 122 b 686 76 817 82 788 76 l 307 76 b 151 233 206 76 151 124 l 151 458 b 307 617 151 569 206 617 l 708 617 b 857 500 811 617 857 576 l 857 468 b 878 453 857 458 865 453 l 926 453 b 946 471 939 453 946 460 l 946 504 b 718 700 946 632 872 700 z "},"ċ":{"ha":1001,"x_min":0,"x_max":0,"o":"m 463 874 l 524 874 b 543 893 538 874 543 879 l 543 954 b 524 972 543 968 538 972 l 463 972 b 444 954 449 972 444 968 l 444 893 b 463 874 444 879 449 874 z m 303 -7 l 686 -7 b 929 76 843 -7 892 26 b 929 100 938 88 940 94 l 897 117 b 867 115 885 124 876 122 b 686 76 817 82 788 76 l 307 76 b 151 233 206 76 151 124 l 151 458 b 307 617 151 569 206 617 l 708 617 b 857 500 811 617 857 576 l 857 468 b 878 453 857 458 865 453 l 926 453 b 946 471 939 453 946 460 l 946 504 b 718 700 946 632 872 700 l 303 700 b 63 463 143 700 63 619 l 63 229 b 303 -7 63 75 143 -7 z "},"d":{"ha":1022,"x_min":0,"x_max":0,"o":"m 304 -7 l 660 -7 b 854 72 781 -7 817 21 l 864 72 l 864 19 b 885 0 864 6 871 0 l 933 0 b 953 19 947 0 953 6 l 953 953 b 933 972 953 967 947 972 l 883 972 b 864 953 871 972 864 967 l 864 622 l 854 622 b 660 700 817 672 781 700 l 304 700 b 63 461 144 700 63 618 l 63 231 b 304 -7 63 76 144 -7 z m 307 76 b 151 233 206 76 151 124 l 151 458 b 307 617 151 569 206 617 l 710 617 b 864 458 811 617 864 569 l 864 233 b 710 76 864 124 811 76 z "},"ð":{"ha":1064,"x_min":0,"x_max":0,"o":"m 976 1007 l 932 1007 b 899 983 921 1007 917 1003 l 858 940 b 706 972 819 963 769 972 l 299 972 b 278 953 285 972 278 967 l 278 908 b 299 889 278 894 285 889 l 690 889 b 794 874 735 889 768 885 l 686 758 b 699 733 675 746 682 733 l 743 733 b 778 757 754 733 761 740 l 846 831 b 864 749 858 810 864 783 l 864 622 l 854 622 b 660 700 817 672 781 700 l 304 700 b 63 461 144 700 63 618 l 63 231 b 304 -7 63 76 144 -7 l 660 -7 b 854 72 781 -7 817 21 l 864 72 l 864 19 b 885 0 864 6 871 0 l 933 0 b 953 19 947 0 953 6 l 953 742 b 910 897 953 808 939 861 l 988 982 b 976 1007 1000 994 993 1007 z m 864 233 b 710 76 864 124 811 76 l 307 76 b 151 233 206 76 151 124 l 151 458 b 307 617 151 569 206 617 l 710 617 b 864 458 811 617 864 569 z "},"ď":{"ha":1108,"x_min":0,"x_max":0,"o":"m 304 -7 l 660 -7 b 854 72 781 -7 817 21 l 864 72 l 864 19 b 885 0 864 6 871 0 l 933 0 b 953 19 947 0 953 6 l 953 953 b 933 972 953 967 947 972 l 883 972 b 864 953 871 972 864 967 l 864 622 l 854 622 b 660 700 817 672 781 700 l 304 700 b 63 461 144 700 63 618 l 63 231 b 304 -7 63 76 144 -7 z m 1119 972 l 1075 972 b 1057 954 1061 972 1057 968 l 1057 754 l 1015 754 b 996 736 1001 754 996 750 l 996 696 b 1015 678 996 682 1001 678 l 1103 678 b 1138 713 1126 678 1138 689 l 1138 954 b 1119 972 1138 968 1133 972 z m 307 76 b 151 233 206 76 151 124 l 151 458 b 307 617 151 569 206 617 l 710 617 b 864 458 811 617 864 569 l 864 233 b 710 76 864 124 811 76 z "},"đ":{"ha":1039,"x_min":0,"x_max":0,"o":"m 997 851 l 953 851 l 953 953 b 933 972 953 967 947 972 l 883 972 b 864 953 871 972 864 967 l 864 851 l 547 851 b 526 831 533 851 526 844 l 526 788 b 547 767 526 774 533 767 l 864 767 l 864 622 l 854 622 b 660 700 817 672 781 700 l 304 700 b 63 461 144 700 63 618 l 63 231 b 304 -7 63 76 144 -7 l 660 -7 b 854 72 781 -7 817 21 l 864 72 l 864 19 b 885 0 864 6 871 0 l 933 0 b 953 19 947 0 953 6 l 953 767 l 997 767 b 1018 788 1010 767 1018 774 l 1018 831 b 997 851 1018 844 1010 851 z m 864 233 b 710 76 864 124 811 76 l 307 76 b 151 233 206 76 151 124 l 151 458 b 307 617 151 569 206 617 l 710 617 b 864 458 811 617 864 569 z "},"e":{"ha":1013,"x_min":0,"x_max":0,"o":"m 710 700 l 303 700 b 63 463 143 700 63 619 l 63 229 b 303 -7 63 75 143 -7 l 686 -7 b 929 76 843 -7 892 26 b 929 100 938 88 940 94 l 897 117 b 867 115 885 124 876 122 b 686 76 817 82 788 76 l 307 76 b 151 233 206 76 151 124 l 151 311 l 892 311 b 950 368 935 311 950 326 l 950 461 b 710 700 950 617 868 700 z m 861 383 l 151 383 l 151 458 b 307 617 151 569 206 617 l 704 617 b 861 458 807 617 861 569 z "},"é":{"ha":1013,"x_min":0,"x_max":0,"o":"m 476 763 l 522 763 b 556 788 536 763 543 772 l 682 947 b 675 972 694 963 690 972 l 594 972 b 563 947 581 972 572 964 l 467 788 b 476 763 457 772 463 763 z m 710 700 l 303 700 b 63 463 143 700 63 619 l 63 229 b 303 -7 63 75 143 -7 l 686 -7 b 929 76 843 -7 892 26 b 929 100 938 88 940 94 l 897 117 b 867 115 885 124 876 122 b 686 76 817 82 788 76 l 307 76 b 151 233 206 76 151 124 l 151 311 l 892 311 b 950 368 935 311 950 326 l 950 461 b 710 700 950 617 868 700 z m 861 383 l 151 383 l 151 458 b 307 617 151 569 206 617 l 704 617 b 861 458 807 617 861 569 z "},"ě":{"ha":1013,"x_min":0,"x_max":0,"o":"m 440 783 b 475 765 453 769 460 765 l 529 765 b 568 783 544 765 556 768 l 714 950 b 706 972 724 961 719 972 l 654 972 b 618 951 640 972 633 969 l 511 831 l 497 831 l 390 951 b 353 972 375 969 368 972 l 303 972 b 294 950 289 972 285 961 z m 710 700 l 303 700 b 63 463 143 700 63 619 l 63 229 b 303 -7 63 75 143 -7 l 686 -7 b 929 76 843 -7 892 26 b 929 100 938 88 940 94 l 897 117 b 867 115 885 124 876 122 b 686 76 817 82 788 76 l 307 76 b 151 233 206 76 151 124 l 151 311 l 892 311 b 950 368 935 311 950 326 l 950 461 b 710 700 950 617 868 700 z m 861 383 l 151 383 l 151 458 b 307 617 151 569 206 617 l 704 617 b 861 458 807 617 861 569 z "},"ȩ":{"ha":1013,"x_min":0,"x_max":0,"o":"m 710 700 l 303 700 b 63 463 143 700 63 619 l 63 229 b 303 -7 63 75 143 -7 l 460 -7 b 411 -82 424 -42 411 -61 b 465 -129 411 -112 436 -126 b 606 -174 568 -140 606 -142 b 540 -217 606 -210 588 -217 l 511 -217 b 444 -167 461 -217 444 -201 b 431 -156 444 -160 438 -156 l 383 -156 b 371 -169 374 -156 371 -161 b 490 -279 371 -239 400 -279 l 557 -279 b 681 -175 647 -279 681 -246 b 539 -75 681 -87 621 -85 b 544 -7 500 -71 481 -65 l 686 -7 b 929 76 843 -7 892 26 b 929 100 938 88 940 94 l 897 117 b 867 115 885 124 876 122 b 686 76 817 82 788 76 l 307 76 b 151 233 206 76 151 124 l 151 311 l 892 311 b 950 368 935 311 950 326 l 950 461 b 710 700 950 617 868 700 z m 861 383 l 151 383 l 151 458 b 307 617 151 569 206 617 l 704 617 b 861 458 807 617 861 569 z "},"ê":{"ha":1013,"x_min":0,"x_max":0,"o":"m 303 765 l 353 765 b 390 786 368 765 375 768 l 497 907 l 511 907 l 618 786 b 654 765 633 768 640 765 l 706 765 b 714 788 719 765 724 776 l 568 954 b 529 972 556 969 544 972 l 475 972 b 440 954 460 972 453 968 l 294 788 b 303 765 285 776 289 765 z m 710 700 l 303 700 b 63 463 143 700 63 619 l 63 229 b 303 -7 63 75 143 -7 l 686 -7 b 929 76 843 -7 892 26 b 929 100 938 88 940 94 l 897 117 b 867 115 885 124 876 122 b 686 76 817 82 788 76 l 307 76 b 151 233 206 76 151 124 l 151 311 l 892 311 b 950 368 935 311 950 326 l 950 461 b 710 700 950 617 868 700 z m 861 383 l 151 383 l 151 458 b 307 617 151 569 206 617 l 704 617 b 861 458 807 617 861 569 z "},"ë":{"ha":1013,"x_min":0,"x_max":0,"o":"m 293 874 l 354 874 b 374 893 368 874 374 879 l 374 954 b 354 972 374 968 368 972 l 293 972 b 275 954 279 972 275 968 l 275 893 b 293 874 275 879 279 874 z m 622 874 l 683 874 b 701 893 697 874 701 879 l 701 954 b 683 972 701 968 697 972 l 622 972 b 603 954 608 972 603 968 l 603 893 b 622 874 603 879 608 874 z m 710 700 l 303 700 b 63 463 143 700 63 619 l 63 229 b 303 -7 63 75 143 -7 l 686 -7 b 929 76 843 -7 892 26 b 929 100 938 88 940 94 l 897 117 b 867 115 885 124 876 122 b 686 76 817 82 788 76 l 307 76 b 151 233 206 76 151 124 l 151 311 l 892 311 b 950 368 935 311 950 326 l 950 461 b 710 700 950 617 868 700 z m 861 383 l 151 383 l 151 458 b 307 617 151 569 206 617 l 704 617 b 861 458 807 617 861 569 z "},"ė":{"ha":1013,"x_min":0,"x_max":0,"o":"m 472 874 l 533 874 b 553 893 547 874 553 879 l 553 954 b 533 972 553 968 547 972 l 472 972 b 454 954 458 972 454 968 l 454 893 b 472 874 454 879 458 874 z m 710 700 l 303 700 b 63 463 143 700 63 619 l 63 229 b 303 -7 63 75 143 -7 l 686 -7 b 929 76 843 -7 892 26 b 929 100 938 88 940 94 l 897 117 b 867 115 885 124 876 122 b 686 76 817 82 788 76 l 307 76 b 151 233 206 76 151 124 l 151 311 l 892 311 b 950 368 935 311 950 326 l 950 461 b 710 700 950 617 868 700 z m 861 383 l 151 383 l 151 458 b 307 617 151 569 206 617 l 704 617 b 861 458 807 617 861 569 z "},"è":{"ha":1013,"x_min":0,"x_max":0,"o":"m 450 785 b 482 763 463 769 468 763 l 528 763 b 539 788 542 763 549 772 l 444 947 b 415 972 436 964 429 972 l 339 972 b 325 947 324 972 313 963 z m 710 700 l 303 700 b 63 463 143 700 63 619 l 63 229 b 303 -7 63 75 143 -7 l 686 -7 b 929 76 843 -7 892 26 b 929 100 938 88 940 94 l 897 117 b 867 115 885 124 876 122 b 686 76 817 82 788 76 l 307 76 b 151 233 206 76 151 124 l 151 311 l 892 311 b 950 368 935 311 950 326 l 950 461 b 710 700 950 617 868 700 z m 861 383 l 151 383 l 151 458 b 307 617 151 569 206 617 l 704 617 b 861 458 807 617 861 569 z "},"ē":{"ha":1013,"x_min":0,"x_max":0,"o":"m 279 888 l 729 888 b 750 908 742 888 750 894 l 750 951 b 729 972 750 965 742 972 l 279 972 b 258 951 265 972 258 965 l 258 908 b 279 888 258 894 265 888 z m 710 700 l 303 700 b 63 463 143 700 63 619 l 63 229 b 303 -7 63 75 143 -7 l 686 -7 b 929 76 843 -7 892 26 b 929 100 938 88 940 94 l 897 117 b 867 115 885 124 876 122 b 686 76 817 82 788 76 l 307 76 b 151 233 206 76 151 124 l 151 311 l 892 311 b 950 368 935 311 950 326 l 950 461 b 710 700 950 617 868 700 z m 861 383 l 151 383 l 151 458 b 307 617 151 569 206 617 l 704 617 b 861 458 807 617 861 569 z "},"ę":{"ha":1013,"x_min":0,"x_max":0,"o":"m 710 700 l 303 700 b 63 463 143 700 63 619 l 63 229 b 303 -7 63 75 143 -7 l 563 -7 l 563 -26 b 518 -67 563 -53 556 -62 l 458 -74 b 346 -174 375 -83 346 -92 b 471 -281 346 -256 372 -281 l 621 -281 b 635 -267 631 -281 635 -275 l 635 -231 b 621 -217 635 -221 629 -217 l 485 -217 b 428 -172 439 -217 428 -206 b 461 -135 428 -140 438 -137 l 583 -119 b 651 -37 635 -114 651 -97 l 651 -7 l 686 -7 b 929 76 843 -7 892 26 b 929 100 938 88 940 94 l 897 117 b 867 115 885 124 876 122 b 686 76 817 82 788 76 l 307 76 b 151 233 206 76 151 124 l 151 311 l 892 311 b 950 368 935 311 950 326 l 950 461 b 710 700 950 617 868 700 z m 861 383 l 151 383 l 151 458 b 307 617 151 569 206 617 l 704 617 b 861 458 807 617 861 569 z "},"f":{"ha":832,"x_min":0,"x_max":0,"o":"m 763 972 l 385 972 b 144 733 226 972 144 890 l 144 694 l 76 694 b 56 674 63 694 56 688 l 56 632 b 76 611 56 618 63 611 l 144 611 l 144 21 b 165 0 144 7 151 0 l 211 0 b 232 21 225 0 232 7 l 232 611 l 749 611 b 769 632 763 611 769 618 l 769 674 b 749 694 769 688 763 694 l 232 694 l 232 731 b 388 889 232 842 286 889 l 763 889 b 783 910 776 889 783 896 l 783 951 b 763 972 783 965 776 972 z "},"g":{"ha":1022,"x_min":0,"x_max":0,"o":"m 201 -251 l 713 -251 b 953 -12 871 -251 953 -169 l 953 675 b 933 694 953 689 947 694 l 883 694 b 864 675 871 694 864 689 l 864 622 l 854 622 b 660 700 817 672 781 700 l 304 700 b 63 461 144 700 63 618 l 63 231 b 304 -7 63 76 144 -7 l 660 -7 b 854 72 781 -7 817 21 l 864 72 l 864 -8 b 704 -174 864 -126 811 -174 l 201 -174 b 182 -196 188 -174 182 -181 l 182 -232 b 201 -251 182 -246 188 -251 z m 307 76 b 151 233 206 76 151 124 l 151 458 b 307 617 151 569 206 617 l 710 617 b 864 458 811 617 864 569 l 864 233 b 710 76 864 124 811 76 z "},"ğ":{"ha":1022,"x_min":0,"x_max":0,"o":"m 490 783 l 547 783 b 713 957 658 783 713 840 b 694 972 713 968 708 972 l 654 972 b 636 957 640 972 636 968 b 542 850 635 896 604 850 l 496 850 b 401 957 433 850 403 896 b 382 972 401 968 396 972 l 343 972 b 325 957 329 972 325 968 b 490 783 325 840 381 783 z m 201 -251 l 713 -251 b 953 -12 871 -251 953 -169 l 953 675 b 933 694 953 689 947 694 l 883 694 b 864 675 871 694 864 689 l 864 622 l 854 622 b 660 700 817 672 781 700 l 304 700 b 63 461 144 700 63 618 l 63 231 b 304 -7 63 76 144 -7 l 660 -7 b 854 72 781 -7 817 21 l 864 72 l 864 -8 b 704 -174 864 -126 811 -174 l 201 -174 b 182 -196 188 -174 182 -181 l 182 -232 b 201 -251 182 -246 188 -251 z m 307 76 b 151 233 206 76 151 124 l 151 458 b 307 617 151 569 206 617 l 710 617 b 864 458 811 617 864 569 l 864 233 b 710 76 864 124 811 76 z "},"ǧ":{"ha":1022,"x_min":0,"x_max":0,"o":"m 490 765 l 544 765 b 583 783 560 765 571 768 l 729 950 b 721 972 739 961 735 972 l 669 972 b 633 951 656 972 649 969 l 526 831 l 513 831 l 406 951 b 368 972 390 969 383 972 l 318 972 b 310 950 304 972 300 961 l 456 783 b 490 765 468 769 475 765 z m 201 -251 l 713 -251 b 953 -12 871 -251 953 -169 l 953 675 b 933 694 953 689 947 694 l 883 694 b 864 675 871 694 864 689 l 864 622 l 854 622 b 660 700 817 672 781 700 l 304 700 b 63 461 144 700 63 618 l 63 231 b 304 -7 63 76 144 -7 l 660 -7 b 854 72 781 -7 817 21 l 864 72 l 864 -8 b 704 -174 864 -126 811 -174 l 201 -174 b 182 -196 188 -174 182 -181 l 182 -232 b 201 -251 182 -246 188 -251 z m 307 76 b 151 233 206 76 151 124 l 151 458 b 307 617 151 569 206 617 l 710 617 b 864 458 811 617 864 569 l 864 233 b 710 76 864 124 811 76 z "},"ģ":{"ha":1036,"x_min":0,"x_max":0,"o":"m 440 807 l 485 807 b 503 826 499 807 503 813 l 503 1025 l 546 1025 b 564 1044 560 1025 564 1031 l 564 1083 b 546 1101 564 1097 560 1101 l 457 1101 b 422 1067 433 1101 422 1092 l 422 826 b 440 807 422 813 426 807 z m 201 -251 l 713 -251 b 953 -12 871 -251 953 -169 l 953 675 b 933 694 953 689 947 694 l 883 694 b 864 675 871 694 864 689 l 864 622 l 854 622 b 660 700 817 672 781 700 l 304 700 b 63 461 144 700 63 618 l 63 231 b 304 -7 63 76 144 -7 l 660 -7 b 854 72 781 -7 817 21 l 864 72 l 864 -8 b 704 -174 864 -126 811 -174 l 201 -174 b 182 -196 188 -174 182 -181 l 182 -232 b 201 -251 182 -246 188 -251 z m 307 76 b 151 233 206 76 151 124 l 151 458 b 307 617 151 569 206 617 l 710 617 b 864 458 811 617 864 569 l 864 233 b 710 76 864 124 811 76 z "},"ġ":{"ha":1022,"x_min":0,"x_max":0,"o":"m 488 874 l 549 874 b 568 893 563 874 568 879 l 568 954 b 549 972 568 968 563 972 l 488 972 b 469 954 474 972 469 968 l 469 893 b 488 874 469 879 474 874 z m 201 -251 l 713 -251 b 953 -12 871 -251 953 -169 l 953 675 b 933 694 953 689 947 694 l 883 694 b 864 675 871 694 864 689 l 864 622 l 854 622 b 660 700 817 672 781 700 l 304 700 b 63 461 144 700 63 618 l 63 231 b 304 -7 63 76 144 -7 l 660 -7 b 854 72 781 -7 817 21 l 864 72 l 864 -8 b 704 -174 864 -126 811 -174 l 201 -174 b 182 -196 188 -174 182 -181 l 182 -232 b 201 -251 182 -246 188 -251 z m 307 76 b 151 233 206 76 151 124 l 151 458 b 307 617 151 569 206 617 l 710 617 b 864 458 811 617 864 569 l 864 233 b 710 76 864 124 811 76 z "},"h":{"ha":1029,"x_min":0,"x_max":0,"o":"m 719 700 l 363 700 b 168 622 242 700 206 672 l 158 622 l 158 953 b 139 972 158 967 153 972 l 89 972 b 69 953 75 972 69 967 l 69 19 b 89 0 69 6 75 0 l 139 0 b 158 19 153 0 158 6 l 158 458 b 314 617 158 569 211 617 l 715 617 b 871 458 818 617 871 569 l 871 19 b 892 0 871 6 878 0 l 940 0 b 960 19 954 0 960 6 l 960 461 b 719 700 960 618 878 700 z "},"ħ":{"ha":1071,"x_min":0,"x_max":0,"o":"m 761 700 l 404 700 b 210 622 283 700 247 672 l 200 622 l 200 772 l 407 772 b 428 793 421 772 428 779 l 428 826 b 407 847 428 840 421 847 l 200 847 l 200 953 b 181 972 200 967 194 972 l 131 972 b 111 953 117 972 111 967 l 111 847 l 63 847 b 42 826 49 847 42 840 l 42 793 b 63 772 42 779 49 772 l 111 772 l 111 19 b 131 0 111 6 117 0 l 181 0 b 200 19 194 0 200 6 l 200 458 b 356 617 200 569 253 617 l 757 617 b 913 458 860 617 913 569 l 913 19 b 933 0 913 6 919 0 l 982 0 b 1001 19 996 0 1001 6 l 1001 461 b 761 700 1001 618 919 700 z "},"i":{"ha":228,"x_min":0,"x_max":0,"o":"m 69 953 l 69 904 b 89 883 69 890 75 883 l 139 883 b 158 904 153 883 158 890 l 158 953 b 139 972 158 967 153 972 l 89 972 b 69 953 75 972 69 967 z m 69 675 l 69 19 b 89 0 69 6 75 0 l 139 0 b 158 19 153 0 158 6 l 158 675 b 139 694 158 689 153 694 l 89 694 b 69 675 75 694 69 689 z "},"ı":{"ha":228,"x_min":0,"x_max":0,"o":"m 69 675 l 69 19 b 89 0 69 6 75 0 l 139 0 b 158 19 153 0 158 6 l 158 675 b 139 694 158 689 153 694 l 89 694 b 69 675 75 694 69 689 z "},"í":{"ha":228,"x_min":0,"x_max":0,"o":"m 172 947 l 76 788 b 86 763 67 772 72 763 l 132 763 b 165 788 146 763 153 772 l 292 947 b 285 972 304 963 300 972 l 204 972 b 172 947 190 972 182 964 z m 69 675 l 69 19 b 89 0 69 6 75 0 l 139 0 b 158 19 153 0 158 6 l 158 675 b 139 694 158 689 153 694 l 89 694 b 69 675 75 694 69 689 z "},"ǐ":{"ha":228,"x_min":0,"x_max":0,"o":"m 85 765 l 139 765 b 178 783 154 765 165 768 l 324 950 b 315 972 333 961 329 972 l 264 972 b 228 951 250 972 243 969 l 121 831 l 107 831 l 0 951 b -37 972 -15 969 -22 972 l -87 972 b -96 950 -101 972 -106 961 l 50 783 b 85 765 63 769 69 765 z m 69 675 l 69 19 b 89 0 69 6 75 0 l 139 0 b 158 19 153 0 158 6 l 158 675 b 139 694 158 689 153 694 l 89 694 b 69 675 75 694 69 689 z "},"î":{"ha":228,"x_min":0,"x_max":0,"o":"m 85 972 b 50 954 69 972 63 968 l -96 788 b -87 765 -106 776 -101 765 l -37 765 b 0 786 -22 765 -15 768 l 107 907 l 121 907 l 228 786 b 264 765 243 768 250 765 l 315 765 b 324 788 329 765 333 776 l 178 954 b 139 972 165 969 154 972 z m 69 675 l 69 19 b 89 0 69 6 75 0 l 139 0 b 158 19 153 0 158 6 l 158 675 b 139 694 158 689 153 694 l 89 694 b 69 675 75 694 69 689 z "},"ï":{"ha":228,"x_min":0,"x_max":0,"o":"m -97 874 l -36 874 b -17 893 -22 874 -17 879 l -17 954 b -36 972 -17 968 -22 972 l -97 972 b -115 954 -111 972 -115 968 l -115 893 b -97 874 -115 879 -111 874 z m 232 874 l 293 874 b 311 893 307 874 311 879 l 311 954 b 293 972 311 968 307 972 l 232 972 b 213 954 218 972 213 968 l 213 893 b 232 874 213 879 218 874 z m 69 675 l 69 19 b 89 0 69 6 75 0 l 139 0 b 158 19 153 0 158 6 l 158 675 b 139 694 158 689 153 694 l 89 694 b 69 675 75 694 69 689 z "},"ì":{"ha":228,"x_min":0,"x_max":0,"o":"m 54 947 b 25 972 46 964 39 972 l -51 972 b -65 947 -67 972 -78 963 l 60 785 b 92 763 72 769 78 763 l 138 763 b 149 788 151 763 158 772 z m 69 675 l 69 19 b 89 0 69 6 75 0 l 139 0 b 158 19 153 0 158 6 l 158 675 b 139 694 158 689 153 694 l 89 694 b 69 675 75 694 69 689 z "},"ĳ":{"ha":492,"x_min":0,"x_max":0,"o":"m 69 953 l 69 904 b 89 883 69 890 75 883 l 139 883 b 158 904 153 883 158 890 l 158 953 b 139 972 158 967 153 972 l 89 972 b 69 953 75 972 69 967 z m 354 883 l 403 883 b 424 904 417 883 424 890 l 424 953 b 403 972 424 967 417 972 l 354 972 b 335 953 340 972 335 967 l 335 904 b 354 883 335 890 340 883 z m 69 675 l 69 19 b 89 0 69 6 75 0 l 139 0 b 158 19 153 0 158 6 l 158 675 b 139 694 158 689 153 694 l 89 694 b 69 675 75 694 69 689 z m 189 -251 b 424 -12 342 -251 424 -169 l 424 675 b 403 694 424 689 417 694 l 354 694 b 335 675 340 694 335 689 l 335 -7 b 181 -169 335 -121 282 -169 l 118 -169 b 103 -183 110 -169 103 -174 l 103 -229 b 121 -247 103 -239 108 -246 b 189 -251 144 -250 164 -251 z "},"ī":{"ha":228,"x_min":0,"x_max":0,"o":"m -111 888 l 339 888 b 360 908 351 888 360 894 l 360 951 b 339 972 360 965 351 972 l -111 972 b -132 951 -125 972 -132 965 l -132 908 b -111 888 -132 894 -125 888 z m 69 675 l 69 19 b 89 0 69 6 75 0 l 139 0 b 158 19 153 0 158 6 l 158 675 b 139 694 158 689 153 694 l 89 694 b 69 675 75 694 69 689 z "},"į":{"ha":228,"x_min":0,"x_max":0,"o":"m 143 972 l 82 972 b 64 954 68 972 64 968 l 64 893 b 82 874 64 879 68 874 l 143 874 b 163 893 157 874 163 879 l 163 954 b 143 972 163 968 157 972 z m 139 694 l 89 694 b 69 675 75 694 69 689 l 69 -26 b 25 -67 69 -53 63 -62 l -35 -74 b -147 -174 -118 -83 -147 -92 b -22 -281 -147 -256 -121 -281 l 128 -281 b 142 -267 138 -281 142 -275 l 142 -231 b 128 -217 142 -221 136 -217 l -8 -217 b -65 -172 -54 -217 -65 -206 b -32 -135 -65 -140 -56 -137 l 90 -119 b 158 -37 142 -114 158 -97 l 158 675 b 139 694 158 689 153 694 z "},"j":{"ha":238,"x_min":0,"x_max":0,"o":"m 99 883 l 147 883 b 168 904 161 883 168 890 l 168 953 b 147 972 168 967 161 972 l 99 972 b 79 953 85 972 79 967 l 79 904 b 99 883 79 890 85 883 z m -67 -251 b 168 -12 86 -251 168 -169 l 168 675 b 147 694 168 689 161 694 l 99 694 b 79 675 85 694 79 689 l 79 -7 b -75 -169 79 -121 26 -169 l -137 -169 b -153 -183 -147 -169 -153 -174 l -153 -229 b -135 -247 -153 -239 -147 -246 b -67 -251 -111 -250 -92 -251 z "},"ȷ":{"ha":238,"x_min":0,"x_max":0,"o":"m -67 -251 b 168 -12 86 -251 168 -169 l 168 675 b 147 694 168 689 161 694 l 99 694 b 79 675 85 694 79 689 l 79 -7 b -75 -169 79 -121 26 -169 l -137 -169 b -153 -183 -147 -169 -153 -174 l -153 -229 b -135 -247 -153 -239 -147 -246 b -67 -251 -111 -250 -92 -251 z "},"k":{"ha":992,"x_min":0,"x_max":0,"o":"m 942 28 l 442 388 l 922 665 b 915 694 939 675 932 694 l 839 694 b 797 679 822 694 811 688 l 158 306 l 158 953 b 139 972 158 967 153 972 l 89 972 b 69 953 75 972 69 967 l 69 19 b 89 0 69 6 75 0 l 139 0 b 158 19 153 0 158 6 l 158 224 l 371 347 l 825 18 b 871 0 839 8 853 0 l 933 0 b 942 28 951 0 956 18 z "},"ķ":{"ha":992,"x_min":0,"x_max":0,"o":"m 942 28 l 442 388 l 922 665 b 915 694 939 675 932 694 l 839 694 b 797 679 822 694 811 688 l 158 306 l 158 953 b 139 972 158 967 153 972 l 89 972 b 69 953 75 972 69 967 l 69 19 b 89 0 69 6 75 0 l 139 0 b 158 19 153 0 158 6 l 158 224 l 371 347 l 825 18 b 871 0 839 8 853 0 l 933 0 b 942 28 951 0 956 18 z m 488 -83 l 444 -83 b 426 -101 431 -83 426 -87 l 426 -301 l 383 -301 b 365 -319 369 -301 365 -306 l 365 -360 b 383 -378 365 -374 369 -378 l 471 -378 b 507 -343 496 -378 507 -367 l 507 -101 b 488 -83 507 -87 501 -83 z "},"l":{"ha":228,"x_min":0,"x_max":0,"o":"m 69 953 l 69 19 b 89 0 69 6 75 0 l 139 0 b 158 19 153 0 158 6 l 158 953 b 139 972 158 967 153 972 l 89 972 b 69 953 75 972 69 967 z "},"ĺ":{"ha":228,"x_min":0,"x_max":0,"o":"m 172 1225 l 76 1065 b 86 1040 67 1050 72 1040 l 132 1040 b 165 1065 146 1040 153 1050 l 292 1225 b 285 1250 304 1240 300 1250 l 204 1250 b 172 1225 190 1250 182 1242 z m 69 953 l 69 19 b 89 0 69 6 75 0 l 139 0 b 158 19 153 0 158 6 l 158 953 b 139 972 158 967 153 972 l 89 972 b 69 953 75 972 69 967 z "},"ľ":{"ha":289,"x_min":0,"x_max":0,"o":"m 69 953 l 69 19 b 89 0 69 6 75 0 l 139 0 b 158 19 153 0 158 6 l 158 953 b 139 972 158 967 153 972 l 89 972 b 69 953 75 972 69 967 z m 326 972 l 282 972 b 264 954 268 972 264 968 l 264 754 l 222 754 b 204 736 208 754 204 750 l 204 696 b 222 678 204 682 208 678 l 310 678 b 344 713 335 678 344 689 l 344 954 b 326 972 344 968 340 972 z "},"ļ":{"ha":228,"x_min":0,"x_max":0,"o":"m 69 953 l 69 19 b 89 0 69 6 75 0 l 139 0 b 158 19 153 0 158 6 l 158 953 b 139 972 158 967 153 972 l 89 972 b 69 953 75 972 69 967 z m 133 -83 l 90 -83 b 72 -101 76 -83 72 -87 l 72 -301 l 29 -301 b 11 -319 15 -301 11 -306 l 11 -360 b 29 -378 11 -374 15 -378 l 117 -378 b 153 -343 142 -378 153 -367 l 153 -101 b 133 -83 153 -87 147 -83 z "},"ŀ":{"ha":301,"x_min":0,"x_max":0,"o":"m 69 953 l 69 19 b 89 0 69 6 75 0 l 139 0 b 158 19 153 0 158 6 l 158 953 b 139 972 158 967 153 972 l 89 972 b 69 953 75 972 69 967 z m 243 438 l 304 438 b 322 456 318 438 322 442 l 322 518 b 304 536 322 532 318 536 l 243 536 b 224 518 229 536 224 532 l 224 456 b 243 438 224 442 229 438 z "},"ł":{"ha":300,"x_min":0,"x_max":0,"o":"m 289 622 l 244 622 b 211 599 233 622 229 618 l 194 581 l 194 953 b 175 972 194 967 189 972 l 126 972 b 107 953 113 972 107 967 l 107 489 l -1 374 b 11 349 -12 361 -6 349 l 56 349 b 90 372 67 349 74 356 l 107 390 l 107 19 b 126 0 107 6 113 0 l 175 0 b 194 19 189 0 194 6 l 194 483 l 300 597 b 289 622 313 610 306 622 z "},"m":{"ha":1622,"x_min":0,"x_max":0,"o":"m 1311 700 l 1046 700 b 833 608 924 700 867 667 l 819 608 b 614 700 781 669 713 700 l 363 700 b 168 622 242 700 206 672 l 158 622 l 158 675 b 139 694 158 689 153 694 l 89 694 b 69 675 75 694 69 689 l 69 19 b 89 0 69 6 75 0 l 139 0 b 158 19 153 0 158 6 l 158 458 b 314 617 158 569 211 617 l 611 617 b 767 458 713 617 767 569 l 767 19 b 786 0 767 6 772 0 l 836 0 b 856 19 850 0 856 6 l 856 458 b 1011 617 856 569 908 617 l 1308 617 b 1464 458 1410 617 1464 569 l 1464 19 b 1483 0 1464 6 1469 0 l 1533 0 b 1553 19 1547 0 1553 6 l 1553 461 b 1311 700 1553 618 1471 700 z "},"ḿ":{"ha":1622,"x_min":0,"x_max":0,"o":"m 783 763 l 829 763 b 863 788 843 763 850 772 l 989 947 b 982 972 1001 963 997 972 l 901 972 b 869 947 888 972 879 964 l 774 788 b 783 763 764 772 769 763 z m 1311 700 l 1046 700 b 833 608 924 700 867 667 l 819 608 b 614 700 781 669 713 700 l 363 700 b 168 622 242 700 206 672 l 158 622 l 158 675 b 139 694 158 689 153 694 l 89 694 b 69 675 75 694 69 689 l 69 19 b 89 0 69 6 75 0 l 139 0 b 158 19 153 0 158 6 l 158 458 b 314 617 158 569 211 617 l 611 617 b 767 458 713 617 767 569 l 767 19 b 786 0 767 6 772 0 l 836 0 b 856 19 850 0 856 6 l 856 458 b 1011 617 856 569 908 617 l 1308 617 b 1464 458 1410 617 1464 569 l 1464 19 b 1483 0 1464 6 1469 0 l 1533 0 b 1553 19 1547 0 1553 6 l 1553 461 b 1311 700 1553 618 1471 700 z "},"n":{"ha":1029,"x_min":0,"x_max":0,"o":"m 89 0 l 139 0 b 158 19 153 0 158 6 l 158 458 b 314 617 158 569 211 617 l 715 617 b 871 458 818 617 871 569 l 871 19 b 892 0 871 6 878 0 l 940 0 b 960 19 954 0 960 6 l 960 461 b 719 700 960 618 878 700 l 363 700 b 168 622 242 700 206 672 l 158 622 l 158 675 b 139 694 158 689 153 694 l 89 694 b 69 675 75 694 69 689 l 69 19 b 89 0 69 6 75 0 z "},"ń":{"ha":1029,"x_min":0,"x_max":0,"o":"m 574 947 l 478 788 b 488 763 468 772 474 763 l 533 763 b 567 788 547 763 554 772 l 693 947 b 686 972 706 963 701 972 l 606 972 b 574 947 592 972 583 964 z m 89 0 l 139 0 b 158 19 153 0 158 6 l 158 458 b 314 617 158 569 211 617 l 715 617 b 871 458 818 617 871 569 l 871 19 b 892 0 871 6 878 0 l 940 0 b 960 19 954 0 960 6 l 960 461 b 719 700 960 618 878 700 l 363 700 b 168 622 242 700 206 672 l 158 622 l 158 675 b 139 694 158 689 153 694 l 89 694 b 69 675 75 694 69 689 l 69 19 b 89 0 69 6 75 0 z "},"ň":{"ha":1029,"x_min":0,"x_max":0,"o":"m 486 765 l 540 765 b 579 783 556 765 567 768 l 725 950 b 717 972 735 961 731 972 l 665 972 b 629 951 651 972 644 969 l 522 831 l 508 831 l 401 951 b 364 972 386 969 379 972 l 314 972 b 306 950 300 972 296 961 l 451 783 b 486 765 464 769 471 765 z m 89 0 l 139 0 b 158 19 153 0 158 6 l 158 458 b 314 617 158 569 211 617 l 715 617 b 871 458 818 617 871 569 l 871 19 b 892 0 871 6 878 0 l 940 0 b 960 19 954 0 960 6 l 960 461 b 719 700 960 618 878 700 l 363 700 b 168 622 242 700 206 672 l 158 622 l 158 675 b 139 694 158 689 153 694 l 89 694 b 69 675 75 694 69 689 l 69 19 b 89 0 69 6 75 0 z "},"ņ":{"ha":1029,"x_min":0,"x_max":0,"o":"m 89 0 l 139 0 b 158 19 153 0 158 6 l 158 458 b 314 617 158 569 211 617 l 715 617 b 871 458 818 617 871 569 l 871 19 b 892 0 871 6 878 0 l 940 0 b 960 19 954 0 960 6 l 960 461 b 719 700 960 618 878 700 l 363 700 b 168 622 242 700 206 672 l 158 622 l 158 675 b 139 694 158 689 153 694 l 89 694 b 69 675 75 694 69 689 l 69 19 b 89 0 69 6 75 0 z m 535 -83 l 492 -83 b 474 -101 478 -83 474 -87 l 474 -301 l 431 -301 b 413 -319 417 -301 413 -306 l 413 -360 b 431 -378 413 -374 417 -378 l 518 -378 b 554 -343 543 -378 554 -367 l 554 -101 b 535 -83 554 -87 549 -83 z "},"ŋ":{"ha":1029,"x_min":0,"x_max":0,"o":"m 719 700 l 363 700 b 168 622 242 700 206 672 l 158 622 l 158 675 b 139 694 158 689 153 694 l 89 694 b 69 675 75 694 69 689 l 69 19 b 89 0 69 6 75 0 l 139 0 b 158 19 153 0 158 6 l 158 458 b 314 617 158 569 211 617 l 715 617 b 871 458 818 617 871 569 l 871 -33 b 718 -196 871 -147 819 -196 l 656 -196 b 640 -210 646 -196 640 -200 l 640 -256 b 658 -274 640 -265 646 -272 b 726 -278 682 -276 701 -278 b 960 -39 879 -278 960 -196 l 960 461 b 719 700 960 618 878 700 z "},"ñ":{"ha":1029,"x_min":0,"x_max":0,"o":"m 615 835 b 731 871 654 835 692 847 b 740 894 742 879 744 886 l 722 935 b 701 940 718 944 713 947 b 619 914 669 919 647 914 b 414 979 539 914 504 979 b 297 942 374 979 336 967 b 288 919 286 935 283 928 l 306 879 b 328 874 310 869 317 867 b 408 900 360 893 381 900 b 615 835 489 900 524 835 z m 89 0 l 139 0 b 158 19 153 0 158 6 l 158 458 b 314 617 158 569 211 617 l 715 617 b 871 458 818 617 871 569 l 871 19 b 892 0 871 6 878 0 l 940 0 b 960 19 954 0 960 6 l 960 461 b 719 700 960 618 878 700 l 363 700 b 168 622 242 700 206 672 l 158 622 l 158 675 b 139 694 158 689 153 694 l 89 694 b 69 675 75 694 69 689 l 69 19 b 89 0 69 6 75 0 z "},"o":{"ha":1015,"x_min":0,"x_max":0,"o":"m 303 -7 l 713 -7 b 953 229 872 -7 953 75 l 953 463 b 713 700 953 619 872 700 l 303 700 b 63 463 143 700 63 619 l 63 229 b 303 -7 63 75 143 -7 z m 307 76 b 151 233 206 76 151 124 l 151 458 b 307 617 151 569 206 617 l 708 617 b 864 458 811 617 864 569 l 864 233 b 708 76 864 124 811 76 z "},"ó":{"ha":1015,"x_min":0,"x_max":0,"o":"m 565 947 l 469 788 b 479 763 460 772 465 763 l 525 763 b 558 788 539 763 546 772 l 685 947 b 678 972 697 963 693 972 l 597 972 b 565 947 583 972 575 964 z m 303 -7 l 713 -7 b 953 229 872 -7 953 75 l 953 463 b 713 700 953 619 872 700 l 303 700 b 63 463 143 700 63 619 l 63 229 b 303 -7 63 75 143 -7 z m 307 76 b 151 233 206 76 151 124 l 151 458 b 307 617 151 569 206 617 l 708 617 b 864 458 811 617 864 569 l 864 233 b 708 76 864 124 811 76 z "},"ǒ":{"ha":1015,"x_min":0,"x_max":0,"o":"m 478 765 l 532 765 b 571 783 547 765 558 768 l 717 950 b 708 972 726 961 722 972 l 657 972 b 621 951 643 972 636 969 l 514 831 l 500 831 l 393 951 b 356 972 378 969 371 972 l 306 972 b 297 950 292 972 288 961 l 443 783 b 478 765 456 769 463 765 z m 303 -7 l 713 -7 b 953 229 872 -7 953 75 l 953 463 b 713 700 953 619 872 700 l 303 700 b 63 463 143 700 63 619 l 63 229 b 303 -7 63 75 143 -7 z m 307 76 b 151 233 206 76 151 124 l 151 458 b 307 617 151 569 206 617 l 708 617 b 864 458 811 617 864 569 l 864 233 b 708 76 864 124 811 76 z "},"ô":{"ha":1015,"x_min":0,"x_max":0,"o":"m 478 972 b 443 954 463 972 456 968 l 297 788 b 306 765 288 776 292 765 l 356 765 b 393 786 371 765 378 768 l 500 907 l 514 907 l 621 786 b 657 765 636 768 643 765 l 708 765 b 717 788 722 765 726 776 l 571 954 b 532 972 558 969 547 972 z m 303 -7 l 713 -7 b 953 229 872 -7 953 75 l 953 463 b 713 700 953 619 872 700 l 303 700 b 63 463 143 700 63 619 l 63 229 b 303 -7 63 75 143 -7 z m 307 76 b 151 233 206 76 151 124 l 151 458 b 307 617 151 569 206 617 l 708 617 b 864 458 811 617 864 569 l 864 233 b 708 76 864 124 811 76 z "},"ö":{"ha":1015,"x_min":0,"x_max":0,"o":"m 296 874 l 357 874 b 376 893 371 874 376 879 l 376 954 b 357 972 376 968 371 972 l 296 972 b 278 954 282 972 278 968 l 278 893 b 296 874 278 879 282 874 z m 625 874 l 686 874 b 704 893 700 874 704 879 l 704 954 b 686 972 704 968 700 972 l 625 972 b 606 954 611 972 606 968 l 606 893 b 625 874 606 879 611 874 z m 303 -7 l 713 -7 b 953 229 872 -7 953 75 l 953 463 b 713 700 953 619 872 700 l 303 700 b 63 463 143 700 63 619 l 63 229 b 303 -7 63 75 143 -7 z m 307 76 b 151 233 206 76 151 124 l 151 458 b 307 617 151 569 206 617 l 708 617 b 864 458 811 617 864 569 l 864 233 b 708 76 864 124 811 76 z "},"ò":{"ha":1015,"x_min":0,"x_max":0,"o":"m 447 947 b 418 972 439 964 432 972 l 342 972 b 328 947 326 972 315 963 l 453 785 b 485 763 465 769 471 763 l 531 763 b 542 788 544 763 551 772 z m 303 -7 l 713 -7 b 953 229 872 -7 953 75 l 953 463 b 713 700 953 619 872 700 l 303 700 b 63 463 143 700 63 619 l 63 229 b 303 -7 63 75 143 -7 z m 307 76 b 151 233 206 76 151 124 l 151 458 b 307 617 151 569 206 617 l 708 617 b 864 458 811 617 864 569 l 864 233 b 708 76 864 124 811 76 z "},"ő":{"ha":1015,"x_min":0,"x_max":0,"o":"m 475 947 l 379 788 b 389 763 369 772 375 763 l 435 763 b 468 788 449 763 456 772 l 594 947 b 588 972 607 963 603 972 l 507 972 b 475 947 493 972 485 964 z m 663 947 l 567 788 b 576 763 557 772 563 763 l 622 763 b 656 788 636 763 643 772 l 781 947 b 774 972 793 963 789 972 l 694 972 b 663 947 681 972 672 964 z m 303 -7 l 713 -7 b 953 229 872 -7 953 75 l 953 463 b 713 700 953 619 872 700 l 303 700 b 63 463 143 700 63 619 l 63 229 b 303 -7 63 75 143 -7 z m 307 76 b 151 233 206 76 151 124 l 151 458 b 307 617 151 569 206 617 l 708 617 b 864 458 811 617 864 569 l 864 233 b 708 76 864 124 811 76 z "},"ō":{"ha":1015,"x_min":0,"x_max":0,"o":"m 282 888 l 732 888 b 753 908 744 888 753 894 l 753 951 b 732 972 753 965 744 972 l 282 972 b 261 951 268 972 261 965 l 261 908 b 282 888 261 894 268 888 z m 303 -7 l 713 -7 b 953 229 872 -7 953 75 l 953 463 b 713 700 953 619 872 700 l 303 700 b 63 463 143 700 63 619 l 63 229 b 303 -7 63 75 143 -7 z m 307 76 b 151 233 206 76 151 124 l 151 458 b 307 617 151 569 206 617 l 708 617 b 864 458 811 617 864 569 l 864 233 b 708 76 864 124 811 76 z "},"ø":{"ha":1015,"x_min":0,"x_max":0,"o":"m 713 700 l 699 700 l 706 718 b 692 739 711 732 706 739 l 649 739 b 621 718 635 739 626 732 l 614 700 l 303 700 b 63 463 143 700 63 619 l 63 229 b 303 -7 63 75 143 -7 l 319 -7 l 313 -25 b 326 -46 307 -39 313 -46 l 369 -46 b 397 -25 383 -46 392 -39 l 404 -7 l 713 -7 b 953 229 872 -7 953 75 l 953 463 b 713 700 953 619 872 700 z m 307 76 b 151 233 206 76 151 124 l 151 458 b 307 617 151 569 206 617 l 579 617 l 354 76 z m 864 233 b 708 76 864 124 811 76 l 439 76 l 664 617 l 708 617 b 864 458 811 617 864 569 z "},"õ":{"ha":1015,"x_min":0,"x_max":0,"o":"m 608 835 b 724 871 647 835 685 847 b 733 894 735 879 738 886 l 715 935 b 694 940 711 944 706 947 b 613 914 663 919 640 914 b 407 979 532 914 497 979 b 290 942 367 979 329 967 b 281 919 279 935 276 928 l 299 879 b 321 874 303 869 310 867 b 401 900 353 893 374 900 b 608 835 482 900 517 835 z m 303 -7 l 713 -7 b 953 229 872 -7 953 75 l 953 463 b 713 700 953 619 872 700 l 303 700 b 63 463 143 700 63 619 l 63 229 b 303 -7 63 75 143 -7 z m 307 76 b 151 233 206 76 151 124 l 151 458 b 307 617 151 569 206 617 l 708 617 b 864 458 811 617 864 569 l 864 233 b 708 76 864 124 811 76 z "},"œ":{"ha":1814,"x_min":0,"x_max":0,"o":"m 1511 700 l 1104 700 b 908 622 1014 700 949 674 b 713 700 869 674 804 700 l 303 700 b 63 463 143 700 63 619 l 63 229 b 303 -7 63 75 143 -7 l 713 -7 b 908 72 804 -7 869 19 b 1104 -7 949 19 1014 -7 l 1489 -7 b 1731 76 1646 -7 1694 26 b 1732 100 1739 88 1742 94 l 1699 117 b 1668 115 1686 124 1679 122 b 1488 76 1618 82 1589 76 l 1110 76 b 953 233 1007 76 953 124 l 953 311 l 1693 311 b 1751 368 1736 311 1751 326 l 1751 461 b 1511 700 1751 617 1671 700 z m 708 76 l 307 76 b 151 233 206 76 151 124 l 151 458 b 307 617 151 569 206 617 l 708 617 b 864 458 811 617 864 569 l 864 233 b 708 76 864 124 811 76 z m 1663 383 l 953 383 l 953 458 b 1110 617 953 569 1007 617 l 1507 617 b 1663 458 1608 617 1663 569 z "},"p":{"ha":1024,"x_min":0,"x_max":0,"o":"m 139 -246 b 158 -226 153 -246 158 -240 l 158 72 l 168 72 b 363 -7 206 21 242 -7 l 719 -7 b 960 232 878 -7 960 75 l 960 463 b 719 700 960 618 878 700 l 363 700 b 168 622 242 700 206 672 l 158 622 l 158 675 b 139 694 158 689 153 694 l 89 694 b 69 675 75 694 69 689 l 69 -226 b 89 -246 69 -240 75 -246 z m 715 76 l 313 76 b 158 235 211 76 158 124 l 158 460 b 313 617 158 569 211 617 l 715 617 b 871 460 818 617 871 569 l 871 235 b 715 76 871 124 818 76 z "},"þ":{"ha":1022,"x_min":0,"x_max":0,"o":"m 715 700 l 335 700 b 158 604 240 700 186 665 l 158 988 b 138 1008 158 1001 151 1008 l 90 1008 b 69 988 76 1008 69 1001 l 69 -257 b 90 -278 69 -271 76 -278 l 138 -278 b 158 -257 151 -278 158 -271 l 158 96 b 335 -7 186 35 240 -7 l 715 -7 b 960 247 861 -7 960 94 l 960 447 b 715 700 960 603 861 700 z m 871 239 b 714 76 871 133 814 76 l 317 76 b 158 239 215 76 158 133 l 158 450 b 317 617 158 563 215 617 l 714 617 b 871 450 814 617 871 563 z "},"q":{"ha":1022,"x_min":0,"x_max":0,"o":"m 883 -246 l 933 -246 b 953 -226 947 -246 953 -240 l 953 675 b 933 694 953 689 947 694 l 885 694 b 864 675 871 694 864 689 l 864 622 l 854 622 b 660 700 817 672 781 700 l 304 700 b 63 463 144 700 63 618 l 63 232 b 304 -7 63 75 144 -7 l 660 -7 b 854 72 781 -7 817 21 l 864 72 l 864 -226 b 883 -246 864 -240 871 -246 z m 307 76 b 151 235 206 76 151 124 l 151 460 b 307 617 151 569 206 617 l 710 617 b 864 460 811 617 864 569 l 864 235 b 710 76 864 124 811 76 z "},"r":{"ha":1003,"x_min":0,"x_max":0,"o":"m 89 0 l 139 0 b 158 19 153 0 158 6 l 158 458 b 314 617 158 569 211 617 l 710 617 b 857 525 814 617 850 590 b 881 507 858 513 864 507 l 922 507 b 946 536 940 507 946 514 b 724 700 946 640 882 700 l 363 700 b 168 622 242 700 206 672 l 158 622 l 158 675 b 139 694 158 689 153 694 l 89 694 b 69 675 75 694 69 689 l 69 19 b 89 0 69 6 75 0 z "},"ŕ":{"ha":1003,"x_min":0,"x_max":0,"o":"m 567 947 l 471 788 b 481 763 461 772 467 763 l 526 763 b 560 788 540 763 547 772 l 686 947 b 679 972 699 963 694 972 l 599 972 b 567 947 585 972 576 964 z m 89 0 l 139 0 b 158 19 153 0 158 6 l 158 458 b 314 617 158 569 211 617 l 710 617 b 857 525 814 617 850 590 b 881 507 858 513 864 507 l 922 507 b 946 536 940 507 946 514 b 724 700 946 640 882 700 l 363 700 b 168 622 242 700 206 672 l 158 622 l 158 675 b 139 694 158 689 153 694 l 89 694 b 69 675 75 694 69 689 l 69 19 b 89 0 69 6 75 0 z "},"ř":{"ha":1003,"x_min":0,"x_max":0,"o":"m 479 765 l 533 765 b 572 783 549 765 560 768 l 718 950 b 710 972 728 961 724 972 l 658 972 b 622 951 644 972 638 969 l 515 831 l 501 831 l 394 951 b 357 972 379 969 372 972 l 307 972 b 299 950 293 972 289 961 l 444 783 b 479 765 457 769 464 765 z m 89 0 l 139 0 b 158 19 153 0 158 6 l 158 458 b 314 617 158 569 211 617 l 710 617 b 857 525 814 617 850 590 b 881 507 858 513 864 507 l 922 507 b 946 536 940 507 946 514 b 724 700 946 640 882 700 l 363 700 b 168 622 242 700 206 672 l 158 622 l 158 675 b 139 694 158 689 153 694 l 89 694 b 69 675 75 694 69 689 l 69 19 b 89 0 69 6 75 0 z "},"ŗ":{"ha":1003,"x_min":0,"x_max":0,"o":"m 89 0 l 139 0 b 158 19 153 0 158 6 l 158 458 b 314 617 158 569 211 617 l 710 617 b 857 525 814 617 850 590 b 881 507 858 513 864 507 l 922 507 b 946 536 940 507 946 514 b 724 700 946 640 882 700 l 363 700 b 168 622 242 700 206 672 l 158 622 l 158 675 b 139 694 158 689 153 694 l 89 694 b 69 675 75 694 69 689 l 69 19 b 89 0 69 6 75 0 z m 139 -83 l 96 -83 b 78 -101 82 -83 78 -87 l 78 -301 l 35 -301 b 17 -319 21 -301 17 -306 l 17 -360 b 35 -378 17 -374 21 -378 l 122 -378 b 158 -343 147 -378 158 -367 l 158 -101 b 139 -83 158 -87 153 -83 z "},"s":{"ha":1017,"x_min":0,"x_max":0,"o":"m 286 0 l 726 0 b 954 188 864 0 954 57 b 729 376 954 319 876 371 l 292 394 b 154 510 200 399 154 425 b 294 614 154 588 208 614 l 694 614 b 842 519 799 614 835 583 b 865 500 843 507 850 500 l 907 500 b 931 529 925 500 931 508 b 707 694 931 633 865 694 l 293 694 b 65 510 154 694 65 638 b 289 319 65 378 142 325 l 726 301 b 865 188 819 297 865 272 b 724 81 865 107 810 81 l 299 81 b 151 175 194 81 158 111 b 128 194 150 189 144 194 l 86 194 b 63 165 68 194 63 186 b 286 0 63 61 128 0 z "},"ś":{"ha":1017,"x_min":0,"x_max":0,"o":"m 567 947 l 471 788 b 481 763 461 772 467 763 l 526 763 b 560 788 540 763 547 772 l 686 947 b 679 972 699 963 694 972 l 599 972 b 567 947 585 972 576 964 z m 286 0 l 726 0 b 954 188 864 0 954 57 b 729 376 954 319 876 371 l 292 394 b 154 510 200 399 154 425 b 294 614 154 588 208 614 l 694 614 b 842 519 799 614 835 583 b 865 500 843 507 850 500 l 907 500 b 931 529 925 500 931 508 b 707 694 931 633 865 694 l 293 694 b 65 510 154 694 65 638 b 289 319 65 378 142 325 l 726 301 b 865 188 819 297 865 272 b 724 81 865 107 810 81 l 299 81 b 151 175 194 81 158 111 b 128 194 150 189 144 194 l 86 194 b 63 165 68 194 63 186 b 286 0 63 61 128 0 z "},"š":{"ha":1017,"x_min":0,"x_max":0,"o":"m 479 765 l 533 765 b 572 783 549 765 560 768 l 718 950 b 710 972 728 961 724 972 l 658 972 b 622 951 644 972 638 969 l 515 831 l 501 831 l 394 951 b 357 972 379 969 372 972 l 307 972 b 299 950 293 972 289 961 l 444 783 b 479 765 457 769 464 765 z m 286 0 l 726 0 b 954 188 864 0 954 57 b 729 376 954 319 876 371 l 292 394 b 154 510 200 399 154 425 b 294 614 154 588 208 614 l 694 614 b 842 519 799 614 835 583 b 865 500 843 507 850 500 l 907 500 b 931 529 925 500 931 508 b 707 694 931 633 865 694 l 293 694 b 65 510 154 694 65 638 b 289 319 65 378 142 325 l 726 301 b 865 188 819 297 865 272 b 724 81 865 107 810 81 l 299 81 b 151 175 194 81 158 111 b 128 194 150 189 144 194 l 86 194 b 63 165 68 194 63 186 b 286 0 63 61 128 0 z "},"ş":{"ha":1017,"x_min":0,"x_max":0,"o":"m 729 376 l 292 394 b 154 510 200 399 154 425 b 294 614 154 588 208 614 l 694 614 b 842 519 799 614 835 583 b 865 500 843 507 850 500 l 907 500 b 931 529 925 500 931 508 b 707 694 931 633 865 694 l 293 694 b 65 510 154 694 65 638 b 289 319 65 378 142 325 l 726 301 b 865 188 819 297 865 272 b 724 81 865 107 810 81 l 299 81 b 151 175 194 81 158 111 b 128 194 150 189 144 194 l 86 194 b 63 165 68 194 63 186 b 286 0 63 61 128 0 l 471 0 b 415 -82 429 -39 415 -60 b 469 -129 415 -112 440 -126 b 610 -174 572 -140 610 -142 b 544 -217 610 -210 592 -217 l 515 -217 b 449 -167 465 -217 449 -201 b 435 -156 449 -160 442 -156 l 388 -156 b 375 -169 378 -156 375 -161 b 494 -279 375 -239 404 -279 l 561 -279 b 685 -175 651 -279 685 -246 b 543 -75 685 -87 625 -85 b 556 0 503 -71 483 -65 l 726 0 b 954 188 864 0 954 57 b 729 376 954 319 876 371 z "},"ș":{"ha":1017,"x_min":0,"x_max":0,"o":"m 286 0 l 726 0 b 954 188 864 0 954 57 b 729 376 954 319 876 371 l 292 394 b 154 510 200 399 154 425 b 294 614 154 588 208 614 l 694 614 b 842 519 799 614 835 583 b 865 500 843 507 850 500 l 907 500 b 931 529 925 500 931 508 b 707 694 931 633 865 694 l 293 694 b 65 510 154 694 65 638 b 289 319 65 378 142 325 l 726 301 b 865 188 819 297 865 272 b 724 81 865 107 810 81 l 299 81 b 151 175 194 81 158 111 b 128 194 150 189 144 194 l 86 194 b 63 165 68 194 63 186 b 286 0 63 61 128 0 z m 528 -83 l 485 -83 b 467 -101 471 -83 467 -87 l 467 -301 l 424 -301 b 406 -319 410 -301 406 -306 l 406 -360 b 424 -378 406 -374 410 -378 l 511 -378 b 547 -343 536 -378 547 -367 l 547 -101 b 528 -83 547 -87 542 -83 z "},"ß":{"ha":1265,"x_min":0,"x_max":0,"o":"m 1038 544 b 1156 738 1108 569 1156 624 l 1156 796 b 925 1013 1156 939 1072 1013 l 310 1013 b 90 793 160 1013 90 938 l 92 21 b 113 0 92 7 99 0 l 163 0 b 183 21 176 0 183 7 l 185 793 b 310 929 185 886 211 929 l 925 929 b 1064 796 1017 929 1064 892 l 1064 738 b 911 582 1064 638 1017 582 l 371 582 b 350 561 357 582 350 575 l 350 519 b 371 499 350 506 357 499 l 911 499 b 1113 342 1025 499 1113 458 l 1113 239 b 921 83 1113 103 1064 83 l 371 83 b 350 63 357 83 350 76 l 350 21 b 371 0 350 7 357 0 l 926 0 b 1203 242 1118 0 1203 49 l 1203 328 b 1038 544 1203 479 1131 524 z "},"t":{"ha":742,"x_min":0,"x_max":0,"o":"m 419 0 l 658 0 b 679 21 671 0 679 7 l 679 63 b 657 83 679 76 672 83 l 422 83 b 267 240 321 83 267 131 l 267 611 l 660 611 b 679 631 672 611 679 617 l 679 675 b 658 694 679 689 674 694 l 267 694 l 267 778 b 247 799 267 792 261 799 l 197 799 b 178 778 183 799 178 792 l 178 694 l 61 694 b 42 674 47 694 42 689 l 42 631 b 61 611 42 617 47 611 l 178 611 l 178 238 b 419 0 178 83 260 0 z "},"ŧ":{"ha":749,"x_min":0,"x_max":0,"o":"m 665 457 l 267 457 l 267 611 l 660 611 b 679 631 672 611 679 617 l 679 675 b 658 694 679 689 674 694 l 267 694 l 267 778 b 247 799 267 792 261 799 l 197 799 b 178 778 183 799 178 792 l 178 694 l 61 694 b 42 674 47 694 42 689 l 42 631 b 61 611 42 617 47 611 l 178 611 l 178 457 l 69 457 b 49 436 56 457 49 450 l 49 394 b 69 374 49 381 56 374 l 178 374 l 178 238 b 419 0 178 83 260 0 l 658 0 b 679 21 671 0 679 7 l 679 63 b 657 83 679 76 672 83 l 422 83 b 267 240 321 83 267 131 l 267 374 l 665 374 b 686 394 678 374 686 381 l 686 436 b 665 457 686 450 678 457 z "},"ť":{"ha":742,"x_min":0,"x_max":0,"o":"m 442 1043 l 399 1043 b 381 1024 385 1043 381 1038 l 381 825 l 338 825 b 319 806 324 825 319 819 l 319 767 b 338 749 319 753 324 749 l 426 749 b 461 783 450 749 461 758 l 461 1024 b 442 1043 461 1038 456 1043 z m 419 0 l 658 0 b 679 21 671 0 679 7 l 679 63 b 657 83 679 76 672 83 l 422 83 b 267 240 321 83 267 131 l 267 611 l 660 611 b 679 631 672 611 679 617 l 679 675 b 658 694 679 689 674 694 l 267 694 l 267 778 b 247 799 267 792 261 799 l 197 799 b 178 778 183 799 178 792 l 178 694 l 61 694 b 42 674 47 694 42 689 l 42 631 b 61 611 42 617 47 611 l 178 611 l 178 238 b 419 0 178 83 260 0 z "},"ţ":{"ha":751,"x_min":0,"x_max":0,"o":"m 660 611 b 679 631 672 611 679 617 l 679 675 b 658 694 679 689 674 694 l 267 694 l 267 778 b 247 799 267 792 261 799 l 197 799 b 178 778 183 799 178 792 l 178 694 l 61 694 b 42 674 47 694 42 689 l 42 631 b 61 611 42 617 47 611 l 178 611 l 178 238 b 419 0 178 83 260 0 l 444 0 b 389 -82 403 -39 389 -60 b 443 -129 389 -112 414 -126 b 583 -174 546 -140 583 -142 b 518 -217 583 -210 565 -217 l 489 -217 b 422 -167 439 -217 422 -201 b 408 -156 422 -160 415 -156 l 361 -156 b 349 -169 351 -156 349 -161 b 468 -279 349 -239 378 -279 l 535 -279 b 658 -175 625 -279 658 -246 b 517 -75 658 -87 599 -85 b 529 0 476 -71 457 -65 l 658 0 b 679 21 671 0 679 7 l 679 63 b 657 83 679 76 672 83 l 422 83 b 267 240 321 83 267 131 l 267 611 z "},"ț":{"ha":742,"x_min":0,"x_max":0,"o":"m 419 0 l 658 0 b 679 21 671 0 679 7 l 679 63 b 657 83 679 76 672 83 l 422 83 b 267 240 321 83 267 131 l 267 611 l 660 611 b 679 631 672 611 679 617 l 679 675 b 658 694 679 689 674 694 l 267 694 l 267 778 b 247 799 267 792 261 799 l 197 799 b 178 778 183 799 178 792 l 178 694 l 61 694 b 42 674 47 694 42 689 l 42 631 b 61 611 42 617 47 611 l 178 611 l 178 238 b 419 0 178 83 260 0 z m 469 -83 l 426 -83 b 408 -101 413 -83 408 -87 l 408 -301 l 365 -301 b 347 -319 351 -301 347 -306 l 347 -360 b 365 -378 347 -374 351 -378 l 453 -378 b 489 -343 478 -378 489 -367 l 489 -101 b 469 -83 489 -87 483 -83 z "},"u":{"ha":1031,"x_min":0,"x_max":0,"o":"m 940 694 l 892 694 b 871 675 878 694 871 689 l 871 236 b 715 78 871 125 818 78 l 314 78 b 158 236 211 78 158 125 l 158 675 b 139 694 158 689 153 694 l 89 694 b 69 675 75 694 69 689 l 69 233 b 311 -6 69 76 151 -6 l 667 -6 b 861 74 788 -6 824 22 l 871 74 l 871 19 b 890 0 871 6 878 0 l 940 0 b 960 19 954 0 960 6 l 960 675 b 940 694 960 689 954 694 z "},"ú":{"ha":1031,"x_min":0,"x_max":0,"o":"m 574 947 l 478 788 b 488 763 468 772 474 763 l 533 763 b 567 788 547 763 554 772 l 693 947 b 686 972 706 963 701 972 l 606 972 b 574 947 592 972 583 964 z m 940 694 l 892 694 b 871 675 878 694 871 689 l 871 236 b 715 78 871 125 818 78 l 314 78 b 158 236 211 78 158 125 l 158 675 b 139 694 158 689 153 694 l 89 694 b 69 675 75 694 69 689 l 69 233 b 311 -6 69 76 151 -6 l 667 -6 b 861 74 788 -6 824 22 l 871 74 l 871 19 b 890 0 871 6 878 0 l 940 0 b 960 19 954 0 960 6 l 960 675 b 940 694 960 689 954 694 z "},"ŭ":{"ha":1031,"x_min":0,"x_max":0,"o":"m 486 783 l 543 783 b 708 957 654 783 708 840 b 690 972 708 968 704 972 l 650 972 b 632 957 636 972 632 968 b 538 850 631 896 600 850 l 492 850 b 397 957 429 850 399 896 b 378 972 397 968 392 972 l 339 972 b 321 957 325 972 321 968 b 486 783 321 840 376 783 z m 940 694 l 892 694 b 871 675 878 694 871 689 l 871 236 b 715 78 871 125 818 78 l 314 78 b 158 236 211 78 158 125 l 158 675 b 139 694 158 689 153 694 l 89 694 b 69 675 75 694 69 689 l 69 233 b 311 -6 69 76 151 -6 l 667 -6 b 861 74 788 -6 824 22 l 871 74 l 871 19 b 890 0 871 6 878 0 l 940 0 b 960 19 954 0 960 6 l 960 675 b 940 694 960 689 954 694 z "},"ǔ":{"ha":1031,"x_min":0,"x_max":0,"o":"m 486 765 l 540 765 b 579 783 556 765 567 768 l 725 950 b 717 972 735 961 731 972 l 665 972 b 629 951 651 972 644 969 l 522 831 l 508 831 l 401 951 b 364 972 386 969 379 972 l 314 972 b 306 950 300 972 296 961 l 451 783 b 486 765 464 769 471 765 z m 940 694 l 892 694 b 871 675 878 694 871 689 l 871 236 b 715 78 871 125 818 78 l 314 78 b 158 236 211 78 158 125 l 158 675 b 139 694 158 689 153 694 l 89 694 b 69 675 75 694 69 689 l 69 233 b 311 -6 69 76 151 -6 l 667 -6 b 861 74 788 -6 824 22 l 871 74 l 871 19 b 890 0 871 6 878 0 l 940 0 b 960 19 954 0 960 6 l 960 675 b 940 694 960 689 954 694 z "},"û":{"ha":1031,"x_min":0,"x_max":0,"o":"m 486 972 b 451 954 471 972 464 968 l 306 788 b 314 765 296 776 300 765 l 364 765 b 401 786 379 765 386 768 l 508 907 l 522 907 l 629 786 b 665 765 644 768 651 765 l 717 765 b 725 788 731 765 735 776 l 579 954 b 540 972 567 969 556 972 z m 940 694 l 892 694 b 871 675 878 694 871 689 l 871 236 b 715 78 871 125 818 78 l 314 78 b 158 236 211 78 158 125 l 158 675 b 139 694 158 689 153 694 l 89 694 b 69 675 75 694 69 689 l 69 233 b 311 -6 69 76 151 -6 l 667 -6 b 861 74 788 -6 824 22 l 871 74 l 871 19 b 890 0 871 6 878 0 l 940 0 b 960 19 954 0 960 6 l 960 675 b 940 694 960 689 954 694 z "},"ü":{"ha":1031,"x_min":0,"x_max":0,"o":"m 303 874 l 364 874 b 383 893 378 874 383 879 l 383 954 b 364 972 383 968 378 972 l 303 972 b 285 954 289 972 285 968 l 285 893 b 303 874 285 879 289 874 z m 632 874 l 693 874 b 711 893 707 874 711 879 l 711 954 b 693 972 711 968 707 972 l 632 972 b 613 954 618 972 613 968 l 613 893 b 632 874 613 879 618 874 z m 940 694 l 892 694 b 871 675 878 694 871 689 l 871 236 b 715 78 871 125 818 78 l 314 78 b 158 236 211 78 158 125 l 158 675 b 139 694 158 689 153 694 l 89 694 b 69 675 75 694 69 689 l 69 233 b 311 -6 69 76 151 -6 l 667 -6 b 861 74 788 -6 824 22 l 871 74 l 871 19 b 890 0 871 6 878 0 l 940 0 b 960 19 954 0 960 6 l 960 675 b 940 694 960 689 954 694 z "},"ù":{"ha":1031,"x_min":0,"x_max":0,"o":"m 456 947 b 426 972 447 964 440 972 l 350 972 b 336 947 335 972 324 963 l 461 785 b 493 763 474 769 479 763 l 539 763 b 550 788 553 763 560 772 z m 940 694 l 892 694 b 871 675 878 694 871 689 l 871 236 b 715 78 871 125 818 78 l 314 78 b 158 236 211 78 158 125 l 158 675 b 139 694 158 689 153 694 l 89 694 b 69 675 75 694 69 689 l 69 233 b 311 -6 69 76 151 -6 l 667 -6 b 861 74 788 -6 824 22 l 871 74 l 871 19 b 890 0 871 6 878 0 l 940 0 b 960 19 954 0 960 6 l 960 675 b 940 694 960 689 954 694 z "},"ű":{"ha":1031,"x_min":0,"x_max":0,"o":"m 482 947 l 386 788 b 396 763 376 772 382 763 l 442 763 b 475 788 456 763 463 772 l 601 947 b 594 972 614 963 610 972 l 514 972 b 482 947 500 972 492 964 z m 669 947 l 574 788 b 583 763 564 772 569 763 l 629 763 b 663 788 643 763 650 772 l 788 947 b 781 972 800 963 796 972 l 701 972 b 669 947 688 972 679 964 z m 940 694 l 892 694 b 871 675 878 694 871 689 l 871 236 b 715 78 871 125 818 78 l 314 78 b 158 236 211 78 158 125 l 158 675 b 139 694 158 689 153 694 l 89 694 b 69 675 75 694 69 689 l 69 233 b 311 -6 69 76 151 -6 l 667 -6 b 861 74 788 -6 824 22 l 871 74 l 871 19 b 890 0 871 6 878 0 l 940 0 b 960 19 954 0 960 6 l 960 675 b 940 694 960 689 954 694 z "},"ū":{"ha":1031,"x_min":0,"x_max":0,"o":"m 290 888 l 740 888 b 761 908 753 888 761 894 l 761 951 b 740 972 761 965 753 972 l 290 972 b 269 951 276 972 269 965 l 269 908 b 290 888 269 894 276 888 z m 940 694 l 892 694 b 871 675 878 694 871 689 l 871 236 b 715 78 871 125 818 78 l 314 78 b 158 236 211 78 158 125 l 158 675 b 139 694 158 689 153 694 l 89 694 b 69 675 75 694 69 689 l 69 233 b 311 -6 69 76 151 -6 l 667 -6 b 861 74 788 -6 824 22 l 871 74 l 871 19 b 890 0 871 6 878 0 l 940 0 b 960 19 954 0 960 6 l 960 675 b 940 694 960 689 954 694 z "},"ų":{"ha":1029,"x_min":0,"x_max":0,"o":"m 940 694 l 892 694 b 871 675 878 694 871 689 l 871 236 b 715 78 871 125 818 78 l 314 78 b 158 236 211 78 158 125 l 158 675 b 139 694 158 689 153 694 l 89 694 b 69 675 75 694 69 689 l 69 233 b 311 -6 69 76 151 -6 l 518 -6 b 425 -51 511 -40 485 -43 b 310 -156 349 -61 310 -67 b 433 -261 310 -235 344 -261 l 581 -261 b 594 -247 590 -261 594 -256 l 594 -206 b 581 -192 594 -196 589 -192 l 442 -192 b 385 -153 394 -192 385 -186 b 413 -117 385 -122 394 -119 b 524 -103 435 -114 475 -108 b 607 -6 583 -97 604 -65 l 667 -6 b 861 74 788 -6 824 22 l 871 74 l 871 19 b 890 0 871 6 878 0 l 940 0 b 960 19 954 0 960 6 l 960 675 b 940 694 960 689 954 694 z "},"ů":{"ha":1031,"x_min":0,"x_max":0,"o":"m 524 994 l 506 994 b 389 878 438 994 389 943 l 389 863 b 506 747 389 797 438 747 l 524 747 b 640 863 592 747 640 797 l 640 878 b 524 994 640 943 592 994 z m 578 876 l 578 865 b 521 808 578 831 558 808 l 508 808 b 451 865 472 808 451 831 l 451 876 b 508 933 451 913 472 933 l 521 933 b 578 876 558 933 578 913 z m 940 694 l 892 694 b 871 675 878 694 871 689 l 871 236 b 715 78 871 125 818 78 l 314 78 b 158 236 211 78 158 125 l 158 675 b 139 694 158 689 153 694 l 89 694 b 69 675 75 694 69 689 l 69 233 b 311 -6 69 76 151 -6 l 667 -6 b 861 74 788 -6 824 22 l 871 74 l 871 19 b 890 0 871 6 878 0 l 940 0 b 960 19 954 0 960 6 l 960 675 b 940 694 960 689 954 694 z "},"ũ":{"ha":1031,"x_min":0,"x_max":0,"o":"m 615 835 b 731 871 654 835 692 847 b 740 894 742 879 744 886 l 722 935 b 701 940 718 944 713 947 b 619 914 669 919 647 914 b 414 979 539 914 504 979 b 297 942 374 979 336 967 b 288 919 286 935 283 928 l 306 879 b 328 874 310 869 317 867 b 408 900 360 893 381 900 b 615 835 489 900 524 835 z m 940 694 l 892 694 b 871 675 878 694 871 689 l 871 236 b 715 78 871 125 818 78 l 314 78 b 158 236 211 78 158 125 l 158 675 b 139 694 158 689 153 694 l 89 694 b 69 675 75 694 69 689 l 69 233 b 311 -6 69 76 151 -6 l 667 -6 b 861 74 788 -6 824 22 l 871 74 l 871 19 b 890 0 871 6 878 0 l 940 0 b 960 19 954 0 960 6 l 960 675 b 940 694 960 689 954 694 z "},"v":{"ha":1063,"x_min":0,"x_max":0,"o":"m 53 671 l 474 25 b 504 0 483 10 492 0 l 558 0 b 589 25 571 0 579 10 l 1010 671 b 997 694 1019 686 1011 694 l 935 694 b 906 671 921 694 914 685 l 539 103 l 524 103 l 157 671 b 128 694 149 685 142 694 l 65 694 b 53 671 51 694 43 686 z "},"w":{"ha":1790,"x_min":0,"x_max":0,"o":"m 1725 694 l 1664 694 b 1635 671 1650 694 1644 685 l 1303 103 l 1289 103 l 954 671 b 925 694 946 685 938 694 l 865 694 b 838 671 857 694 847 689 l 501 103 l 488 103 l 156 671 b 126 694 147 685 140 694 l 65 694 b 53 671 51 694 43 686 l 435 25 b 465 0 444 10 451 0 l 524 0 b 554 25 536 0 544 10 l 896 600 l 1236 25 b 1268 0 1247 10 1254 0 l 1326 0 b 1357 25 1339 0 1347 10 l 1738 671 b 1725 694 1747 686 1739 694 z "},"ẃ":{"ha":1790,"x_min":0,"x_max":0,"o":"m 954 947 l 858 788 b 868 763 849 772 854 763 l 914 763 b 947 788 928 763 935 772 l 1074 947 b 1067 972 1086 963 1082 972 l 986 972 b 954 947 972 972 964 964 z m 1725 694 l 1664 694 b 1635 671 1650 694 1644 685 l 1303 103 l 1289 103 l 954 671 b 925 694 946 685 938 694 l 865 694 b 838 671 857 694 847 689 l 501 103 l 488 103 l 156 671 b 126 694 147 685 140 694 l 65 694 b 53 671 51 694 43 686 l 435 25 b 465 0 444 10 451 0 l 524 0 b 554 25 536 0 544 10 l 896 600 l 1236 25 b 1268 0 1247 10 1254 0 l 1326 0 b 1357 25 1339 0 1347 10 l 1738 671 b 1725 694 1747 686 1739 694 z "},"ŵ":{"ha":1790,"x_min":0,"x_max":0,"o":"m 867 972 b 832 954 851 972 844 968 l 686 788 b 694 765 676 776 681 765 l 744 765 b 782 786 760 765 767 768 l 889 907 l 903 907 l 1010 786 b 1046 765 1025 768 1032 765 l 1097 765 b 1106 788 1111 765 1115 776 l 960 954 b 921 972 947 969 936 972 z m 1725 694 l 1664 694 b 1635 671 1650 694 1644 685 l 1303 103 l 1289 103 l 954 671 b 925 694 946 685 938 694 l 865 694 b 838 671 857 694 847 689 l 501 103 l 488 103 l 156 671 b 126 694 147 685 140 694 l 65 694 b 53 671 51 694 43 686 l 435 25 b 465 0 444 10 451 0 l 524 0 b 554 25 536 0 544 10 l 896 600 l 1236 25 b 1268 0 1247 10 1254 0 l 1326 0 b 1357 25 1339 0 1347 10 l 1738 671 b 1725 694 1747 686 1739 694 z "},"ẅ":{"ha":1790,"x_min":0,"x_max":0,"o":"m 685 874 l 746 874 b 765 893 760 874 765 879 l 765 954 b 746 972 765 968 760 972 l 685 972 b 667 954 671 972 667 968 l 667 893 b 685 874 667 879 671 874 z m 1014 874 l 1075 874 b 1093 893 1089 874 1093 879 l 1093 954 b 1075 972 1093 968 1089 972 l 1014 972 b 994 954 1000 972 994 968 l 994 893 b 1014 874 994 879 1000 874 z m 1725 694 l 1664 694 b 1635 671 1650 694 1644 685 l 1303 103 l 1289 103 l 954 671 b 925 694 946 685 938 694 l 865 694 b 838 671 857 694 847 689 l 501 103 l 488 103 l 156 671 b 126 694 147 685 140 694 l 65 694 b 53 671 51 694 43 686 l 435 25 b 465 0 444 10 451 0 l 524 0 b 554 25 536 0 544 10 l 896 600 l 1236 25 b 1268 0 1247 10 1254 0 l 1326 0 b 1357 25 1339 0 1347 10 l 1738 671 b 1725 694 1747 686 1739 694 z "},"ẁ":{"ha":1790,"x_min":0,"x_max":0,"o":"m 836 947 b 807 972 828 964 821 972 l 731 972 b 717 947 715 972 704 963 l 842 785 b 874 763 854 769 860 763 l 919 763 b 931 788 933 763 940 772 z m 1725 694 l 1664 694 b 1635 671 1650 694 1644 685 l 1303 103 l 1289 103 l 954 671 b 925 694 946 685 938 694 l 865 694 b 838 671 857 694 847 689 l 501 103 l 488 103 l 156 671 b 126 694 147 685 140 694 l 65 694 b 53 671 51 694 43 686 l 435 25 b 465 0 444 10 451 0 l 524 0 b 554 25 536 0 544 10 l 896 600 l 1236 25 b 1268 0 1247 10 1254 0 l 1326 0 b 1357 25 1339 0 1347 10 l 1738 671 b 1725 694 1747 686 1739 694 z "},"x":{"ha":972,"x_min":0,"x_max":0,"o":"m 915 26 l 547 347 l 915 668 b 908 694 931 682 925 694 l 839 694 b 796 669 828 694 817 688 l 486 400 l 176 669 b 133 694 156 688 144 694 l 64 694 b 57 668 47 694 42 682 l 425 347 l 57 26 b 65 0 42 13 49 0 l 135 0 b 178 25 146 0 157 7 l 486 294 l 794 25 b 838 0 815 7 826 0 l 907 0 b 915 26 924 0 931 13 z "},"y":{"ha":1063,"x_min":0,"x_max":0,"o":"m 997 694 l 935 694 b 906 671 921 694 914 685 l 539 103 l 524 103 l 157 671 b 128 694 149 685 142 694 l 65 694 b 53 671 51 694 43 686 l 474 25 b 481 15 476 21 478 18 l 321 -228 b 333 -251 311 -243 319 -251 l 397 -251 b 425 -228 411 -251 417 -242 l 586 22 b 589 25 588 22 588 24 l 1010 671 b 997 694 1019 686 1011 694 z "},"ý":{"ha":1063,"x_min":0,"x_max":0,"o":"m 504 763 l 550 763 b 583 788 564 763 571 772 l 710 947 b 703 972 722 963 718 972 l 622 972 b 590 947 608 972 600 964 l 494 788 b 504 763 485 772 490 763 z m 997 694 l 935 694 b 906 671 921 694 914 685 l 539 103 l 524 103 l 157 671 b 128 694 149 685 142 694 l 65 694 b 53 671 51 694 43 686 l 474 25 b 481 15 476 21 478 18 l 321 -228 b 333 -251 311 -243 319 -251 l 397 -251 b 425 -228 411 -251 417 -242 l 586 22 b 589 25 588 22 588 24 l 1010 671 b 997 694 1019 686 1011 694 z "},"ŷ":{"ha":1063,"x_min":0,"x_max":0,"o":"m 331 765 l 381 765 b 418 786 396 765 403 768 l 525 907 l 539 907 l 646 786 b 682 765 661 768 668 765 l 733 765 b 742 788 747 765 751 776 l 596 954 b 557 972 583 969 572 972 l 503 972 b 468 954 488 972 481 968 l 322 788 b 331 765 313 776 317 765 z m 997 694 l 935 694 b 906 671 921 694 914 685 l 539 103 l 524 103 l 157 671 b 128 694 149 685 142 694 l 65 694 b 53 671 51 694 43 686 l 474 25 b 481 15 476 21 478 18 l 321 -228 b 333 -251 311 -243 319 -251 l 397 -251 b 425 -228 411 -251 417 -242 l 586 22 b 589 25 588 22 588 24 l 1010 671 b 997 694 1019 686 1011 694 z "},"ÿ":{"ha":1063,"x_min":0,"x_max":0,"o":"m 319 874 l 381 874 b 400 893 394 874 400 879 l 400 954 b 381 972 400 968 394 972 l 319 972 b 301 954 306 972 301 968 l 301 893 b 319 874 301 879 306 874 z m 649 874 l 710 874 b 728 893 724 874 728 879 l 728 954 b 710 972 728 968 724 972 l 649 972 b 629 954 635 972 629 968 l 629 893 b 649 874 629 879 635 874 z m 997 694 l 935 694 b 906 671 921 694 914 685 l 539 103 l 524 103 l 157 671 b 128 694 149 685 142 694 l 65 694 b 53 671 51 694 43 686 l 474 25 b 481 15 476 21 478 18 l 321 -228 b 333 -251 311 -243 319 -251 l 397 -251 b 425 -228 411 -251 417 -242 l 586 22 b 589 25 588 22 588 24 l 1010 671 b 997 694 1019 686 1011 694 z "},"ỳ":{"ha":1063,"x_min":0,"x_max":0,"o":"m 478 785 b 510 763 490 769 496 763 l 556 763 b 567 788 569 763 576 772 l 472 947 b 443 972 464 964 457 972 l 367 972 b 353 947 351 972 340 963 z m 997 694 l 935 694 b 906 671 921 694 914 685 l 539 103 l 524 103 l 157 671 b 128 694 149 685 142 694 l 65 694 b 53 671 51 694 43 686 l 474 25 b 481 15 476 21 478 18 l 321 -228 b 333 -251 311 -243 319 -251 l 397 -251 b 425 -228 411 -251 417 -242 l 586 22 b 589 25 588 22 588 24 l 1010 671 b 997 694 1019 686 1011 694 z "},"z":{"ha":960,"x_min":0,"x_max":0,"o":"m 904 615 l 904 675 b 882 694 904 689 897 694 l 82 694 b 63 674 68 694 63 689 l 63 631 b 82 611 63 617 68 611 l 765 611 l 765 601 l 67 104 b 56 79 57 97 56 90 l 56 19 b 75 0 56 6 61 0 l 883 0 b 904 19 897 0 904 6 l 904 64 b 882 83 904 78 897 83 l 193 83 l 193 94 l 892 590 b 904 615 901 597 904 604 z "},"ź":{"ha":960,"x_min":0,"x_max":0,"o":"m 547 947 l 451 788 b 461 763 442 772 447 763 l 507 763 b 540 788 521 763 528 772 l 667 947 b 660 972 679 963 675 972 l 579 972 b 547 947 565 972 557 964 z m 904 615 l 904 675 b 882 694 904 689 897 694 l 82 694 b 63 674 68 694 63 689 l 63 631 b 82 611 63 617 68 611 l 765 611 l 765 601 l 67 104 b 56 79 57 97 56 90 l 56 19 b 75 0 56 6 61 0 l 883 0 b 904 19 897 0 904 6 l 904 64 b 882 83 904 78 897 83 l 193 83 l 193 94 l 892 590 b 904 615 901 597 904 604 z "},"ž":{"ha":960,"x_min":0,"x_max":0,"o":"m 458 765 l 513 765 b 551 783 528 765 539 768 l 697 950 b 689 972 707 961 703 972 l 638 972 b 601 951 624 972 617 969 l 494 831 l 481 831 l 374 951 b 336 972 358 969 351 972 l 286 972 b 278 950 272 972 268 961 l 424 783 b 458 765 436 769 443 765 z m 904 615 l 904 675 b 882 694 904 689 897 694 l 82 694 b 63 674 68 694 63 689 l 63 631 b 82 611 63 617 68 611 l 765 611 l 765 601 l 67 104 b 56 79 57 97 56 90 l 56 19 b 75 0 56 6 61 0 l 883 0 b 904 19 897 0 904 6 l 904 64 b 882 83 904 78 897 83 l 193 83 l 193 94 l 892 590 b 904 615 901 597 904 604 z "},"ż":{"ha":960,"x_min":0,"x_max":0,"o":"m 456 874 l 517 874 b 536 893 531 874 536 879 l 536 954 b 517 972 536 968 531 972 l 456 972 b 438 954 442 972 438 968 l 438 893 b 456 874 438 879 442 874 z m 904 615 l 904 675 b 882 694 904 689 897 694 l 82 694 b 63 674 68 694 63 689 l 63 631 b 82 611 63 617 68 611 l 765 611 l 765 601 l 67 104 b 56 79 57 97 56 90 l 56 19 b 75 0 56 6 61 0 l 883 0 b 904 19 897 0 904 6 l 904 64 b 882 83 904 78 897 83 l 193 83 l 193 94 l 892 590 b 904 615 901 597 904 604 z "},"ﬁ":{"ha":1051,"x_min":0,"x_max":0,"o":"m 963 694 l 232 694 l 232 731 b 388 889 232 842 286 889 l 763 889 b 783 910 776 889 783 896 l 783 951 b 763 972 783 965 776 972 l 385 972 b 144 733 226 972 144 890 l 144 694 l 76 694 b 56 674 63 694 56 688 l 56 632 b 76 611 56 618 63 611 l 144 611 l 144 21 b 165 0 144 7 151 0 l 211 0 b 232 21 225 0 232 7 l 232 611 l 893 611 l 893 19 b 913 0 893 6 899 0 l 963 0 b 982 19 976 0 982 6 l 982 675 b 963 694 982 689 976 694 z m 963 972 l 913 972 b 893 953 899 972 893 967 l 893 904 b 913 883 893 890 899 883 l 963 883 b 982 904 976 883 982 890 l 982 953 b 963 972 982 967 976 972 z "},"ﬂ":{"ha":1064,"x_min":0,"x_max":0,"o":"m 974 972 l 385 972 b 144 733 226 972 144 890 l 144 694 l 76 694 b 56 674 63 694 56 688 l 56 632 b 76 611 56 618 63 611 l 144 611 l 144 21 b 165 0 144 7 151 0 l 211 0 b 232 21 225 0 232 7 l 232 611 l 749 611 b 769 632 763 611 769 618 l 769 674 b 749 694 769 688 763 694 l 232 694 l 232 731 b 388 889 232 842 286 889 l 906 889 l 906 19 b 925 0 906 6 911 0 l 974 0 b 994 19 988 0 994 6 l 994 953 b 974 972 994 967 988 972 z "},"ª":{"ha":442,"x_min":0,"x_max":0,"o":"m 247 979 l 224 979 b 101 949 169 979 136 967 b 94 929 93 944 90 938 l 106 903 b 126 899 110 894 118 894 b 221 918 156 911 181 918 l 243 918 b 313 840 290 918 313 899 l 194 840 b 69 732 111 840 69 803 b 194 624 69 661 113 624 l 213 624 b 313 665 256 624 288 642 l 313 638 b 324 624 313 629 315 624 l 361 624 b 372 638 369 624 372 629 l 372 839 b 247 979 372 932 325 979 z m 218 686 l 199 686 b 131 732 154 686 131 696 b 199 781 131 767 154 781 l 313 781 l 313 714 b 218 686 292 697 267 686 z "},"º":{"ha":467,"x_min":0,"x_max":0,"o":"m 256 979 l 210 979 b 69 838 128 979 69 915 l 69 767 b 210 624 69 686 128 624 l 256 624 b 397 767 338 624 397 686 l 397 838 b 256 979 397 915 338 979 z m 336 836 l 336 768 b 254 685 336 719 300 685 l 211 685 b 132 768 163 685 132 719 l 132 836 b 211 918 132 885 163 918 l 254 918 b 336 836 300 918 336 885 z "},"А":{"ha":1464,"x_min":0,"x_max":0,"o":"m 1404 22 l 796 950 b 769 972 788 964 782 972 l 696 972 b 668 950 682 972 676 964 l 60 22 b 74 0 50 7 60 0 l 138 0 b 165 22 151 0 156 7 l 275 189 l 1189 189 l 1299 22 b 1328 0 1308 7 1314 0 l 1392 0 b 1404 22 1406 0 1415 7 z m 328 271 l 725 876 l 739 876 l 1136 271 z "},"Б":{"ha":1308,"x_min":0,"x_max":0,"o":"m 976 692 l 182 692 l 182 890 l 758 890 b 778 910 772 890 778 896 l 778 953 b 758 972 778 967 772 972 l 110 972 b 90 953 96 972 90 967 l 90 19 b 110 0 90 6 96 0 l 976 0 b 1232 247 1150 0 1232 82 l 1232 444 b 976 692 1232 610 1150 692 z m 1140 260 b 964 85 1140 136 1088 85 l 182 85 l 182 607 l 964 607 b 1140 433 1088 607 1140 556 z "},"В":{"ha":1331,"x_min":0,"x_max":0,"o":"m 1131 503 l 1131 515 b 1218 700 1193 550 1218 613 l 1218 729 b 979 972 1218 899 1143 972 l 111 972 b 90 951 97 972 90 965 l 90 21 b 111 0 90 7 97 0 l 976 0 b 1254 251 1154 0 1254 67 l 1254 289 b 1131 503 1254 407 1211 472 z m 1126 726 l 1126 699 b 972 539 1126 582 1078 539 l 182 539 l 182 888 l 971 888 b 1126 726 1078 888 1126 850 z m 1163 253 b 974 85 1163 115 1097 85 l 182 85 l 182 461 l 974 461 b 1163 288 1097 461 1163 429 z "},"Г":{"ha":1258,"x_min":0,"x_max":0,"o":"m 1176 972 l 110 972 b 90 953 96 972 90 967 l 90 19 b 110 0 90 6 96 0 l 163 0 b 182 19 176 0 182 6 l 182 888 l 1176 888 b 1196 907 1190 888 1196 893 l 1196 953 b 1176 972 1196 967 1190 972 z "},"Ѓ":{"ha":1258,"x_min":0,"x_max":0,"o":"m 610 1040 l 656 1040 b 689 1065 669 1040 676 1050 l 815 1225 b 808 1250 828 1240 824 1250 l 728 1250 b 696 1225 714 1250 706 1242 l 600 1065 b 610 1040 590 1050 596 1040 z m 1176 972 l 110 972 b 90 953 96 972 90 967 l 90 19 b 110 0 90 6 96 0 l 163 0 b 182 19 176 0 182 6 l 182 888 l 1176 888 b 1196 907 1190 888 1196 893 l 1196 953 b 1176 972 1196 967 1190 972 z "},"Ґ":{"ha":1258,"x_min":0,"x_max":0,"o":"m 1176 1043 l 1124 1043 b 1104 1024 1110 1043 1104 1038 l 1104 972 l 110 972 b 90 953 96 972 90 967 l 90 19 b 110 0 90 6 96 0 l 163 0 b 182 19 176 0 182 6 l 182 888 l 1176 888 b 1196 907 1190 888 1196 893 l 1196 1024 b 1176 1043 1196 1038 1190 1043 z "},"Д":{"ha":1449,"x_min":0,"x_max":0,"o":"m 1400 85 l 1350 85 l 1350 951 b 1329 972 1350 965 1343 972 l 210 972 b 189 951 196 972 189 965 l 189 404 b 72 85 189 156 124 85 l 49 85 b 28 64 35 85 28 78 l 28 -117 b 46 -135 28 -131 32 -135 l 101 -135 b 119 -117 115 -135 119 -131 l 119 0 l 1329 0 l 1329 -117 b 1347 -135 1329 -131 1333 -135 l 1403 -135 b 1421 -117 1417 -135 1421 -131 l 1421 64 b 1400 85 1421 78 1414 85 z m 208 85 b 281 404 254 133 281 228 l 281 888 l 1258 888 l 1258 85 z "},"Е":{"ha":1286,"x_min":0,"x_max":0,"o":"m 1189 85 l 182 85 l 182 443 l 1168 443 b 1189 464 1182 443 1189 450 l 1189 508 b 1168 529 1189 522 1182 529 l 182 529 l 182 888 l 1182 888 b 1203 908 1196 888 1203 894 l 1203 951 b 1182 972 1203 965 1196 972 l 110 972 b 90 953 96 972 90 967 l 90 19 b 110 0 90 6 96 0 l 1189 0 b 1210 21 1203 0 1210 7 l 1210 64 b 1189 85 1210 78 1203 85 z "},"Ё":{"ha":1286,"x_min":0,"x_max":0,"o":"m 446 1151 l 507 1151 b 526 1171 521 1151 526 1157 l 526 1232 b 507 1250 526 1246 521 1250 l 446 1250 b 428 1232 432 1250 428 1246 l 428 1171 b 446 1151 428 1157 432 1151 z m 775 1151 l 836 1151 b 854 1171 850 1151 854 1157 l 854 1232 b 836 1250 854 1246 850 1250 l 775 1250 b 756 1232 761 1250 756 1246 l 756 1171 b 775 1151 756 1157 761 1151 z m 1189 85 l 182 85 l 182 443 l 1168 443 b 1189 464 1182 443 1189 450 l 1189 508 b 1168 529 1189 522 1182 529 l 182 529 l 182 888 l 1182 888 b 1203 908 1196 888 1203 894 l 1203 951 b 1182 972 1203 965 1196 972 l 110 972 b 90 953 96 972 90 967 l 90 19 b 110 0 90 6 96 0 l 1189 0 b 1210 21 1203 0 1210 7 l 1210 64 b 1189 85 1210 78 1203 85 z "},"Ж":{"ha":2379,"x_min":0,"x_max":0,"o":"m 2322 28 l 1629 546 l 2293 944 b 2286 972 2310 956 2301 972 l 2206 972 b 2164 957 2188 972 2176 965 l 1236 404 l 1236 953 b 1217 972 1236 967 1231 972 l 1163 972 b 1143 953 1149 972 1143 967 l 1143 404 l 215 957 b 174 972 203 965 192 972 l 93 972 b 86 944 78 972 69 956 l 750 546 l 57 28 b 65 0 43 17 47 0 l 142 0 b 186 19 157 0 171 8 l 826 500 l 1143 311 l 1143 19 b 1163 0 1143 6 1149 0 l 1217 0 b 1236 19 1231 0 1236 6 l 1236 311 l 1553 500 l 2193 19 b 2238 0 2208 8 2222 0 l 2314 0 b 2322 28 2332 0 2336 17 z "},"З":{"ha":1288,"x_min":0,"x_max":0,"o":"m 1050 501 l 1050 513 b 1203 719 1153 542 1203 590 b 931 979 1203 892 1114 979 l 354 979 b 74 728 183 979 74 904 l 74 707 b 90 690 74 696 78 690 l 146 690 b 163 707 158 690 163 696 b 357 896 163 844 228 896 l 928 896 b 1114 719 1057 896 1114 840 b 908 547 1114 599 1043 547 l 300 547 b 283 531 289 547 283 543 l 283 483 b 300 467 283 471 289 467 l 908 467 b 1136 260 1043 467 1136 417 b 946 76 1136 139 1076 76 l 346 76 b 151 265 217 76 151 128 b 135 282 151 276 147 282 l 79 282 b 63 265 67 282 63 276 l 63 244 b 343 -7 63 68 172 -7 l 950 -7 b 1225 260 1132 -7 1225 88 b 1050 501 1225 428 1153 476 z "},"И":{"ha":1351,"x_min":0,"x_max":0,"o":"m 1242 0 b 1261 19 1256 0 1261 6 l 1261 953 b 1242 972 1261 967 1256 972 l 1149 972 b 1124 958 1138 972 1132 967 l 192 97 l 182 97 l 182 953 b 163 972 182 967 176 972 l 110 972 b 90 953 96 972 90 967 l 90 19 b 110 0 90 6 96 0 l 203 0 b 228 14 214 0 219 6 l 1160 875 l 1169 875 l 1169 19 b 1189 0 1169 6 1175 0 z "},"Й":{"ha":1351,"x_min":0,"x_max":0,"o":"m 629 1061 l 686 1061 b 851 1235 797 1061 851 1118 b 833 1250 851 1246 847 1250 l 793 1250 b 775 1235 779 1250 775 1246 b 681 1128 774 1174 743 1128 l 635 1128 b 540 1235 572 1128 542 1174 b 521 1250 540 1246 535 1250 l 482 1250 b 464 1235 468 1250 464 1246 b 629 1061 464 1118 519 1061 z m 1242 0 b 1261 19 1256 0 1261 6 l 1261 953 b 1242 972 1261 967 1256 972 l 1149 972 b 1124 958 1138 972 1132 967 l 192 97 l 182 97 l 182 953 b 163 972 182 967 176 972 l 110 972 b 90 953 96 972 90 967 l 90 19 b 110 0 90 6 96 0 l 203 0 b 228 14 214 0 219 6 l 1160 875 l 1169 875 l 1169 19 b 1189 0 1169 6 1175 0 z "},"Ѝ":{"ha":1351,"x_min":0,"x_max":0,"o":"m 599 1225 b 569 1250 590 1242 583 1250 l 493 1250 b 479 1225 478 1250 467 1240 l 604 1063 b 636 1040 617 1047 622 1040 l 682 1040 b 693 1065 696 1040 703 1050 z m 1242 0 b 1261 19 1256 0 1261 6 l 1261 953 b 1242 972 1261 967 1256 972 l 1149 972 b 1124 958 1138 972 1132 967 l 192 97 l 182 97 l 182 953 b 163 972 182 967 176 972 l 110 972 b 90 953 96 972 90 967 l 90 19 b 110 0 90 6 96 0 l 203 0 b 228 14 214 0 219 6 l 1160 875 l 1169 875 l 1169 19 b 1189 0 1169 6 1175 0 z "},"К":{"ha":1326,"x_min":0,"x_max":0,"o":"m 1269 28 l 575 546 l 1240 944 b 1233 972 1256 956 1249 972 l 1151 972 b 1111 957 1135 972 1122 965 l 182 404 l 182 953 b 163 972 182 967 176 972 l 110 972 b 90 953 96 972 90 967 l 90 19 b 110 0 90 6 96 0 l 163 0 b 182 19 176 0 182 6 l 182 311 l 499 500 l 1139 19 b 1185 0 1156 8 1168 0 l 1260 0 b 1269 28 1279 0 1283 17 z "},"Ќ":{"ha":1326,"x_min":0,"x_max":0,"o":"m 604 1040 l 650 1040 b 683 1065 664 1040 671 1050 l 810 1225 b 803 1250 822 1240 818 1250 l 722 1250 b 690 1225 708 1250 700 1242 l 594 1065 b 604 1040 585 1050 590 1040 z m 1269 28 l 575 546 l 1240 944 b 1233 972 1256 956 1249 972 l 1151 972 b 1111 957 1135 972 1122 965 l 182 404 l 182 953 b 163 972 182 967 176 972 l 110 972 b 90 953 96 972 90 967 l 90 19 b 110 0 90 6 96 0 l 163 0 b 182 19 176 0 182 6 l 182 311 l 499 500 l 1139 19 b 1185 0 1156 8 1168 0 l 1260 0 b 1269 28 1279 0 1283 17 z "},"Л":{"ha":1481,"x_min":0,"x_max":0,"o":"m 1369 972 l 215 972 b 194 951 201 972 194 965 l 194 192 b 94 86 194 108 143 86 b 76 69 85 86 76 82 l 76 14 b 94 -6 76 0 81 -6 l 122 -6 b 286 174 206 -6 286 43 l 286 888 l 1299 888 l 1299 18 b 1317 0 1299 4 1303 0 l 1372 0 b 1390 18 1386 0 1390 4 l 1390 951 b 1369 972 1390 965 1383 972 z "},"М":{"ha":1557,"x_min":0,"x_max":0,"o":"m 110 0 l 163 0 b 182 19 176 0 182 6 l 182 867 l 193 867 l 719 19 b 747 0 728 6 735 0 l 810 0 b 836 19 822 0 828 6 l 1363 867 l 1374 867 l 1374 19 b 1393 0 1374 6 1379 0 l 1446 0 b 1467 19 1460 0 1467 6 l 1467 953 b 1446 972 1467 967 1460 972 l 1343 972 b 1315 951 1329 972 1324 965 l 785 97 l 772 97 l 242 951 b 214 972 233 965 228 972 l 110 972 b 90 953 96 972 90 967 l 90 19 b 110 0 90 6 96 0 z "},"Н":{"ha":1338,"x_min":0,"x_max":0,"o":"m 1228 972 l 1175 972 b 1156 953 1161 972 1156 967 l 1156 529 l 182 529 l 182 953 b 163 972 182 967 176 972 l 110 972 b 90 953 96 972 90 967 l 90 19 b 110 0 90 6 96 0 l 163 0 b 182 19 176 0 182 6 l 182 443 l 1156 443 l 1156 19 b 1175 0 1156 6 1161 0 l 1228 0 b 1247 19 1242 0 1247 6 l 1247 953 b 1228 972 1247 967 1242 972 z "},"О":{"ha":1411,"x_min":0,"x_max":0,"o":"m 339 -6 l 1071 -6 b 1328 242 1243 -6 1328 76 l 1328 731 b 1071 978 1328 896 1243 978 l 339 978 b 83 731 167 978 83 896 l 83 242 b 339 -6 83 76 167 -6 z m 351 79 b 175 254 228 79 175 131 l 175 719 b 351 893 175 842 228 893 l 1060 893 b 1235 719 1183 893 1235 842 l 1235 254 b 1060 79 1235 131 1183 79 z "},"П":{"ha":1376,"x_min":0,"x_max":0,"o":"m 1265 972 l 111 972 b 90 951 97 972 90 965 l 90 18 b 108 0 90 4 94 0 l 164 0 b 182 18 178 0 182 4 l 182 888 l 1194 888 l 1194 18 b 1213 0 1194 4 1199 0 l 1268 0 b 1286 18 1282 0 1286 4 l 1286 951 b 1265 972 1286 965 1279 972 z "},"Р":{"ha":1315,"x_min":0,"x_max":0,"o":"m 976 972 l 110 972 b 90 953 96 972 90 967 l 90 19 b 110 0 90 6 96 0 l 163 0 b 182 19 176 0 182 6 l 182 239 l 976 239 b 1232 486 1150 239 1232 319 l 1232 725 b 976 972 1232 890 1150 972 z m 1140 497 b 964 324 1140 374 1088 324 l 182 324 l 182 888 l 964 888 b 1140 714 1088 888 1140 836 z "},"С":{"ha":1404,"x_min":0,"x_max":0,"o":"m 1253 685 l 1313 685 b 1328 701 1324 685 1328 690 l 1328 731 b 1074 978 1328 896 1246 978 l 339 978 b 83 731 167 978 83 896 l 83 242 b 339 -6 83 76 167 -6 l 1074 -6 b 1328 219 1246 -6 1328 74 l 1328 239 b 1313 256 1328 250 1324 256 l 1251 256 b 1235 239 1240 256 1235 250 l 1235 231 b 1057 79 1235 129 1183 79 l 351 79 b 175 254 228 79 175 131 l 175 719 b 351 893 175 842 228 893 l 1057 893 b 1235 719 1182 893 1235 840 l 1235 701 b 1253 685 1235 690 1240 685 z "},"Т":{"ha":1335,"x_min":0,"x_max":0,"o":"m 1253 972 l 82 972 b 63 953 68 972 63 967 l 63 907 b 82 888 63 893 68 888 l 622 888 l 622 19 b 642 0 622 6 628 0 l 693 0 b 714 19 707 0 714 6 l 714 888 l 1253 888 b 1272 907 1267 888 1272 893 l 1272 953 b 1253 972 1272 967 1267 972 z "},"У":{"ha":1188,"x_min":0,"x_max":0,"o":"m 1119 972 l 1054 972 b 1019 949 1038 972 1031 963 l 593 396 l 168 949 b 133 972 157 963 150 972 l 68 972 b 60 953 56 972 51 963 l 542 328 l 304 19 b 313 0 294 10 300 0 l 378 0 b 413 24 394 0 401 10 l 1128 953 b 1119 972 1136 963 1132 972 z "},"Ў":{"ha":1188,"x_min":0,"x_max":0,"o":"m 578 1061 l 635 1061 b 800 1235 746 1061 800 1118 b 782 1250 800 1246 796 1250 l 742 1250 b 724 1235 728 1250 724 1246 b 629 1128 722 1174 692 1128 l 583 1128 b 489 1235 521 1128 490 1174 b 469 1250 489 1246 483 1250 l 431 1250 b 413 1235 417 1250 413 1246 b 578 1061 413 1118 468 1061 z m 1119 972 l 1054 972 b 1019 949 1038 972 1031 963 l 593 396 l 168 949 b 133 972 157 963 150 972 l 68 972 b 60 953 56 972 51 963 l 542 328 l 304 19 b 313 0 294 10 300 0 l 378 0 b 413 24 394 0 401 10 l 1128 953 b 1119 972 1136 963 1132 972 z "},"Ф":{"ha":1411,"x_min":0,"x_max":0,"o":"m 1071 839 l 751 839 l 751 953 b 732 972 751 967 746 972 l 679 972 b 660 953 665 972 660 967 l 660 839 l 339 839 b 83 592 167 839 83 757 l 83 381 b 339 133 83 215 167 133 l 660 133 l 660 19 b 679 0 660 6 665 0 l 732 0 b 751 19 746 0 751 6 l 751 133 l 1071 133 b 1328 381 1243 133 1328 215 l 1328 592 b 1071 839 1328 757 1243 839 z m 351 218 b 175 393 228 218 175 269 l 175 581 b 351 754 175 703 228 754 l 660 754 l 660 218 z m 1235 393 b 1060 218 1235 269 1183 218 l 751 218 l 751 754 l 1060 754 b 1235 581 1183 754 1235 703 z "},"Х":{"ha":1351,"x_min":0,"x_max":0,"o":"m 1289 19 l 742 486 l 1289 953 b 1286 972 1301 964 1297 972 l 1194 972 b 1156 951 1179 972 1171 965 l 676 542 l 196 951 b 157 972 181 965 172 972 l 65 972 b 63 953 54 972 51 964 l 610 486 l 63 19 b 65 0 51 8 54 0 l 157 0 b 196 21 172 0 181 7 l 676 431 l 1156 21 b 1194 0 1171 7 1179 0 l 1286 0 b 1289 19 1297 0 1301 8 z "},"Ч":{"ha":1404,"x_min":0,"x_max":0,"o":"m 1294 972 l 1242 972 b 1222 953 1228 972 1222 967 l 1222 469 b 1046 296 1222 346 1171 296 l 358 296 b 182 469 235 296 182 346 l 182 953 b 163 972 182 967 176 972 l 110 972 b 90 953 96 972 90 967 l 90 458 b 346 211 90 292 174 211 l 1028 211 b 1222 286 1122 211 1185 236 l 1222 19 b 1242 0 1222 6 1228 0 l 1294 0 b 1314 19 1308 0 1314 6 l 1314 953 b 1294 972 1314 967 1308 972 z "},"Ц":{"ha":1399,"x_min":0,"x_max":0,"o":"m 1336 85 l 1286 85 l 1286 954 b 1268 972 1286 968 1282 972 l 1213 972 b 1194 954 1199 972 1194 968 l 1194 85 l 182 85 l 182 954 b 164 972 182 968 178 972 l 108 972 b 90 954 94 972 90 968 l 90 21 b 111 0 90 7 97 0 l 1265 0 l 1265 -117 b 1283 -135 1265 -131 1269 -135 l 1339 -135 b 1357 -117 1353 -135 1357 -131 l 1357 64 b 1336 85 1357 78 1350 85 z "},"Ш":{"ha":1717,"x_min":0,"x_max":0,"o":"m 111 0 l 1606 0 b 1626 21 1619 0 1626 7 l 1626 954 b 1608 972 1626 968 1622 972 l 1553 972 b 1535 954 1539 972 1535 968 l 1535 85 l 904 85 l 904 954 b 886 972 904 968 900 972 l 831 972 b 813 954 817 972 813 968 l 813 85 l 182 85 l 182 954 b 164 972 182 968 178 972 l 108 972 b 90 954 94 972 90 968 l 90 21 b 111 0 90 7 97 0 z "},"Щ":{"ha":1739,"x_min":0,"x_max":0,"o":"m 1676 85 l 1626 85 l 1626 954 b 1608 972 1626 968 1622 972 l 1553 972 b 1535 954 1539 972 1535 968 l 1535 85 l 904 85 l 904 954 b 886 972 904 968 900 972 l 831 972 b 813 954 817 972 813 968 l 813 85 l 182 85 l 182 954 b 164 972 182 968 178 972 l 108 972 b 90 954 94 972 90 968 l 90 21 b 111 0 90 7 97 0 l 1606 0 l 1606 -117 b 1624 -135 1606 -131 1610 -135 l 1679 -135 b 1697 -117 1693 -135 1697 -131 l 1697 64 b 1676 85 1697 78 1690 85 z "},"Ь":{"ha":1315,"x_min":0,"x_max":0,"o":"m 976 733 l 182 733 l 182 953 b 163 972 182 967 176 972 l 110 972 b 90 953 96 972 90 967 l 90 19 b 110 0 90 6 96 0 l 976 0 b 1232 247 1150 0 1232 82 l 1232 486 b 976 733 1232 653 1150 733 z m 1140 260 b 964 85 1140 136 1088 85 l 182 85 l 182 649 l 964 649 b 1140 475 1088 649 1140 599 z "},"Ъ":{"ha":1453,"x_min":0,"x_max":0,"o":"m 1114 733 l 319 733 l 319 953 b 300 972 319 967 314 972 l 61 972 b 42 953 47 972 42 967 l 42 904 b 61 885 42 890 47 885 l 228 885 l 228 19 b 247 0 228 6 233 0 l 1114 0 b 1369 247 1288 0 1369 82 l 1369 486 b 1114 733 1369 653 1288 733 z m 1278 260 b 1101 85 1278 136 1225 85 l 319 85 l 319 649 l 1101 649 b 1278 475 1225 649 1278 599 z "},"Ы":{"ha":1588,"x_min":0,"x_max":0,"o":"m 976 733 l 182 733 l 182 953 b 163 972 182 967 176 972 l 110 972 b 90 953 96 972 90 967 l 90 19 b 110 0 90 6 96 0 l 976 0 b 1232 247 1150 0 1232 82 l 1232 486 b 976 733 1232 653 1150 733 z m 1478 972 l 1425 972 b 1406 953 1411 972 1406 967 l 1406 19 b 1425 0 1406 6 1411 0 l 1478 0 b 1497 19 1492 0 1497 6 l 1497 953 b 1478 972 1497 967 1492 972 z m 1140 260 b 964 85 1140 136 1088 85 l 182 85 l 182 649 l 964 649 b 1140 475 1088 649 1140 599 z "},"Є":{"ha":1404,"x_min":0,"x_max":0,"o":"m 1253 685 l 1313 685 b 1328 701 1324 685 1328 690 l 1328 731 b 1074 978 1328 896 1246 978 l 339 978 b 83 731 167 978 83 896 l 83 242 b 339 -6 83 76 167 -6 l 1074 -6 b 1328 219 1246 -6 1328 74 l 1328 239 b 1313 256 1328 250 1324 256 l 1251 256 b 1235 239 1240 256 1235 250 l 1235 231 b 1057 79 1235 129 1183 79 l 351 79 b 175 254 228 79 175 131 l 175 444 l 539 444 b 558 464 553 444 558 450 l 558 508 b 539 528 558 522 553 528 l 175 528 l 175 719 b 351 893 175 842 228 893 l 1057 893 b 1235 719 1182 893 1235 840 l 1235 701 b 1253 685 1235 690 1240 685 z "},"Э":{"ha":1404,"x_min":0,"x_max":0,"o":"m 1065 978 l 331 978 b 78 731 158 978 78 896 l 78 701 b 92 685 78 690 81 685 l 151 685 b 169 701 165 685 169 690 l 169 719 b 349 893 169 840 222 893 l 1053 893 b 1229 719 1178 893 1229 842 l 1229 528 l 865 528 b 846 508 851 528 846 522 l 846 464 b 865 444 846 450 851 444 l 1229 444 l 1229 254 b 1053 79 1229 131 1178 79 l 347 79 b 169 231 221 79 169 129 l 169 239 b 153 256 169 250 165 256 l 92 256 b 78 239 81 256 78 250 l 78 219 b 331 -6 78 74 158 -6 l 1065 -6 b 1321 242 1238 -6 1321 76 l 1321 731 b 1065 978 1321 896 1238 978 z "},"І":{"ha":272,"x_min":0,"x_max":0,"o":"m 90 953 l 90 19 b 110 0 90 6 96 0 l 163 0 b 182 19 176 0 182 6 l 182 953 b 163 972 182 967 176 972 l 110 972 b 90 953 96 972 90 967 z "},"Ї":{"ha":272,"x_min":0,"x_max":0,"o":"m -75 1151 l -14 1151 b 6 1171 0 1151 6 1157 l 6 1232 b -14 1250 6 1246 0 1250 l -75 1250 b -93 1232 -89 1250 -93 1246 l -93 1171 b -75 1151 -93 1157 -89 1151 z m 254 1151 l 315 1151 b 333 1171 329 1151 333 1157 l 333 1232 b 315 1250 333 1246 329 1250 l 254 1250 b 235 1232 240 1250 235 1246 l 235 1171 b 254 1151 235 1157 240 1151 z m 90 953 l 90 19 b 110 0 90 6 96 0 l 163 0 b 182 19 176 0 182 6 l 182 953 b 163 972 182 967 176 972 l 110 972 b 90 953 96 972 90 967 z "},"Ј":{"ha":1342,"x_min":0,"x_max":0,"o":"m 96 0 l 996 0 b 1251 247 1168 0 1251 82 l 1251 953 b 1232 972 1251 967 1246 972 l 1179 972 b 1160 953 1165 972 1160 967 l 1160 260 b 985 85 1160 136 1108 85 l 96 85 b 76 65 82 85 76 79 l 76 19 b 96 0 76 6 82 0 z "},"Ю":{"ha":1697,"x_min":0,"x_max":0,"o":"m 1357 978 l 625 978 b 369 731 453 978 369 896 l 369 539 l 182 539 l 182 953 b 163 972 182 967 176 972 l 110 972 b 90 953 96 972 90 967 l 90 19 b 110 0 90 6 96 0 l 163 0 b 182 19 176 0 182 6 l 182 456 l 369 456 l 369 242 b 625 -6 369 76 453 -6 l 1357 -6 b 1614 242 1529 -6 1614 76 l 1614 731 b 1357 978 1614 896 1529 978 z m 1521 254 b 1346 79 1521 131 1469 79 l 638 79 b 461 254 514 79 461 131 l 461 719 b 638 893 461 842 514 893 l 1346 893 b 1521 719 1469 893 1521 842 z "},"Я":{"ha":1324,"x_min":0,"x_max":0,"o":"m 1214 972 l 347 972 b 92 725 175 972 92 890 l 92 529 b 263 290 92 393 147 314 l 88 26 b 104 0 78 10 89 0 l 158 0 b 183 15 169 0 176 4 l 360 282 l 1142 282 l 1142 19 b 1161 0 1142 6 1147 0 l 1214 0 b 1233 19 1228 0 1233 6 l 1233 953 b 1214 972 1233 967 1228 972 z m 360 367 b 183 540 235 367 183 417 l 183 714 b 360 888 183 836 235 888 l 1142 888 l 1142 367 z "},"Ӏ":{"ha":272,"x_min":0,"x_max":0,"o":"m 90 953 l 90 19 b 110 0 90 6 96 0 l 163 0 b 182 19 176 0 182 6 l 182 953 b 163 972 182 967 176 972 l 110 972 b 90 953 96 972 90 967 z "},"Ӣ":{"ha":1351,"x_min":0,"x_max":0,"o":"m 433 1165 l 883 1165 b 904 1186 896 1165 904 1172 l 904 1229 b 883 1250 904 1243 896 1250 l 433 1250 b 413 1229 419 1250 413 1243 l 413 1186 b 433 1165 413 1172 419 1165 z m 1242 0 b 1261 19 1256 0 1261 6 l 1261 953 b 1242 972 1261 967 1256 972 l 1149 972 b 1124 958 1138 972 1132 967 l 192 97 l 182 97 l 182 953 b 163 972 182 967 176 972 l 110 972 b 90 953 96 972 90 967 l 90 19 b 110 0 90 6 96 0 l 203 0 b 228 14 214 0 219 6 l 1160 875 l 1169 875 l 1169 19 b 1189 0 1169 6 1175 0 z "},"Ө":{"ha":1411,"x_min":0,"x_max":0,"o":"m 1071 978 l 339 978 b 83 731 167 978 83 896 l 83 242 b 339 -6 83 76 167 -6 l 1071 -6 b 1328 242 1243 -6 1328 76 l 1328 731 b 1071 978 1328 896 1243 978 z m 351 893 l 1060 893 b 1235 719 1183 893 1235 842 l 1235 529 l 175 529 l 175 719 b 351 893 175 842 228 893 z m 1060 79 l 351 79 b 175 254 228 79 175 131 l 175 446 l 1235 446 l 1235 254 b 1060 79 1235 131 1183 79 z "},"Ӭ":{"ha":1306,"x_min":0,"x_max":0,"o":"m 428 1151 l 489 1151 b 508 1171 503 1151 508 1157 l 508 1232 b 489 1250 508 1246 503 1250 l 428 1250 b 410 1232 414 1250 410 1246 l 410 1171 b 428 1151 410 1157 414 1151 z m 757 1151 l 818 1151 b 836 1171 832 1151 836 1157 l 836 1232 b 818 1250 836 1246 832 1250 l 757 1250 b 738 1232 743 1250 738 1246 l 738 1171 b 757 1151 738 1157 743 1151 z m 1065 978 l 331 978 b 78 731 158 978 78 896 l 78 701 b 92 685 78 690 81 685 l 151 685 b 169 701 165 685 169 690 l 169 719 b 349 893 169 840 222 893 l 1053 893 b 1229 719 1178 893 1229 842 l 1229 528 l 865 528 b 846 508 851 528 846 522 l 846 464 b 865 444 846 450 851 444 l 1229 444 l 1229 254 b 1053 79 1229 131 1178 79 l 347 79 b 169 231 221 79 169 129 l 169 239 b 153 256 169 250 165 256 l 92 256 b 78 239 81 256 78 250 l 78 219 b 331 -6 78 74 158 -6 l 1065 -6 b 1321 242 1238 -6 1321 76 l 1321 731 b 1065 978 1321 896 1238 978 z "},"Ӯ":{"ha":1188,"x_min":0,"x_max":0,"o":"m 382 1165 l 832 1165 b 853 1186 844 1165 853 1172 l 853 1229 b 832 1250 853 1243 844 1250 l 382 1250 b 361 1229 368 1250 361 1243 l 361 1186 b 382 1165 361 1172 368 1165 z m 1119 972 l 1054 972 b 1019 949 1038 972 1031 963 l 593 396 l 168 949 b 133 972 157 963 150 972 l 68 972 b 60 953 56 972 51 963 l 542 328 l 304 19 b 313 0 294 10 300 0 l 378 0 b 413 24 394 0 401 10 l 1128 953 b 1119 972 1136 963 1132 972 z "},"а":{"ha":1003,"x_min":0,"x_max":0,"o":"m 251 -7 l 608 -7 b 836 99 721 -7 793 42 l 844 99 l 844 19 b 864 0 844 6 850 0 l 914 0 b 933 19 928 0 933 6 l 933 449 b 665 700 933 621 864 700 l 306 700 b 82 538 146 700 82 640 b 106 508 82 515 89 508 l 149 508 b 171 526 164 508 169 514 b 319 619 179 590 214 619 l 650 619 b 844 442 806 619 844 568 l 844 397 l 249 397 b 42 200 118 397 42 342 b 251 -7 42 60 121 -7 z m 253 76 b 131 201 175 76 131 108 b 253 324 131 296 175 324 l 844 324 l 844 229 b 653 76 844 142 765 76 z "},"б":{"ha":1022,"x_min":0,"x_max":0,"o":"m 363 -7 l 719 -7 b 960 231 878 -7 960 76 l 960 461 b 719 700 960 618 878 700 l 363 700 b 168 622 242 700 206 672 l 158 622 l 158 758 b 253 865 158 825 178 865 b 504 851 361 865 421 851 b 676 956 607 851 676 885 b 661 972 676 967 674 972 l 604 972 b 586 963 594 972 592 971 b 489 929 568 936 546 929 b 244 943 404 929 340 943 b 69 761 94 943 69 869 l 69 19 b 89 0 69 6 75 0 l 139 0 b 158 19 153 0 158 6 l 158 72 l 168 72 b 363 -7 206 21 242 -7 z m 313 76 b 158 233 211 76 158 124 l 158 458 b 313 617 158 569 211 617 l 715 617 b 871 458 818 617 871 569 l 871 233 b 715 76 871 124 818 76 z "},"в":{"ha":974,"x_min":0,"x_max":0,"o":"m 90 0 l 706 0 b 911 192 838 0 911 46 b 813 351 911 254 893 322 l 813 363 b 892 503 885 396 892 461 b 700 694 892 643 817 694 l 90 694 b 69 674 76 694 69 688 l 69 21 b 90 0 69 7 76 0 z m 158 392 l 158 614 l 696 614 b 804 501 763 614 804 582 b 714 392 804 447 783 392 z m 158 81 l 158 321 l 715 319 b 824 194 783 319 824 282 b 703 81 824 96 772 81 z "},"г":{"ha":932,"x_min":0,"x_max":0,"o":"m 857 694 l 89 694 b 69 675 75 694 69 689 l 69 19 b 89 0 69 6 75 0 l 139 0 b 158 19 153 0 158 6 l 158 614 l 857 614 b 876 633 871 614 876 619 l 876 675 b 857 694 876 689 871 694 z "},"ѓ":{"ha":932,"x_min":0,"x_max":0,"o":"m 432 763 l 478 763 b 511 788 492 763 499 772 l 638 947 b 631 972 650 963 646 972 l 550 972 b 518 947 536 972 528 964 l 422 788 b 432 763 413 772 418 763 z m 857 694 l 89 694 b 69 675 75 694 69 689 l 69 19 b 89 0 69 6 75 0 l 139 0 b 158 19 153 0 158 6 l 158 614 l 857 614 b 876 633 871 614 876 619 l 876 675 b 857 694 876 689 871 694 z "},"ґ":{"ha":932,"x_min":0,"x_max":0,"o":"m 860 769 l 804 769 b 788 753 792 769 788 764 l 788 694 l 89 694 b 69 675 75 694 69 689 l 69 19 b 89 0 69 6 75 0 l 139 0 b 158 19 153 0 158 6 l 158 614 l 857 614 b 876 633 871 614 876 619 l 876 753 b 860 769 876 764 872 769 z "},"д":{"ha":1211,"x_min":0,"x_max":0,"o":"m 1149 81 l 1094 81 l 1094 674 b 1074 694 1094 688 1088 694 l 231 694 b 210 674 217 694 210 688 l 210 324 b 79 81 210 143 144 81 l 63 81 b 42 60 49 81 42 74 l 42 -86 b 58 -103 42 -97 46 -103 l 114 -103 b 131 -86 126 -103 131 -97 l 131 0 l 1081 0 l 1081 -86 b 1097 -103 1081 -97 1085 -103 l 1153 -103 b 1169 -86 1165 -103 1169 -97 l 1169 60 b 1149 81 1169 74 1163 81 z m 225 81 b 299 319 272 131 299 211 l 299 614 l 1006 614 l 1006 81 z "},"е":{"ha":1013,"x_min":0,"x_max":0,"o":"m 710 700 l 303 700 b 63 463 143 700 63 619 l 63 229 b 303 -7 63 75 143 -7 l 686 -7 b 929 76 843 -7 892 26 b 929 100 938 88 940 94 l 897 117 b 867 115 885 124 876 122 b 686 76 817 82 788 76 l 307 76 b 151 233 206 76 151 124 l 151 311 l 892 311 b 950 368 935 311 950 326 l 950 461 b 710 700 950 617 868 700 z m 861 383 l 151 383 l 151 458 b 307 617 151 569 206 617 l 704 617 b 861 458 807 617 861 569 z "},"ё":{"ha":1013,"x_min":0,"x_max":0,"o":"m 293 874 l 354 874 b 374 893 368 874 374 879 l 374 954 b 354 972 374 968 368 972 l 293 972 b 275 954 279 972 275 968 l 275 893 b 293 874 275 879 279 874 z m 622 874 l 683 874 b 701 893 697 874 701 879 l 701 954 b 683 972 701 968 697 972 l 622 972 b 603 954 608 972 603 968 l 603 893 b 622 874 603 879 608 874 z m 710 700 l 303 700 b 63 463 143 700 63 619 l 63 229 b 303 -7 63 75 143 -7 l 686 -7 b 929 76 843 -7 892 26 b 929 100 938 88 940 94 l 897 117 b 867 115 885 124 876 122 b 686 76 817 82 788 76 l 307 76 b 151 233 206 76 151 124 l 151 311 l 892 311 b 950 368 935 311 950 326 l 950 461 b 710 700 950 617 868 700 z m 861 383 l 151 383 l 151 458 b 307 617 151 569 206 617 l 704 617 b 861 458 807 617 861 569 z "},"ж":{"ha":1371,"x_min":0,"x_max":0,"o":"m 56 0 l 143 0 b 189 18 158 0 172 8 l 642 294 l 642 19 b 661 0 642 6 647 0 l 710 0 b 731 19 724 0 731 6 l 731 294 l 1182 18 b 1229 0 1200 8 1213 0 l 1315 0 b 1322 21 1331 0 1333 14 l 786 347 l 1300 668 b 1299 694 1317 679 1313 694 l 1217 694 b 1188 685 1206 694 1199 690 l 731 400 l 731 675 b 710 694 731 689 724 694 l 661 694 b 642 675 647 694 642 689 l 642 400 l 183 685 b 154 694 174 690 165 694 l 72 694 b 71 668 58 694 54 679 l 586 347 l 49 21 b 56 0 38 14 40 0 z "},"з":{"ha":1011,"x_min":0,"x_max":0,"o":"m 267 -8 l 731 -8 b 949 186 860 -8 949 50 b 860 346 949 251 936 317 l 860 357 b 942 507 936 385 942 440 b 731 701 942 631 860 701 l 267 701 b 63 508 139 701 63 633 b 78 493 63 499 67 493 l 139 493 b 154 508 149 493 154 499 b 271 618 154 568 192 618 l 728 618 b 851 504 808 618 851 579 b 757 388 851 435 839 388 l 285 388 b 271 374 275 388 271 385 l 271 328 b 285 314 271 317 275 314 l 757 314 b 857 188 839 314 857 257 b 728 75 857 106 807 75 l 271 75 b 154 175 190 75 154 118 b 139 190 154 186 149 190 l 78 190 b 63 175 67 190 63 186 b 267 -8 63 51 139 -8 z "},"и":{"ha":1022,"x_min":0,"x_max":0,"o":"m 89 694 b 69 675 75 694 69 689 l 69 19 b 89 0 69 6 75 0 l 176 0 b 204 15 188 0 193 4 l 853 607 l 861 607 l 861 19 b 881 0 861 6 867 0 l 933 0 b 953 19 947 0 953 6 l 953 675 b 933 694 953 689 947 694 l 846 694 b 818 679 835 694 829 690 l 169 88 l 161 88 l 161 675 b 142 694 161 689 156 694 z "},"й":{"ha":1022,"x_min":0,"x_max":0,"o":"m 483 783 l 540 783 b 706 957 651 783 706 840 b 688 972 706 968 701 972 l 647 972 b 629 957 633 972 629 968 b 535 850 628 896 597 850 l 489 850 b 394 957 426 850 396 896 b 375 972 394 968 389 972 l 336 972 b 318 957 322 972 318 968 b 483 783 318 840 374 783 z m 89 694 b 69 675 75 694 69 689 l 69 19 b 89 0 69 6 75 0 l 176 0 b 204 15 188 0 193 4 l 853 607 l 861 607 l 861 19 b 881 0 861 6 867 0 l 933 0 b 953 19 947 0 953 6 l 953 675 b 933 694 953 689 947 694 l 846 694 b 818 679 835 694 829 690 l 169 88 l 161 88 l 161 675 b 142 694 161 689 156 694 z "},"ѝ":{"ha":1022,"x_min":0,"x_max":0,"o":"m 453 947 b 424 972 444 964 438 972 l 347 972 b 333 947 332 972 321 963 l 458 785 b 490 763 471 769 476 763 l 536 763 b 547 788 550 763 557 772 z m 89 694 b 69 675 75 694 69 689 l 69 19 b 89 0 69 6 75 0 l 176 0 b 204 15 188 0 193 4 l 853 607 l 861 607 l 861 19 b 881 0 861 6 867 0 l 933 0 b 953 19 947 0 953 6 l 953 675 b 933 694 953 689 947 694 l 846 694 b 818 679 835 694 829 690 l 169 88 l 161 88 l 161 675 b 142 694 161 689 156 694 z "},"к":{"ha":800,"x_min":0,"x_max":0,"o":"m 750 21 l 214 347 l 729 668 b 728 694 744 679 742 694 l 646 694 b 617 685 633 694 626 690 l 158 400 l 158 675 b 139 694 158 689 153 694 l 89 694 b 69 675 75 694 69 689 l 69 19 b 89 0 69 6 75 0 l 139 0 b 158 19 153 0 158 6 l 158 294 l 611 18 b 657 0 628 8 640 0 l 743 0 b 750 21 760 0 763 14 z "},"ќ":{"ha":800,"x_min":0,"x_max":0,"o":"m 463 947 l 367 788 b 376 763 357 772 363 763 l 422 763 b 456 788 436 763 443 772 l 582 947 b 575 972 594 963 590 972 l 494 972 b 463 947 481 972 472 964 z m 750 21 l 214 347 l 729 668 b 728 694 744 679 742 694 l 646 694 b 617 685 633 694 626 690 l 158 400 l 158 675 b 139 694 158 689 153 694 l 89 694 b 69 675 75 694 69 689 l 69 19 b 89 0 69 6 75 0 l 139 0 b 158 19 153 0 158 6 l 158 294 l 611 18 b 657 0 628 8 640 0 l 743 0 b 750 21 760 0 763 14 z "},"л":{"ha":1085,"x_min":0,"x_max":0,"o":"m 56 -14 b 204 161 165 -14 204 44 l 204 614 l 926 614 l 926 17 b 943 0 926 6 931 0 l 999 0 b 1015 17 1011 0 1015 6 l 1015 678 b 999 694 1015 689 1011 694 l 132 694 b 115 678 119 694 115 689 l 115 169 b 25 67 115 90 90 67 b 0 46 6 67 0 60 l 0 13 b 56 -14 0 -7 14 -14 z "},"м":{"ha":1194,"x_min":0,"x_max":0,"o":"m 89 0 l 139 0 b 158 19 153 0 158 6 l 158 585 l 169 585 l 551 69 b 576 54 560 58 565 54 l 618 54 b 644 69 632 54 636 58 l 1025 585 l 1036 585 l 1036 19 b 1056 0 1036 6 1042 0 l 1106 0 b 1125 19 1119 0 1125 6 l 1125 675 b 1106 694 1125 689 1119 694 l 1031 694 b 1001 676 1019 694 1010 688 l 597 139 l 193 676 b 164 694 185 688 175 694 l 89 694 b 69 675 75 694 69 689 l 69 19 b 89 0 69 6 75 0 z "},"н":{"ha":1003,"x_min":0,"x_max":0,"o":"m 914 694 l 864 694 b 844 675 850 694 844 689 l 844 392 l 158 392 l 158 675 b 139 694 158 689 153 694 l 89 694 b 69 675 75 694 69 689 l 69 19 b 89 0 69 6 75 0 l 139 0 b 158 19 153 0 158 6 l 158 307 l 844 307 l 844 19 b 864 0 844 6 850 0 l 914 0 b 933 19 928 0 933 6 l 933 675 b 914 694 933 689 928 694 z "},"о":{"ha":1015,"x_min":0,"x_max":0,"o":"m 303 -7 l 713 -7 b 953 229 872 -7 953 75 l 953 463 b 713 700 953 619 872 700 l 303 700 b 63 463 143 700 63 619 l 63 229 b 303 -7 63 75 143 -7 z m 307 76 b 151 233 206 76 151 124 l 151 458 b 307 617 151 569 206 617 l 708 617 b 864 458 811 617 864 569 l 864 233 b 708 76 864 124 811 76 z "},"п":{"ha":1071,"x_min":0,"x_max":0,"o":"m 982 694 l 89 694 b 69 675 75 694 69 689 l 69 19 b 89 0 69 6 75 0 l 139 0 b 158 19 153 0 158 6 l 158 611 l 913 611 l 913 19 b 932 0 913 6 918 0 l 982 0 b 1001 19 996 0 1001 6 l 1001 675 b 982 694 1001 689 996 694 z "},"р":{"ha":1024,"x_min":0,"x_max":0,"o":"m 139 -246 b 158 -226 153 -246 158 -240 l 158 72 l 168 72 b 363 -7 206 21 242 -7 l 719 -7 b 960 232 878 -7 960 75 l 960 463 b 719 700 960 618 878 700 l 363 700 b 168 622 242 700 206 672 l 158 622 l 158 675 b 139 694 158 689 153 694 l 89 694 b 69 675 75 694 69 689 l 69 -226 b 89 -246 69 -240 75 -246 z m 715 76 l 313 76 b 158 235 211 76 158 124 l 158 460 b 313 617 158 569 211 617 l 715 617 b 871 460 818 617 871 569 l 871 235 b 715 76 871 124 818 76 z "},"с":{"ha":1001,"x_min":0,"x_max":0,"o":"m 303 -7 l 686 -7 b 929 76 843 -7 892 26 b 929 100 938 88 940 94 l 897 117 b 867 115 885 124 876 122 b 686 76 817 82 788 76 l 307 76 b 151 233 206 76 151 124 l 151 458 b 307 617 151 569 206 617 l 708 617 b 857 500 811 617 857 576 l 857 468 b 878 453 857 458 865 453 l 926 453 b 946 471 939 453 946 460 l 946 504 b 718 700 946 632 872 700 l 303 700 b 63 463 143 700 63 619 l 63 229 b 303 -7 63 75 143 -7 z "},"т":{"ha":1001,"x_min":0,"x_max":0,"o":"m 926 694 l 75 694 b 56 675 61 694 56 689 l 56 631 b 75 611 56 617 61 611 l 458 611 l 458 19 b 478 0 458 6 464 0 l 526 0 b 546 19 540 0 546 6 l 546 611 l 926 611 b 946 631 940 611 946 617 l 946 675 b 926 694 946 689 940 694 z "},"у":{"ha":1063,"x_min":0,"x_max":0,"o":"m 997 694 l 935 694 b 906 671 921 694 914 685 l 539 103 l 524 103 l 157 671 b 128 694 149 685 142 694 l 65 694 b 53 671 51 694 43 686 l 474 25 b 481 15 476 21 478 18 l 321 -228 b 333 -251 311 -243 319 -251 l 397 -251 b 425 -228 411 -251 417 -242 l 586 22 b 589 25 588 22 588 24 l 1010 671 b 997 694 1019 686 1011 694 z "},"ў":{"ha":1063,"x_min":0,"x_max":0,"o":"m 503 783 l 560 783 b 725 957 671 783 725 840 b 707 972 725 968 721 972 l 667 972 b 649 957 653 972 649 968 b 554 850 647 896 617 850 l 508 850 b 414 957 446 850 415 896 b 394 972 414 968 408 972 l 356 972 b 338 957 342 972 338 968 b 503 783 338 840 393 783 z m 997 694 l 935 694 b 906 671 921 694 914 685 l 539 103 l 524 103 l 157 671 b 128 694 149 685 142 694 l 65 694 b 53 671 51 694 43 686 l 474 25 b 481 15 476 21 478 18 l 321 -228 b 333 -251 311 -243 319 -251 l 397 -251 b 425 -228 411 -251 417 -242 l 586 22 b 589 25 588 22 588 24 l 1010 671 b 997 694 1019 686 1011 694 z "},"ф":{"ha":1818,"x_min":0,"x_max":0,"o":"m 1514 700 l 1158 700 b 964 622 1038 700 1000 672 l 953 622 l 953 953 b 933 972 953 967 947 972 l 883 972 b 864 953 871 972 864 967 l 864 622 l 854 622 b 660 700 817 672 781 700 l 304 700 b 63 461 144 700 63 618 l 63 231 b 304 -7 63 76 144 -7 l 660 -7 b 854 72 781 -7 817 21 l 864 72 l 864 -226 b 885 -246 864 -240 871 -246 l 933 -246 b 953 -226 947 -246 953 -240 l 953 72 l 964 72 b 1158 -7 1000 21 1038 -7 l 1514 -7 b 1756 232 1672 -7 1756 75 l 1756 463 b 1514 700 1756 618 1672 700 z m 710 76 l 307 76 b 151 233 206 76 151 124 l 151 458 b 307 617 151 569 206 617 l 710 617 b 864 458 811 617 864 569 l 864 233 b 710 76 864 124 811 76 z m 1667 235 b 1511 76 1667 124 1613 76 l 1108 76 b 953 235 1007 76 953 124 l 953 460 b 1108 617 953 569 1007 617 l 1511 617 b 1667 460 1613 617 1667 569 z "},"х":{"ha":972,"x_min":0,"x_max":0,"o":"m 915 26 l 547 347 l 915 668 b 908 694 931 682 925 694 l 839 694 b 796 669 828 694 817 688 l 486 400 l 176 669 b 133 694 156 688 144 694 l 64 694 b 57 668 47 694 42 682 l 425 347 l 57 26 b 65 0 42 13 49 0 l 135 0 b 178 25 146 0 157 7 l 486 294 l 794 25 b 838 0 815 7 826 0 l 907 0 b 915 26 924 0 931 13 z "},"ч":{"ha":1043,"x_min":0,"x_max":0,"o":"m 954 694 l 904 694 b 885 675 890 694 885 689 l 885 374 b 724 217 885 264 825 217 l 314 217 b 158 374 213 217 158 264 l 158 675 b 139 694 158 689 153 694 l 89 694 b 69 675 75 694 69 689 l 69 371 b 311 133 69 217 151 133 l 718 133 b 885 213 788 133 846 158 l 885 19 b 904 0 885 6 890 0 l 954 0 b 974 19 968 0 974 6 l 974 675 b 954 694 974 689 968 694 z "},"ц":{"ha":1106,"x_min":0,"x_max":0,"o":"m 1029 83 l 953 83 l 953 674 b 932 694 953 688 946 694 l 885 694 b 864 674 871 694 864 688 l 864 83 l 179 83 l 179 674 b 158 694 179 688 172 694 l 111 694 b 90 674 97 694 90 688 l 90 21 b 111 0 90 7 97 0 l 961 0 l 961 -143 b 982 -164 961 -157 968 -164 l 1029 -164 b 1050 -143 1043 -164 1050 -157 l 1050 63 b 1029 83 1050 76 1043 83 z "},"ш":{"ha":1478,"x_min":0,"x_max":0,"o":"m 1367 694 l 1319 694 b 1299 674 1306 694 1299 688 l 1299 83 l 783 83 l 783 674 b 763 694 783 688 776 694 l 715 694 b 694 674 701 694 694 688 l 694 83 l 179 83 l 179 674 b 158 694 179 688 172 694 l 111 694 b 90 674 97 694 90 688 l 90 21 b 111 0 90 7 97 0 l 1367 0 b 1388 21 1381 0 1388 7 l 1388 674 b 1367 694 1388 688 1381 694 z "},"щ":{"ha":1540,"x_min":0,"x_max":0,"o":"m 1464 83 l 1388 83 l 1388 674 b 1367 694 1388 688 1381 694 l 1319 694 b 1299 674 1306 694 1299 688 l 1299 83 l 783 83 l 783 674 b 763 694 783 688 776 694 l 715 694 b 694 674 701 694 694 688 l 694 83 l 179 83 l 179 674 b 158 694 179 688 172 694 l 111 694 b 90 674 97 694 90 688 l 90 21 b 111 0 90 7 97 0 l 1397 0 l 1397 -143 b 1418 -164 1397 -157 1404 -164 l 1464 -164 b 1485 -143 1478 -164 1485 -157 l 1485 63 b 1464 83 1485 76 1478 83 z "},"ь":{"ha":1007,"x_min":0,"x_max":0,"o":"m 700 431 l 157 431 l 157 675 b 138 694 157 689 151 694 l 89 694 b 69 675 75 694 69 689 l 69 19 b 89 0 69 6 75 0 l 700 0 b 944 215 881 0 944 65 b 700 431 944 351 881 431 z m 693 83 l 157 83 l 157 347 l 693 347 b 857 215 819 347 857 306 b 693 83 857 113 819 83 z "},"ъ":{"ha":1050,"x_min":0,"x_max":0,"o":"m 744 431 l 200 431 l 200 675 b 181 694 200 689 194 694 l 40 694 b 21 675 26 694 21 689 l 21 631 b 40 611 21 617 26 611 l 113 611 l 113 19 b 132 0 113 6 118 0 l 744 0 b 988 215 924 0 988 65 b 744 431 988 351 924 431 z m 736 83 l 200 83 l 200 347 l 736 347 b 900 215 863 347 900 306 b 736 83 900 113 863 83 z "},"ы":{"ha":1211,"x_min":0,"x_max":0,"o":"m 700 431 l 157 431 l 157 675 b 138 694 157 689 151 694 l 89 694 b 69 675 75 694 69 689 l 69 19 b 89 0 69 6 75 0 l 700 0 b 944 215 881 0 944 65 b 700 431 944 351 881 431 z m 1121 694 l 1072 694 b 1053 675 1058 694 1053 689 l 1053 19 b 1072 0 1053 6 1058 0 l 1121 0 b 1142 19 1135 0 1142 6 l 1142 675 b 1121 694 1142 689 1135 694 z m 693 83 l 157 83 l 157 347 l 693 347 b 857 215 819 347 857 306 b 693 83 857 113 819 83 z "},"є":{"ha":1001,"x_min":0,"x_max":0,"o":"m 718 700 l 303 700 b 63 463 143 700 63 619 l 63 229 b 303 -7 63 75 143 -7 l 686 -7 b 929 76 843 -7 892 26 b 929 100 938 88 940 94 l 897 117 b 867 115 885 124 876 122 b 686 76 817 82 788 76 l 307 76 b 151 233 206 76 151 124 l 151 308 l 429 308 b 450 328 443 308 450 314 l 450 365 b 429 385 450 379 443 385 l 151 385 l 151 458 b 307 617 151 569 206 617 l 708 617 b 857 500 811 617 857 576 l 857 468 b 878 453 857 458 865 453 l 926 453 b 946 471 939 453 946 460 l 946 504 b 718 700 946 632 872 700 z "},"э":{"ha":1001,"x_min":0,"x_max":0,"o":"m 699 700 l 283 700 b 56 504 129 700 56 632 l 56 471 b 75 453 56 460 63 453 l 125 453 b 144 468 136 453 144 458 l 144 500 b 293 617 144 576 190 617 l 694 617 b 850 458 797 617 850 569 l 850 385 l 572 385 b 553 365 558 385 553 379 l 553 328 b 572 308 553 314 558 308 l 850 308 l 850 233 b 694 76 850 124 797 76 l 315 76 b 135 115 214 76 185 82 b 104 117 125 122 118 124 l 72 100 b 72 76 61 94 64 88 b 315 -7 110 26 158 -7 l 699 -7 b 939 229 858 -7 939 75 l 939 463 b 699 700 939 619 858 700 z "},"і":{"ha":228,"x_min":0,"x_max":0,"o":"m 69 953 l 69 904 b 89 883 69 890 75 883 l 139 883 b 158 904 153 883 158 890 l 158 953 b 139 972 158 967 153 972 l 89 972 b 69 953 75 972 69 967 z m 69 675 l 69 19 b 89 0 69 6 75 0 l 139 0 b 158 19 153 0 158 6 l 158 675 b 139 694 158 689 153 694 l 89 694 b 69 675 75 694 69 689 z "},"ї":{"ha":228,"x_min":0,"x_max":0,"o":"m -97 874 l -36 874 b -17 893 -22 874 -17 879 l -17 954 b -36 972 -17 968 -22 972 l -97 972 b -115 954 -111 972 -115 968 l -115 893 b -97 874 -115 879 -111 874 z m 232 874 l 293 874 b 311 893 307 874 311 879 l 311 954 b 293 972 311 968 307 972 l 232 972 b 213 954 218 972 213 968 l 213 893 b 232 874 213 879 218 874 z m 69 675 l 69 19 b 89 0 69 6 75 0 l 139 0 b 158 19 153 0 158 6 l 158 675 b 139 694 158 689 153 694 l 89 694 b 69 675 75 694 69 689 z "},"ј":{"ha":238,"x_min":0,"x_max":0,"o":"m 99 883 l 147 883 b 168 904 161 883 168 890 l 168 953 b 147 972 168 967 161 972 l 99 972 b 79 953 85 972 79 967 l 79 904 b 99 883 79 890 85 883 z m -67 -251 b 168 -12 86 -251 168 -169 l 168 675 b 147 694 168 689 161 694 l 99 694 b 79 675 85 694 79 689 l 79 -7 b -75 -169 79 -121 26 -169 l -137 -169 b -153 -183 -147 -169 -153 -174 l -153 -229 b -135 -247 -153 -239 -147 -246 b -67 -251 -111 -250 -92 -251 z "},"ю":{"ha":1272,"x_min":0,"x_max":0,"o":"m 969 700 l 560 700 b 319 463 400 700 319 619 l 319 379 l 158 379 l 158 674 b 139 693 158 688 153 693 l 89 693 b 69 674 75 693 69 688 l 69 18 b 89 -1 69 4 75 -1 l 139 -1 b 158 18 153 -1 158 4 l 158 303 l 319 303 l 319 229 b 560 -7 319 75 400 -7 l 969 -7 b 1210 229 1129 -7 1210 75 l 1210 463 b 969 700 1210 619 1129 700 z m 1121 233 b 965 76 1121 124 1068 76 l 564 76 b 408 233 461 76 408 124 l 408 458 b 564 617 408 569 461 617 l 965 617 b 1121 458 1068 617 1121 569 z "},"я":{"ha":982,"x_min":0,"x_max":0,"o":"m 132 0 b 151 19 146 0 151 6 l 151 196 b 254 313 151 278 182 313 l 824 313 l 824 19 b 843 0 824 6 829 0 l 893 0 b 913 19 907 0 913 6 l 913 675 b 893 694 913 689 907 694 l 258 694 b 72 510 143 694 72 638 b 157 356 72 467 81 393 b 63 197 78 325 63 256 l 63 19 b 82 0 63 6 68 0 z m 824 611 l 824 394 l 254 394 b 161 508 185 394 161 444 b 267 611 161 574 197 611 z "},"ӣ":{"ha":1022,"x_min":0,"x_max":0,"o":"m 288 888 l 738 888 b 758 908 750 888 758 894 l 758 951 b 738 972 758 965 750 972 l 288 972 b 267 951 274 972 267 965 l 267 908 b 288 888 267 894 274 888 z m 89 694 b 69 675 75 694 69 689 l 69 19 b 89 0 69 6 75 0 l 176 0 b 204 15 188 0 193 4 l 853 607 l 861 607 l 861 19 b 881 0 861 6 867 0 l 933 0 b 953 19 947 0 953 6 l 953 675 b 933 694 953 689 947 694 l 846 694 b 818 679 835 694 829 690 l 169 88 l 161 88 l 161 675 b 142 694 161 689 156 694 z "},"ө":{"ha":1015,"x_min":0,"x_max":0,"o":"m 713 701 l 303 701 b 63 465 143 701 63 619 l 63 232 b 303 -6 63 75 143 -6 l 713 -6 b 953 232 872 -6 953 75 l 953 465 b 713 701 953 619 872 701 z m 307 618 l 708 618 b 864 461 811 618 864 571 l 864 389 l 151 389 l 151 461 b 307 618 151 571 204 618 z m 708 78 l 307 78 b 151 236 204 78 151 125 l 151 306 l 864 306 l 864 236 b 708 78 864 125 811 78 z "},"ӭ":{"ha":1001,"x_min":0,"x_max":0,"o":"m 296 874 l 357 874 b 376 893 371 874 376 879 l 376 954 b 357 972 376 968 371 972 l 296 972 b 278 954 282 972 278 968 l 278 893 b 296 874 278 879 282 874 z m 625 874 l 686 874 b 704 893 700 874 704 879 l 704 954 b 686 972 704 968 700 972 l 625 972 b 606 954 611 972 606 968 l 606 893 b 625 874 606 879 611 874 z m 699 700 l 283 700 b 56 504 129 700 56 632 l 56 471 b 75 453 56 460 63 453 l 125 453 b 144 468 136 453 144 458 l 144 500 b 293 617 144 576 190 617 l 694 617 b 850 458 797 617 850 569 l 850 385 l 572 385 b 553 365 558 385 553 379 l 553 328 b 572 308 553 314 558 308 l 850 308 l 850 233 b 694 76 850 124 797 76 l 315 76 b 135 115 214 76 185 82 b 104 117 125 122 118 124 l 72 100 b 72 76 61 94 64 88 b 315 -7 110 26 158 -7 l 699 -7 b 939 229 858 -7 939 75 l 939 463 b 699 700 939 619 858 700 z "},"ӯ":{"ha":1063,"x_min":0,"x_max":0,"o":"m 314 888 l 764 888 b 785 908 776 888 785 894 l 785 951 b 764 972 785 965 776 972 l 314 972 b 293 951 300 972 293 965 l 293 908 b 314 888 293 894 300 888 z m 997 694 l 935 694 b 906 671 921 694 914 685 l 539 103 l 524 103 l 157 671 b 128 694 149 685 142 694 l 65 694 b 53 671 51 694 43 686 l 474 25 b 481 15 476 21 478 18 l 321 -228 b 333 -251 311 -243 319 -251 l 397 -251 b 425 -228 411 -251 417 -242 l 586 22 b 589 25 588 22 588 24 l 1010 671 b 997 694 1019 686 1011 694 z "},"Δ":{"ha":1157,"x_min":0,"x_max":0,"o":"m 1099 28 l 625 990 b 599 1013 618 1004 611 1013 l 560 1013 b 533 990 547 1013 540 1004 l 58 28 b 72 0 51 13 58 0 l 1083 0 b 1099 28 1097 0 1106 13 z m 183 92 l 579 903 l 972 92 z "},"Ω":{"ha":1335,"x_min":0,"x_max":0,"o":"m 1251 297 l 1251 739 b 978 1025 1251 924 1138 1025 l 358 1025 b 83 739 199 1025 83 924 l 83 297 b 199 92 83 200 125 138 l 104 92 b 83 71 90 92 83 85 l 83 21 b 104 0 83 7 90 0 l 353 0 b 374 21 367 0 374 7 l 374 74 b 353 94 374 88 367 94 l 349 94 b 175 308 260 94 175 193 l 175 733 b 363 933 175 871 249 933 l 972 933 b 1160 733 1086 933 1160 871 l 1160 308 b 986 94 1160 193 1075 94 l 982 94 b 961 74 968 94 961 88 l 961 21 b 982 0 961 7 968 0 l 1231 0 b 1251 21 1244 0 1251 7 l 1251 71 b 1231 92 1251 85 1244 92 l 1138 92 b 1251 297 1210 138 1251 200 z "},"μ":{"ha":1029,"x_min":0,"x_max":0,"o":"m 940 694 l 892 694 b 871 675 878 694 871 689 l 871 236 b 715 78 871 125 818 78 l 314 78 b 158 236 211 78 158 125 l 158 675 b 139 694 158 689 153 694 l 89 694 b 69 675 75 694 69 689 l 69 -258 b 89 -278 69 -272 75 -278 l 138 -278 b 157 -258 151 -278 157 -272 l 157 33 b 311 -6 196 7 247 -6 l 667 -6 b 861 74 788 -6 824 22 l 871 74 l 871 19 b 890 0 871 6 878 0 l 940 0 b 960 19 954 0 960 6 l 960 675 b 940 694 960 689 954 694 z "},"π":{"ha":1085,"x_min":0,"x_max":0,"o":"m 1008 694 l 75 694 b 56 674 61 694 56 688 l 56 624 b 76 603 56 610 61 603 l 138 603 l 138 21 b 158 0 138 7 144 0 l 208 0 b 229 21 222 0 229 7 l 229 603 l 854 603 l 854 21 b 875 0 854 7 861 0 l 925 0 b 946 21 939 0 946 7 l 946 603 l 1008 603 b 1029 622 1022 603 1029 610 l 1029 674 b 1008 694 1029 686 1022 694 z "},"¹":{"ha":419,"x_min":0,"x_max":0,"o":"m 167 951 l 167 564 b 188 543 167 550 174 543 l 232 543 b 253 564 246 543 253 550 l 253 951 b 232 972 253 965 246 972 l 188 972 b 167 951 174 972 167 965 z "},"²":{"ha":444,"x_min":0,"x_max":0,"o":"m 340 624 l 190 624 l 268 692 b 360 847 317 733 360 776 b 240 972 360 913 322 972 l 206 972 b 83 857 129 972 83 924 l 83 839 b 104 818 83 825 90 818 l 146 818 b 167 839 160 818 167 825 l 167 849 b 218 893 167 878 188 893 b 275 839 253 893 275 874 b 226 761 275 807 250 783 l 106 647 b 86 608 92 635 86 628 l 86 563 b 107 542 86 549 93 542 l 340 542 b 361 563 354 542 361 549 l 361 603 b 340 624 361 617 354 624 z "},"³":{"ha":451,"x_min":0,"x_max":0,"o":"m 301 757 b 360 853 343 778 360 810 b 243 972 360 913 322 972 l 208 972 b 86 857 132 972 86 924 l 86 839 b 107 818 86 825 93 818 l 149 818 b 169 839 163 818 169 825 l 169 849 b 224 893 169 878 190 893 b 278 840 258 893 278 874 b 226 793 278 810 264 793 l 204 793 b 185 772 192 793 185 786 l 185 742 b 204 721 185 728 192 721 l 226 721 b 281 674 267 721 281 704 b 224 621 281 640 261 621 b 167 665 188 621 167 636 l 167 675 b 146 696 167 689 160 696 l 104 696 b 83 675 90 696 83 689 l 83 657 b 208 542 83 590 129 542 l 243 542 b 368 661 331 542 368 601 b 301 757 368 704 346 736 z "},"⁄":{"ha":139,"x_min":0,"x_max":0,"o":"m 289 988 l -272 21 b -258 0 -281 7 -272 0 l -206 0 b -178 21 -192 0 -186 7 l 383 988 b 369 1008 392 1001 383 1008 l 317 1008 b 289 988 303 1008 297 1001 z "},"½":{"ha":1003,"x_min":0,"x_max":0,"o":"m 708 988 l 147 21 b 161 0 139 7 147 0 l 214 0 b 242 21 228 0 233 7 l 803 988 b 789 1008 811 1001 803 1008 l 736 1008 b 708 988 722 1008 717 1001 z m 167 951 l 167 564 b 188 543 167 550 174 543 l 232 543 b 253 564 246 543 253 550 l 253 951 b 232 972 253 965 246 972 l 188 972 b 167 951 174 972 167 965 z m 899 82 l 749 82 l 826 150 b 918 306 875 192 918 235 b 799 431 918 371 881 431 l 764 431 b 642 315 688 431 642 382 l 642 297 b 663 276 642 283 649 276 l 704 276 b 725 297 718 276 725 283 l 725 307 b 776 351 725 336 746 351 b 833 297 811 351 833 332 b 785 219 833 265 808 242 l 664 106 b 644 67 650 93 644 86 l 644 21 b 665 0 644 7 651 0 l 899 0 b 919 21 913 0 919 7 l 919 61 b 899 82 919 75 913 82 z "},"¼":{"ha":1025,"x_min":0,"x_max":0,"o":"m 708 988 l 147 21 b 161 0 139 7 147 0 l 214 0 b 242 21 228 0 233 7 l 803 988 b 789 1008 811 1001 803 1008 l 736 1008 b 708 988 722 1008 717 1001 z m 167 951 l 167 564 b 188 543 167 550 174 543 l 232 543 b 253 564 246 543 253 550 l 253 951 b 232 972 253 965 246 972 l 188 972 b 167 951 174 972 167 965 z m 921 150 l 901 150 l 901 410 b 881 431 901 424 894 431 l 811 431 b 788 415 803 431 793 426 l 649 151 b 642 126 646 146 642 138 l 642 92 b 665 71 642 78 650 71 l 818 71 l 818 21 b 839 0 818 7 825 0 l 881 0 b 901 21 894 0 901 7 l 901 71 l 921 71 b 942 92 935 71 942 78 l 942 129 b 921 150 942 143 935 150 z m 818 153 l 738 153 l 818 315 z "},"¾":{"ha":1057,"x_min":0,"x_max":0,"o":"m 740 988 l 179 21 b 193 0 171 7 179 0 l 246 0 b 274 21 260 0 265 7 l 835 988 b 821 1008 843 1001 835 1008 l 768 1008 b 740 988 754 1008 749 1001 z m 301 757 b 360 853 343 778 360 810 b 243 972 360 913 322 972 l 208 972 b 86 857 132 972 86 924 l 86 839 b 107 818 86 825 93 818 l 149 818 b 169 839 163 818 169 825 l 169 849 b 224 893 169 878 190 893 b 278 840 258 893 278 874 b 226 793 278 810 264 793 l 204 793 b 185 772 192 793 185 786 l 185 742 b 204 721 185 728 192 721 l 226 721 b 281 674 267 721 281 704 b 224 621 281 640 261 621 b 167 665 188 621 167 636 l 167 675 b 146 696 167 689 160 696 l 104 696 b 83 675 90 696 83 689 l 83 657 b 208 542 83 590 129 542 l 243 542 b 368 661 331 542 368 601 b 301 757 368 704 346 736 z m 953 150 l 933 150 l 933 410 b 913 431 933 424 926 431 l 843 431 b 819 415 835 431 825 426 l 681 151 b 674 126 678 146 674 138 l 674 92 b 697 71 674 78 682 71 l 850 71 l 850 21 b 871 0 850 7 857 0 l 913 0 b 933 21 926 0 933 7 l 933 71 l 953 71 b 974 92 967 71 974 78 l 974 129 b 953 150 974 143 967 150 z m 850 153 l 769 153 l 850 315 z "},"⅛":{"ha":1007,"x_min":0,"x_max":0,"o":"m 708 988 l 147 21 b 161 0 139 7 147 0 l 214 0 b 242 21 228 0 233 7 l 803 988 b 789 1008 811 1001 803 1008 l 736 1008 b 708 988 722 1008 717 1001 z m 167 951 l 167 564 b 188 543 167 550 174 543 l 232 543 b 253 564 246 543 253 550 l 253 951 b 232 972 253 965 246 972 l 188 972 b 167 951 174 972 167 965 z m 867 226 b 913 317 894 244 913 274 b 794 431 913 381 871 431 l 771 431 b 653 317 699 431 653 381 b 699 226 653 274 671 244 b 642 122 671 210 642 182 b 769 0 642 50 685 0 l 796 0 b 924 122 881 0 924 50 b 867 226 924 182 894 210 z m 786 258 l 779 258 b 733 307 751 258 733 276 b 779 356 733 338 751 356 l 786 356 b 832 307 814 356 832 338 b 786 258 832 276 814 258 z m 775 78 b 726 131 746 78 726 94 b 775 186 726 165 746 186 l 790 186 b 839 131 819 186 839 165 b 790 78 839 94 819 78 z "},"⅜":{"ha":1039,"x_min":0,"x_max":0,"o":"m 740 988 l 179 21 b 193 0 171 7 179 0 l 246 0 b 274 21 260 0 265 7 l 835 988 b 821 1008 843 1001 835 1008 l 768 1008 b 740 988 754 1008 749 1001 z m 301 757 b 360 853 343 778 360 810 b 243 972 360 913 322 972 l 208 972 b 86 857 132 972 86 924 l 86 839 b 107 818 86 825 93 818 l 149 818 b 169 839 163 818 169 825 l 169 849 b 224 893 169 878 190 893 b 278 840 258 893 278 874 b 226 793 278 810 264 793 l 204 793 b 185 772 192 793 185 786 l 185 742 b 204 721 185 728 192 721 l 226 721 b 281 674 267 721 281 704 b 224 621 281 640 261 621 b 167 665 188 621 167 636 l 167 675 b 146 696 167 689 160 696 l 104 696 b 83 675 90 696 83 689 l 83 657 b 208 542 83 590 129 542 l 243 542 b 368 661 331 542 368 601 b 301 757 368 704 346 736 z m 899 226 b 944 317 926 244 944 274 b 826 431 944 381 903 431 l 803 431 b 685 317 731 431 685 381 b 731 226 685 274 703 244 b 674 122 703 210 674 182 b 801 0 674 50 717 0 l 828 0 b 956 122 913 0 956 50 b 899 226 956 182 926 210 z m 818 258 l 811 258 b 765 307 783 258 765 276 b 811 356 765 338 783 356 l 818 356 b 864 307 846 356 864 338 b 818 258 864 276 846 258 z m 807 78 b 758 131 778 78 758 94 b 807 186 758 165 778 186 l 822 186 b 871 131 851 186 871 165 b 822 78 871 94 851 78 z "},"⅝":{"ha":1039,"x_min":0,"x_max":0,"o":"m 740 988 l 179 21 b 193 0 171 7 179 0 l 246 0 b 274 21 260 0 265 7 l 835 988 b 821 1008 843 1001 835 1008 l 768 1008 b 740 988 754 1008 749 1001 z m 238 824 b 169 799 215 824 188 818 l 169 892 l 332 892 b 353 913 346 892 353 899 l 353 951 b 332 972 353 965 346 972 l 110 972 b 89 951 96 972 89 965 l 89 757 b 110 736 89 743 96 736 l 168 736 b 221 754 181 749 201 754 b 281 682 268 754 281 726 b 224 621 281 640 261 621 b 167 665 188 621 167 636 l 167 675 b 146 696 167 689 160 696 l 104 696 b 83 675 90 696 83 689 l 83 657 b 208 542 83 590 129 542 l 243 542 b 368 682 331 542 368 601 b 238 824 368 769 325 824 z m 899 226 b 944 317 926 244 944 274 b 826 431 944 381 903 431 l 803 431 b 685 317 731 431 685 381 b 731 226 685 274 703 244 b 674 122 703 210 674 182 b 801 0 674 50 717 0 l 828 0 b 956 122 913 0 956 50 b 899 226 956 182 926 210 z m 818 258 l 811 258 b 765 307 783 258 765 276 b 811 356 765 338 783 356 l 818 356 b 864 307 846 356 864 338 b 818 258 864 276 846 258 z m 807 78 b 758 131 778 78 758 94 b 807 186 758 165 778 186 l 822 186 b 871 131 851 186 871 165 b 822 78 871 94 851 78 z "},"⅞":{"ha":1024,"x_min":0,"x_max":0,"o":"m 725 988 l 164 21 b 178 0 156 7 164 0 l 231 0 b 258 21 244 0 250 7 l 819 988 b 806 1008 828 1001 819 1008 l 753 1008 b 725 988 739 1008 733 1001 z m 353 908 l 353 951 b 332 972 353 965 346 972 l 104 972 b 83 951 90 972 83 965 l 83 910 b 104 889 83 896 90 889 l 260 889 l 104 561 b 117 542 100 551 104 542 l 175 542 b 197 561 186 542 193 551 l 347 885 b 353 908 353 896 353 903 z m 883 226 b 929 317 911 244 929 274 b 811 431 929 381 888 431 l 788 431 b 669 317 715 431 669 381 b 715 226 669 274 688 244 b 658 122 688 210 658 182 b 786 0 658 50 701 0 l 813 0 b 940 122 897 0 940 50 b 883 226 940 182 911 210 z m 803 258 l 796 258 b 750 307 768 258 750 276 b 796 356 750 338 768 356 l 803 356 b 849 307 831 356 849 338 b 803 258 849 276 831 258 z m 792 78 b 743 131 763 78 743 94 b 792 186 743 165 763 186 l 807 186 b 856 131 836 186 856 165 b 807 78 856 94 836 78 z "},".":{"ha":196,"x_min":0,"x_max":0,"o":"m 67 0 l 128 0 b 147 18 142 0 147 4 l 147 79 b 128 99 147 93 142 99 l 67 99 b 49 79 53 99 49 93 l 49 18 b 67 0 49 4 53 0 z "},",":{"ha":225,"x_min":0,"x_max":0,"o":"m 157 99 l 114 99 b 96 79 100 99 96 93 l 96 -119 l 53 -119 b 35 -139 39 -119 35 -125 l 35 -178 b 53 -196 35 -192 39 -196 l 140 -196 b 176 -161 165 -196 176 -186 l 176 79 b 157 99 176 93 171 99 z "},":":{"ha":196,"x_min":0,"x_max":0,"o":"m 67 596 l 128 596 b 147 615 142 596 147 601 l 147 676 b 128 694 147 690 142 694 l 67 694 b 49 676 53 694 49 690 l 49 615 b 67 596 49 601 53 596 z m 67 0 l 128 0 b 147 18 142 0 147 4 l 147 79 b 128 99 147 93 142 99 l 67 99 b 49 79 53 99 49 93 l 49 18 b 67 0 49 4 53 0 z "},";":{"ha":247,"x_min":0,"x_max":0,"o":"m 119 596 l 181 596 b 199 615 194 596 199 601 l 199 676 b 181 694 199 690 194 694 l 119 694 b 100 676 106 694 100 690 l 100 615 b 119 596 100 601 106 596 z m 171 99 l 128 99 b 110 79 114 99 110 93 l 110 -119 l 67 -119 b 49 -139 53 -119 49 -125 l 49 -178 b 67 -196 49 -192 53 -196 l 154 -196 b 190 -161 179 -196 190 -186 l 190 79 b 171 99 190 93 185 99 z "},"…":{"ha":626,"x_min":0,"x_max":0,"o":"m 67 0 l 128 0 b 147 18 142 0 147 4 l 147 79 b 128 99 147 93 142 99 l 67 99 b 49 79 53 99 49 93 l 49 18 b 67 0 49 4 53 0 z m 279 0 l 340 0 b 360 18 354 0 360 4 l 360 79 b 340 99 360 93 354 99 l 279 99 b 261 79 265 99 261 93 l 261 18 b 279 0 261 4 265 0 z m 499 0 l 560 0 b 578 18 574 0 578 4 l 578 79 b 560 99 578 93 574 99 l 499 99 b 481 79 485 99 481 93 l 481 18 b 499 0 481 4 485 0 z "},"!":{"ha":279,"x_min":0,"x_max":0,"o":"m 110 233 l 169 233 b 188 251 183 233 188 238 l 188 954 b 169 972 188 968 183 972 l 110 972 b 92 954 96 972 92 968 l 92 251 b 110 233 92 238 96 233 z m 108 0 l 169 0 b 189 18 183 0 189 4 l 189 79 b 169 99 189 93 183 99 l 108 99 b 90 79 94 99 90 93 l 90 18 b 108 0 90 4 94 0 z "},"¡":{"ha":279,"x_min":0,"x_max":0,"o":"m 169 694 l 108 694 b 90 676 94 694 90 690 l 90 615 b 108 596 90 601 94 596 l 169 596 b 189 615 183 596 189 601 l 189 676 b 169 694 189 690 183 694 z m 168 463 l 110 463 b 92 443 96 463 92 457 l 92 -260 b 110 -278 92 -274 96 -278 l 168 -278 b 188 -260 183 -278 188 -274 l 188 443 b 168 463 188 457 183 463 z "},"?":{"ha":1246,"x_min":0,"x_max":0,"o":"m 567 233 l 619 233 b 640 253 633 233 640 239 l 640 363 b 725 458 640 429 656 458 l 922 458 b 1183 714 1101 458 1183 526 b 924 978 1183 901 1103 978 l 342 978 b 63 728 169 978 63 903 l 63 707 b 79 690 63 696 67 690 l 138 690 b 154 707 150 690 154 696 b 346 893 154 843 217 893 l 911 893 b 1092 715 1039 893 1092 850 b 911 540 1092 581 1039 540 l 697 540 b 547 383 579 540 547 483 l 547 253 b 567 233 547 239 553 233 z m 564 0 l 625 0 b 643 18 639 0 643 4 l 643 79 b 625 99 643 93 639 99 l 564 99 b 546 79 550 99 546 93 l 546 18 b 564 0 546 4 550 0 z "},"¿":{"ha":1246,"x_min":0,"x_max":0,"o":"m 683 696 l 621 696 b 603 678 607 696 603 692 l 603 617 b 621 599 603 603 607 599 l 683 599 b 701 617 697 599 701 603 l 701 678 b 683 696 701 692 697 696 z m 681 464 l 626 464 b 607 443 613 464 607 457 l 607 333 b 521 238 607 268 590 238 l 324 238 b 63 -18 144 238 63 169 b 322 -282 63 -206 143 -282 l 904 -282 b 1183 -32 1076 -282 1183 -207 l 1183 -11 b 1167 6 1183 0 1179 6 l 1110 6 b 1092 -11 1096 6 1092 0 b 900 -197 1092 -147 1031 -197 l 336 -197 b 154 -19 207 -197 154 -154 b 336 156 154 117 207 156 l 550 156 b 700 313 667 156 700 213 l 700 443 b 681 464 700 457 694 464 z "},"·":{"ha":238,"x_min":0,"x_max":0,"o":"m 88 372 l 149 372 b 168 392 163 372 168 378 l 168 453 b 149 471 168 467 163 471 l 88 471 b 69 453 74 471 69 467 l 69 392 b 88 372 69 378 74 372 z "},"•":{"ha":331,"x_min":0,"x_max":0,"o":"m 69 468 l 69 375 b 114 329 69 344 83 329 l 214 329 b 261 375 244 329 261 344 l 261 468 b 214 514 261 499 244 514 l 114 514 b 69 468 83 514 69 499 z "},"*":{"ha":492,"x_min":0,"x_max":0,"o":"m 224 631 l 268 631 b 286 649 281 631 286 638 l 281 760 l 368 694 b 394 701 379 688 389 690 l 418 739 b 411 765 425 750 422 758 l 313 821 l 411 875 b 418 901 422 882 425 890 l 394 939 b 368 946 389 950 379 953 l 281 881 l 286 992 b 268 1010 286 1004 281 1010 l 224 1010 b 206 992 211 1010 206 1003 l 211 881 l 122 946 b 96 939 114 953 101 950 l 74 901 b 79 875 67 890 68 882 l 179 821 l 79 765 b 74 739 68 758 67 750 l 96 701 b 122 694 101 690 114 688 l 211 760 l 206 649 b 224 631 206 638 211 631 z "}}}
